<?xml version="1.0" encoding="UTF-8"?>
<!DOCTYPE svg  PUBLIC '-//W3C//DTD SVG 1.1//EN'  'http://www.w3.org/Graphics/SVG/1.1/DTD/svg11.dtd'>
<svg clip-rule="evenodd" fill-rule="evenodd" stroke-linejoin="round" stroke-miterlimit="1.4142" version="1.1" viewBox="0 0 100 105" xml:space="preserve" xmlns="http://www.w3.org/2000/svg"><clipPath id="a"><rect x="13.892" y="3.129" width="78.898" height="105.24"/></clipPath><g clip-path="url(#a)"><path d="m68.102 18.668c-2.073 1.208-10.652 3.008-12.185 10.956-0.79 4.095 0.305 2.937-0.627-1.504-2.568-12.226 11.107-34.313-3.096-16.939-4.027 4.925-11.798 17.947-11.798 18.845 0 0.216-0.292 1.105-0.648 1.976-1.212 2.956-3.465 11.579-4.74 18.137-2.099 10.799-4.322 14.723-9.521 16.805-5.63 2.253-7.837 1.318-7.265-3.08l0.203-1.563-1.028 1.183c-2.62 3.015-3.941 7.438-4.236 14.189l-0.199 4.561 1.133-1.835c1.699-2.753 1.802-2.601 1.862 2.764 0.03 2.648 0.22 5.574 0.422 6.503s0.612 2.942 0.911 4.474c0.536 2.745 1.147 3.449 1.147 1.32 0-3.596 2.612-9.334 5.574-12.245 2.772-2.724 3.2-2.811 4.532-0.921 1.929 2.737 5.424 3.794 4.545 1.375-0.821-2.261-0.74-5.297 0.182-6.789 1.253-2.027 1.645-2.062 4.082-0.366l2.153 1.498 0.548-2.112c1.193-4.604 5.48-8.025 10.056-8.025h0.857l-0.182 2.66c-0.296 4.318-2.381 7.66-5.708 9.15l-1.343 0.601 1.374 1.088c0.756 0.598 1.279 1.241 1.164 1.428-0.286 0.462-4.149 2.172-6.495 2.874l-1.913 0.573 1.773 0.49c0.976 0.27 1.774 0.609 1.774 0.754 0 0.935-5.544 4.624-9.459 6.295-2.926 1.248-2.692 1.308 2.27 0.581 13.211-1.936 24.62-10.419 30.961-23.022 0.675-1.343 1.228-2.499 1.228-2.569 0-0.071-1.025 0.907-2.278 2.173-2.263 2.285-3.293 2.619-2.36 0.764 0.573-1.138 2.172-7.602 2.531-10.23 0.225-1.649 0.351-1.862 1.263-2.146 8.978-2.794 15.07-7.776 18.599-15.207 1.114-2.345 3.098-9.908 2.704-10.302-0.104-0.104-0.189 0.027-0.189 0.29-1e-3 1.94-4.006 8.014-7.36 11.165-7.006 6.579-12.187 4.742-12.797-4.537-1.044-15.893 26.438-36.575 1.579-22.08z" fill="#fff"/><path d="m52.533 52.454c-0.863 3.441-1.605 4.273-5.154 5.781-2.717 1.155-2.849 1.073-1.976-1.231 2.025-5.343 2.232-5.635 4.882-6.866 3.035-1.411 3.152-1.29 2.248 2.316z"/></g></svg>
