<?xml version="1.0" encoding="UTF-8" standalone="no"?><!DOCTYPE svg PUBLIC "-//W3C//DTD SVG 1.1//EN" "http://www.w3.org/Graphics/SVG/1.1/DTD/svg11.dtd"><svg width="100%" height="100%" viewBox="0 0 322 342" version="1.1" xmlns="http://www.w3.org/2000/svg" xmlns:xlink="http://www.w3.org/1999/xlink" xml:space="preserve" xmlns:serif="http://www.serif.com/" style="fill-rule:evenodd;clip-rule:evenodd;stroke-miterlimit:10;"><g><path d="M321.5,31.5l0,-16.5c0,-9 -4.5,-13.5 -13.5,-13.5l-293,0c-9,0 -13.5,4.5 -13.5,13.5l0,16.5" style="fill:#008cff;fill-rule:nonzero;stroke:#666;stroke-width:2px;"/><path d="M1.5,31.5l0,296.5c0,9 4.5,13.5 13.5,13.5l293,0c9,0 13.5,-4.5 13.5,-13.5l0,-296.5" style="fill:none;fill-rule:nonzero;stroke:#666;stroke-width:2px;"/><path d="M1.5,31.5l320,0" style="fill:none;fill-rule:nonzero;stroke:#666;stroke-width:2px;"/><text x="126.255px" y="22px" style="font-family:'Helvetica';font-size:14px;fill:#fff;">Application</text><rect x="1.5" y="31.5" width="320" height="100" style="fill:#fff;stroke:#000;stroke-width:2px;stroke-miterlimit:4;"/><text x="132.604px" y="88px" style="font-family:'Helvetica';font-size:14px;">Webview</text><rect x="1.5" y="131.5" width="320" height="40" style="fill:#f5f5f5;stroke:#666;stroke-width:2px;stroke-miterlimit:4;"/><text x="109.982px" y="157px" style="font-family:'Helvetica';font-size:12px;fill:#333;">Javascript Runtime</text><rect x="1.5" y="171.5" width="320" height="40" style="fill:#dae8fc;stroke:#666;stroke-width:2px;stroke-miterlimit:4;"/><text x="148.831px" y="195.5px" style="font-family:'Helvetica';font-size:14px;">IPC</text><rect x="1.5" y="211.5" width="320" height="90" style="fill:#e0e0e0;stroke:#666;stroke-width:2px;stroke-miterlimit:4;"/><text x="151.162px" y="260.5px" style="font-family:'Helvetica';font-size:14px;">Go</text><path d="M161.5,200.13l0,-22.26" style="fill:none;fill-rule:nonzero;stroke:#000;stroke-opacity:0.2;stroke-width:1px;"/><path d="M161.5,205.38l-3.5,-7l3.5,1.75l3.5,-1.75l-3.5,7Z" style="fill-opacity:0.2;fill-rule:nonzero;stroke:#000;stroke-opacity:0.2;stroke-width:1px;"/><path d="M161.5,172.62l3.5,7l-3.5,-1.75l-3.5,1.75l3.5,-7Z" style="fill-opacity:0.2;fill-rule:nonzero;stroke:#000;stroke-opacity:0.2;stroke-width:1px;"/><rect x="1.5" y="301.5" width="320" height="40" style="fill:#f5f5f5;stroke:#666;stroke-width:2px;stroke-miterlimit:4;"/><text x="128.987px" y="327px" style="font-family:'Helvetica';font-size:12px;fill:#333;">Go Runtime</text><rect x="40.54" y="148.393" width="30.144" height="82.64" style="fill:#ebebeb;stroke:#000;stroke-width:1px;stroke-linecap:round;stroke-linejoin:round;stroke-miterlimit:1.5;stroke-dasharray:1,1;"/><g transform="matrix(6.07153e-17,-1,1,6.07153e-17,-389.387,124.255)"><text x="-82.968px" y="449.224px" style="font-family:'ArialMT', 'Arial', sans-serif;font-size:12px;">Events</text></g><rect x="260.796" y="151.5" width="30.144" height="82.64" style="fill:#ebebeb;stroke:#000;stroke-width:1px;stroke-linecap:round;stroke-linejoin:round;stroke-miterlimit:1.5;stroke-dasharray:1,1;"/><g transform="matrix(6.07153e-17,-1,1,6.07153e-17,-172.239,347.618)"><text x="137.288px" y="452.332px" style="font-family:'ArialMT', 'Arial', sans-serif;font-size:12px;">Binding</text></g></g></svg>