<?xml version="1.0" standalone="no"?>
<!DOCTYPE svg PUBLIC "-//W3C//DTD SVG 1.1//EN" "http://www.w3.org/Graphics/SVG/1.1/DTD/svg11.dtd" >
<svg xmlns="http://www.w3.org/2000/svg" xmlns:xlink="http://www.w3.org/1999/xlink" version="1.1">
<metadata>
Created by FontForge 20170731 at Fri Jul 20 05:06:49 2012
 By Aleksey,,,
(c) 1998-2012 Typodermic Fonts Inc. See attached license agreement. If agreement is missing visit typodermicfonts.com for more info. Languages by Chikako Larabie
</metadata>
<defs>
<font id="GoodTimesRg-Regular" horiz-adv-x="989" >
  <font-face 
    font-family="Good Times Rg"
    font-weight="400"
    font-stretch="normal"
    units-per-em="1000"
    panose-1="2 11 6 5 2 0 0 2 0 1"
    ascent="799"
    descent="-201"
    cap-height="727"
    bbox="-278 -201 1714 975"
    underline-thickness="20"
    underline-position="-163"
    unicode-range="U+0017-2265"
  />
<missing-glyph horiz-adv-x="430" 
d="M134 0q-81 0 -81 70v586q0 71 81 71h162q81 0 81 -71v-586q0 -70 -81 -70h-162zM334 656q0 33 -38 33h-162q-38 0 -38 -33v-586q0 -32 38 -32h162q38 0 38 32v586z" />
    <glyph glyph-name="copyright" unicode="&#x28;C&#x29;" horiz-adv-x="829" 
d="M415 -10q-77 0 -145 29.5t-118.5 80.5t-80 119t-29.5 145t29.5 145t80 118.5t118.5 79.5t145 29t145 -29t118.5 -79.5t79.5 -118.5t29 -145t-29 -145t-79.5 -119t-118.5 -80.5t-145 -29.5zM417 24q70 0 131 26.5t107 72.5t72.5 108t26.5 132t-26.5 132t-72.5 108.5
t-107 73t-131 26.5q-71 0 -133 -26.5t-108 -73t-72 -108.5t-26 -132t26 -132t72 -108t108 -72.5t133 -26.5zM411 190q-40 0 -74 13.5t-58.5 37t-38.5 55.5t-14 69q0 38 14 69.5t38.5 54t58.5 34.5t74 12h122v-47h-122q-28 0 -52 -9t-42 -26t-28 -40.5t-10 -51.5
q0 -27 10 -50t27.5 -39.5t41.5 -26t53 -9.5h122v-46h-122z" />
    <glyph glyph-name="registered" unicode="&#x28;R&#x29;" horiz-adv-x="585" 
d="M522 506q0 -48 -18 -89.5t-49.5 -72.5t-73 -49t-89.5 -18t-89.5 18t-72.5 49t-49 72.5t-18 89.5t18 90t49 73t72.5 49t89.5 18t89.5 -18t73 -49t49.5 -73t18 -90zM485 506q0 40 -15.5 76t-41.5 62t-61 41.5t-75 15.5t-75 -15.5t-61.5 -41.5t-42 -62t-15.5 -76t15.5 -75
t42 -61t61.5 -41t75 -15t75 15t61 41t41.5 61t15.5 75zM368 424l-50 50h-53v32h65q36 0 36 35q0 16 -9.5 25.5t-26.5 9.5h-107v-152h-35v186h142q34 0 52.5 -18.5t18.5 -49.5q0 -23 -10.5 -39t-29.5 -24l58 -55h-51z" />
    <glyph glyph-name="uni2117" unicode="&#x28;P&#x29;" horiz-adv-x="829" 
d="M415 -10q-77 0 -145 29.5t-118.5 80.5t-80 119t-29.5 145t29.5 145t80 118.5t118.5 79.5t145 29t145 -29t118.5 -79.5t79.5 -118.5t29 -145t-29 -145t-79.5 -119t-118.5 -80.5t-145 -29.5zM417 24q70 0 131 26.5t107 72.5t72.5 108t26.5 132t-26.5 132t-72.5 108.5
t-107 73t-131 26.5q-71 0 -133 -26.5t-108 -73t-72 -108.5t-26 -132t26 -132t72 -108t108 -72.5t133 -26.5zM352 304v34h139q36 0 56.5 20t20.5 52q0 33 -20.5 52t-56.5 19h-191v-267h-37v305h228q54 0 84 -29t30 -78q0 -48 -30 -78t-84 -30h-139z" />
    <glyph glyph-name=".notdef" horiz-adv-x="430" 
d="M134 0q-81 0 -81 70v586q0 71 81 71h162q81 0 81 -71v-586q0 -70 -81 -70h-162zM334 656q0 33 -38 33h-162q-38 0 -38 -33v-586q0 -32 38 -32h162q38 0 38 32v586z" />
    <glyph glyph-name=".null" horiz-adv-x="104" 
 />
    <glyph glyph-name="nonmarkingreturn" horiz-adv-x="104" 
 />
    <glyph glyph-name="uni0017" horiz-adv-x="294" 
 />
    <glyph glyph-name="space" unicode=" " horiz-adv-x="294" 
 />
    <glyph glyph-name="exclam" unicode="!" horiz-adv-x="298" 
d="M89 234v494h120v-494h-120zM151 -9q-29 0 -48.5 19t-19.5 50q0 29 19.5 48t48.5 19q30 0 49 -19t19 -48q0 -31 -19 -50t-49 -19z" />
    <glyph glyph-name="quotedbl" unicode="&#x22;" horiz-adv-x="452" 
d="M279 466l-24 261h129l-23 -261h-82zM91 466l-23 261h129l-23 -261h-83z" />
    <glyph glyph-name="numbersign" unicode="#" horiz-adv-x="697" 
d="M314 0l59 197h-149l-59 -197h-89l58 197h-90v85h116l52 175h-91v84h117l56 186h91l-56 -186h148l56 186h90l-56 -186h91v-84h-117l-52 -175h91v-85h-117l-59 -197h-90zM451 457h-149l-52 -175h149z" />
    <glyph glyph-name="dollar" unicode="$" horiz-adv-x="744" 
d="M405 71v-71h-56v71h-284v104h284v152h-114q-41 0 -74 12.5t-56 34.5t-35.5 52.5t-12.5 66.5q0 35 11.5 65t34.5 51.5t56 34t77 12.5h113v71h56v-71h252v-102h-252v-143h99q88 0 134.5 -41t46.5 -128q0 -37 -11 -68t-33.5 -54t-56.5 -36t-80 -13h-99zM504 175q42 0 63 20
t21 55q0 39 -21.5 58t-62.5 19h-99v-152h99zM349 554h-113q-35 0 -54 -19.5t-19 -51.5q0 -34 20 -53t53 -19h113v143z" />
    <glyph glyph-name="percent" unicode="%" horiz-adv-x="965" 
d="M42 0zM230 370q-40 0 -74.5 15t-59.5 40.5t-39.5 60.5t-14.5 74q0 40 14.5 73.5t39.5 58t59.5 38t74.5 13.5t74.5 -13.5t60 -38t40 -58t14.5 -73.5q0 -39 -14.5 -74t-40 -60.5t-60 -40.5t-74.5 -15zM355 557q0 53 -32.5 87.5t-92.5 34.5t-92.5 -34.5t-32.5 -87.5
t32.5 -88t92.5 -35t92.5 35t32.5 88zM97 -67l657 838h85l-655 -838h-87zM734 -15q-40 0 -74.5 15t-59.5 40.5t-39.5 60.5t-14.5 74q0 40 14.5 73.5t39.5 58t59.5 38t74.5 13.5t74.5 -13.5t60 -38t40 -58t14.5 -73.5q0 -39 -14.5 -74t-40 -60.5t-60 -40.5t-74.5 -15zM859 172
q0 53 -32.5 87.5t-92.5 34.5t-92.5 -34.5t-32.5 -87.5t32.5 -88t92.5 -35t92.5 35t32.5 88z" />
    <glyph glyph-name="ampersand" unicode="&#x26;" horiz-adv-x="759" 
d="M283 0q-54 0 -97.5 15.5t-73.5 44.5t-46.5 70t-16.5 91q0 63 32.5 105t81.5 58q-41 13 -70.5 49.5t-29.5 105.5q0 46 16.5 81.5t47.5 59t74.5 35.5t96.5 12h138v-126h-142q-103 0 -103 -90q0 -42 26 -65t80 -23h388v-106h-86v-190h131v-127h-447zM472 317h-166
q-62 0 -95.5 -20t-33.5 -73q0 -47 33 -72t94 -25h168v190z" />
    <glyph glyph-name="quotesingle" unicode="'" horiz-adv-x="255" 
d="M87 466l-24 261h129l-24 -261h-81z" />
    <glyph glyph-name="parenleft" unicode="(" horiz-adv-x="356" 
d="M203 -89q-58 126 -83.5 237.5t-25.5 222.5t26 220.5t80 234.5h92q-59 -134 -88 -244.5t-29 -211.5q0 -102 27 -213.5t91 -245.5h-90z" />
    <glyph glyph-name="parenright" unicode=")" horiz-adv-x="355" 
d="M63 -89q63 134 90 245.5t27 213.5t-28 211.5t-87 244.5h90q54 -125 80.5 -234.5t26.5 -220.5t-25.5 -222.5t-83.5 -237.5h-90z" />
    <glyph glyph-name="asterisk" unicode="*" horiz-adv-x="469" 
d="M312 399l-78 109l-77 -109l-47 36l76 108l-123 38l18 56l123 -38v128h60v-128l124 38l18 -56l-124 -38l77 -109z" />
    <glyph glyph-name="plus" unicode="+" horiz-adv-x="690" 
d="M303 87v241h-240v84h240v240h85v-240h239v-84h-239v-241h-85z" />
    <glyph glyph-name="comma" unicode="," horiz-adv-x="259" 
d="M68 -118v260h128l-50 -260h-78z" />
    <glyph glyph-name="hyphen" unicode="-" horiz-adv-x="296" 
d="M29 327v85h240v-85h-240z" />
    <glyph glyph-name="period" unicode="." horiz-adv-x="262" 
d="M199 60q0 -29 -20 -48.5t-49 -19.5t-48 19.5t-19 48.5t19 48.5t48 19.5t49 -19.5t20 -48.5z" />
    <glyph glyph-name="slash" unicode="/" horiz-adv-x="444" 
d="M9 0l342 727h83l-337 -727h-88z" />
    <glyph glyph-name="zero" unicode="0" horiz-adv-x="838" 
d="M419 -9q-80 0 -149 29.5t-119.5 81t-79.5 120.5t-29 149t29 147t79.5 115.5t119.5 75.5t149 27q79 0 148 -27t120 -75.5t80 -115.5t29 -147t-29 -149t-80 -120.5t-120 -81t-148 -29.5zM668 365q0 52 -16.5 97t-48.5 77t-78.5 50.5t-105.5 18.5q-60 0 -106.5 -18.5
t-78.5 -50.5t-48.5 -77t-16.5 -97q0 -53 16.5 -98t48.5 -78t78 -52t106 -19t106.5 19t78.5 52t48.5 78t16.5 98z" />
    <glyph glyph-name="one" unicode="1" horiz-adv-x="385" 
d="M196 0v489q0 54 -26 82.5t-76 28.5h-70v127h70q110 0 169 -62.5t59 -175.5v-489h-126z" />
    <glyph glyph-name="two" unicode="2" horiz-adv-x="825" 
d="M63 0v213q0 106 57 158t167 52h263q42 0 67 23t25 65t-24.5 65.5t-67.5 23.5h-481v127h481q54 0 95.5 -15.5t70 -42.5t43 -64.5t14.5 -81.5q0 -45 -15.5 -83t-44 -65.5t-69.5 -43t-93 -15.5h-264q-104 0 -104 -94v-95h578v-127h-698z" />
    <glyph glyph-name="three" unicode="3" horiz-adv-x="827" 
d="M46 0v127h467q60 0 98 24t38 72q0 45 -28 69t-82 24h-321v107h312q54 0 80 20t26 68q0 51 -34 70.5t-97 19.5h-456v126h481q53 0 96 -12t74 -35.5t47.5 -59t16.5 -81.5q0 -69 -29.5 -105.5t-70.5 -49.5q50 -16 82 -58t32 -106q0 -50 -16.5 -90.5t-47 -69t-74 -44.5
t-96.5 -16h-498z" />
    <glyph glyph-name="four" unicode="4" horiz-adv-x="845" 
d="M588 0v194h-301q-115 0 -177 56t-62 177v300h127v-299q0 -63 27.5 -87.5t84.5 -24.5h301v411h127v-411h105v-122h-105v-194h-127z" />
    <glyph glyph-name="five" unicode="5" horiz-adv-x="885" 
d="M63 0v127h545q51 0 78 26t27 69q0 47 -27 70.5t-78 23.5h-545v411h735v-127h-604v-177h414q110 0 167.5 -52t57.5 -158q0 -46 -14 -85t-42 -67.5t-70 -44.5t-99 -16h-545z" />
    <glyph glyph-name="six" unicode="6" horiz-adv-x="872" 
d="M372 0q-77 0 -138 23t-104 69t-65.5 116t-22.5 163t22.5 160t65.5 110.5t104 64.5t138 21h417v-127h-417q-87 0 -137.5 -41.5t-62.5 -134.5h426q104 0 162.5 -49t58.5 -154q0 -106 -59 -163.5t-162 -57.5h-226zM171 316q10 -99 61 -144t140 -45h214q54 0 82.5 25.5
t28.5 73.5q0 90 -111 90h-415z" />
    <glyph glyph-name="seven" unicode="7" horiz-adv-x="756" 
d="M50 0l497 600h-503v127h611q43 0 61.5 -17.5t18.5 -42.5q0 -14 -4.5 -28t-19.5 -32l-496 -607h-165z" />
    <glyph glyph-name="eight" unicode="8" horiz-adv-x="898" 
d="M285 0q-53 0 -96.5 15.5t-74 44.5t-47 69.5t-16.5 90.5q0 64 32 106t82 58q-41 13 -70.5 49.5t-29.5 105.5q0 46 16.5 81.5t47.5 59t74 35.5t96 12h300q53 0 96.5 -12t74 -35.5t47.5 -59t17 -81.5q0 -35 -8 -61t-22 -44.5t-32.5 -31t-38.5 -18.5q50 -16 82 -58t32 -106
q0 -50 -16.5 -90.5t-47 -69.5t-74 -44.5t-96.5 -15.5h-328zM290 316q-54 0 -82.5 -24.5t-28.5 -69.5q0 -48 38.5 -71.5t98.5 -23.5h266q60 0 98.5 23.5t38.5 71.5q0 45 -28.5 69.5t-82.5 24.5h-318zM323 601q-63 0 -96.5 -19.5t-33.5 -70.5q0 -48 26 -68t80 -20h300
q54 0 80 20t26 68q0 51 -33.5 70.5t-96.5 19.5h-252z" />
    <glyph glyph-name="nine" unicode="9" horiz-adv-x="861" 
d="M124 0v127h365q82 0 132 37t65 122h-434q-99 0 -154.5 50.5t-55.5 163.5q0 48 14.5 89.5t42 72t66.5 48t87 17.5h237q76 0 137.5 -23t104 -69t65.5 -116t23 -163t-23 -160.5t-65.5 -111t-104 -64t-137.5 -20.5h-365zM171 493q0 -52 27 -76.5t75 -24.5h418
q-7 108 -58 157.5t-144 49.5h-216q-48 0 -75 -27.5t-27 -78.5z" />
    <glyph glyph-name="colon" unicode=":" horiz-adv-x="262" 
d="M199 60q0 -29 -20 -48.5t-49 -19.5t-48 19.5t-19 48.5t19 48.5t48 19.5t49 -19.5t20 -48.5zM199 388q0 -29 -20 -48t-49 -19t-48 19t-19 48t19 49t48 20t49 -20t20 -49z" />
    <glyph glyph-name="semicolon" unicode=";" horiz-adv-x="262" 
d="M131 321q-29 0 -48 19.5t-19 48.5q0 30 19 49t48 19q30 0 49 -19t19 -49q0 -29 -19 -48.5t-49 -19.5zM68 -118v260h128l-50 -260h-78z" />
    <glyph glyph-name="less" unicode="&#x3c;" horiz-adv-x="690" 
d="M97 323q-16 7 -25 18.5t-9 28.5q0 14 9 27t25 20l530 222v-91l-456 -178l456 -180v-90z" />
    <glyph glyph-name="equal" unicode="=" horiz-adv-x="690" 
d="M63 462v84h564v-84h-564zM63 192v84h564v-84h-564z" />
    <glyph glyph-name="greater" unicode="&#x3e;" horiz-adv-x="690" 
d="M63 100v90l456 180l-456 178v91l530 -222q16 -7 25 -20t9 -27q0 -17 -9 -28.5t-25 -18.5z" />
    <glyph glyph-name="question" unicode="?" horiz-adv-x="776" 
d="M279 316q-47 0 -47 -42v-40h-120v43q0 67 41 106.5t126 39.5h245q42 0 67 23t25 65t-24.5 65.5t-67.5 23.5h-480v127h480q54 0 95.5 -15.5t69.5 -42.5t42.5 -64.5t14.5 -81.5q0 -45 -15 -83t-43.5 -65.5t-69.5 -43t-92 -15.5h-247zM174 -8q-29 0 -48.5 19t-19.5 50
q0 29 19.5 48t48.5 19q30 0 49 -19t19 -48q0 -31 -19 -50t-49 -19z" />
    <glyph glyph-name="at" unicode="@" horiz-adv-x="833" 
d="M408 0q-80 0 -147 25.5t-115.5 72t-76 112t-27.5 145.5q0 79 28 147t77 118t116 78t145 28h362v-531h-378q-32 0 -58.5 13t-45 35.5t-29 53t-10.5 65.5q0 34 10 64t29 52.5t45 35t59 12.5h196v-251h87v358h-267q-63 0 -113 -20t-85.5 -55.5t-54 -85t-18.5 -109.5
t18.5 -109.5t53.5 -85.5t85.5 -56t113.5 -20h362v-92h-362zM505 454h-90q-38 0 -59.5 -24t-21.5 -66q0 -38 22.5 -63.5t58.5 -25.5h90v179z" />
    <glyph glyph-name="A" unicode="A" 
d="M821 0l-109 183h-344l60 103h223l-162 272l-330 -558h-145l418 696q11 19 26 30t36 11t35.5 -11t25.5 -30l419 -696h-153z" />
    <glyph glyph-name="B" unicode="B" horiz-adv-x="891" 
d="M62 0v727h532q53 0 96.5 -12t74.5 -35.5t48 -59t17 -81.5q0 -35 -8 -61t-22 -44.5t-32.5 -31t-38.5 -18.5q50 -16 82 -58t32 -106q0 -50 -16.5 -90.5t-47 -69.5t-74 -44.5t-96.5 -15.5h-547zM281 316v107h314q54 0 80 20t26 68q0 29 -11 46.5t-31.5 27t-49 12.5t-63.5 3
h-357v-474h368q34 0 63 5t50 16.5t32.5 29.5t11.5 45q0 45 -28 69.5t-82 24.5h-323z" />
    <glyph glyph-name="C" unicode="C" horiz-adv-x="829" 
d="M395 0q-76 0 -140.5 28.5t-112 78t-74 117.5t-26.5 147q0 80 26.5 146t74 112.5t112 72t140.5 25.5h394v-127h-394q-49 0 -90.5 -17.5t-71.5 -48.5t-47 -74t-17 -95q0 -51 17 -95t47 -75.5t71.5 -49.5t90.5 -18h394v-127h-394z" />
    <glyph glyph-name="D" unicode="D" horiz-adv-x="879" 
d="M63 0v727h421q77 0 142 -26t112 -73t73.5 -112.5t26.5 -144.5t-26.5 -147t-73.5 -117.5t-112 -78t-142 -28.5h-421zM484 127q49 0 90.5 18t72 49.5t47.5 75.5t17 95t-17 94.5t-47.5 74.5t-72 48.5t-90.5 17.5h-295v-473h295z" />
    <glyph glyph-name="E" unicode="E" horiz-adv-x="759" 
d="M63 0v727h649v-127h-523v-473h524v-127h-650zM282 316v107h403v-107h-403z" />
    <glyph glyph-name="F" unicode="F" horiz-adv-x="705" 
d="M63 0v727h617v-127h-491v-600h-126zM282 301v111h368v-111h-368z" />
    <glyph glyph-name="G" unicode="G" horiz-adv-x="888" 
d="M395 0q-76 0 -140.5 28.5t-112 78t-74 117.5t-26.5 147q0 80 26.5 146t74 112.5t112 72t140.5 25.5h394v-127h-394q-49 0 -90.5 -17.5t-71.5 -48.5t-47 -74t-17 -95q0 -51 17 -95t47 -75.5t71.5 -49.5t90.5 -18h311v189h-328v107h456v-423h-439z" />
    <glyph glyph-name="H" unicode="H" horiz-adv-x="838" 
d="M648 -3v316h-366v113h366v301h127v-730h-127zM63 -3v730h127v-730h-127z" />
    <glyph glyph-name="I" unicode="I" horiz-adv-x="267" 
d="M70 0v727h127v-727h-127z" />
    <glyph glyph-name="J" unicode="J" horiz-adv-x="708" 
d="M24 0v127h266q127 0 183 49t56 155v396h127v-396q0 -169 -88 -250t-278 -81h-266z" />
    <glyph glyph-name="K" unicode="K" horiz-adv-x="875" 
d="M662 0l-407 320q-17 13 -21.5 25.5t-4.5 27.5q0 17 6 30t26 28l385 296h195l-476 -355l491 -372h-194zM63 0v727h127v-727h-127z" />
    <glyph glyph-name="L" unicode="L" horiz-adv-x="707" 
d="M63 0v727h127v-600h489v-127h-616z" />
    <glyph glyph-name="M" unicode="M" horiz-adv-x="1115" 
d="M968 0l-139 511l-206 -473q-11 -23 -26.5 -35.5t-38.5 -12.5q-45 0 -65 48l-205 473l-139 -511h-125l187 684q13 52 63 52q20 0 37.5 -11t26.5 -32l224 -514l224 514q18 43 61 43q46 0 61 -52l186 -684h-126z" />
    <glyph glyph-name="N" unicode="N" horiz-adv-x="873" 
d="M181 532v-532h-121v660q0 35 17.5 55.5t47.5 20.5q14 0 27 -6t27 -20l513 -509v532h121v-666q0 -36 -17.5 -56t-45.5 -20q-31 0 -58 27z" />
    <glyph glyph-name="O" unicode="O" horiz-adv-x="968" 
d="M395 0q-76 0 -140.5 28.5t-112 78t-74 117.5t-26.5 147q0 80 26.5 146t74 112.5t112 72t140.5 25.5h177q79 0 144.5 -26t112.5 -73t73 -112.5t26 -144.5t-26.5 -147t-74 -117.5t-112.5 -78t-143 -28.5h-177zM572 127q50 0 92 18t72.5 49.5t47.5 75.5t17 95t-17 94.5
t-47.5 74.5t-72.5 48.5t-92 17.5h-177q-49 0 -90.5 -17.5t-71.5 -48.5t-47 -74t-17 -95q0 -51 17 -95t47 -75.5t71.5 -49.5t90.5 -18h177z" />
    <glyph glyph-name="P" unicode="P" horiz-adv-x="867" 
d="M282 202v123h292q67 0 104.5 38t37.5 100q0 63 -37.5 100t-104.5 37h-385v-600h-126v727h511q63 0 112.5 -18.5t83.5 -52t52 -81.5t18 -108q0 -59 -18 -107.5t-52 -83.5t-83.5 -54.5t-112.5 -19.5h-292z" />
    <glyph glyph-name="Q" unicode="Q" horiz-adv-x="968" 
d="M795 0l-50 43q-38 -20 -81.5 -31.5t-91.5 -11.5h-177q-76 0 -140.5 28.5t-112 78t-74 117.5t-26.5 147q0 80 26.5 146t74 112.5t112 72t140.5 25.5h177q79 0 144.5 -26t112.5 -73t73 -112.5t26 -144.5q0 -80 -26.5 -147.5t-74.5 -117.5l137 -106h-169zM425 300h168
l135 -114q34 32 53.5 78t19.5 101q0 51 -17 94.5t-47.5 74.5t-72.5 48.5t-92 17.5h-177q-49 0 -90.5 -17.5t-71.5 -48.5t-47 -74t-17 -95q0 -51 17 -95t47 -75.5t71.5 -49.5t90.5 -18h177q31 0 63 8z" />
    <glyph glyph-name="R" unicode="R" horiz-adv-x="921" 
d="M738 0l-184 202h-272v112h303q69 0 104 37.5t35 108.5t-36.5 105.5t-102.5 34.5h-396v-600h-126v727h522q62 0 111 -18.5t83 -53t52 -83.5t18 -110q0 -91 -39.5 -152.5t-110.5 -88.5l219 -221h-180z" />
    <glyph glyph-name="S" unicode="S" horiz-adv-x="880" 
d="M63 0v127h545q51 0 78.5 26t27.5 69q0 47 -27.5 70.5t-78.5 23.5h-334q-51 0 -92.5 15.5t-70 43t-44 65.5t-15.5 83q0 44 14.5 81.5t43 64.5t70.5 42.5t96 15.5h522v-127h-522q-44 0 -68 -23.5t-24 -65.5t24.5 -65t66.5 -23h333q111 0 168.5 -52t57.5 -158q0 -46 -14 -85
t-42 -67.5t-70.5 -44.5t-99.5 -16h-545z" />
    <glyph glyph-name="T" unicode="T" horiz-adv-x="720" 
d="M296 0v600h-276v127h679v-127h-276v-600h-127z" />
    <glyph glyph-name="U" unicode="U" horiz-adv-x="889" 
d="M713 727h124v-406q0 -84 -22 -146.5t-69 -103.5t-121.5 -61t-180.5 -20q-105 0 -179.5 20t-121.5 61t-69 103.5t-22 146.5v406h131v-406q0 -55 13.5 -94t44 -64t81.5 -36.5t126 -11.5t126 11.5t81.5 36.5t44 64t13.5 94v406z" />
    <glyph glyph-name="V" unicode="V" 
d="M14 727h155l330 -560l329 560h146l-419 -696q-11 -19 -26 -30t-35 -11q-21 0 -36 11t-26 30z" />
    <glyph glyph-name="W" unicode="W" horiz-adv-x="1268" 
d="M634 243l-113 -213q-11 -20 -28 -30t-37 -10q-44 0 -66 40l-376 697h152l294 -559l110 198l-189 361h153l281 -559l296 559h142l-376 -697q-11 -20 -28.5 -30t-37.5 -10t-37 10t-28 30z" />
    <glyph glyph-name="X" unicode="X" horiz-adv-x="1000" 
d="M794 0l-305 297l-302 -297h-165l390 378l-362 349h175l277 -269l273 269h165l-362 -349l394 -378h-178z" />
    <glyph glyph-name="Y" unicode="Y" horiz-adv-x="926" 
d="M399 0v276l-386 451h171l283 -335l284 335h162l-387 -451v-276h-127z" />
    <glyph glyph-name="Z" unicode="Z" horiz-adv-x="802" 
d="M112 0q-29 0 -50.5 16.5t-21.5 48.5q0 28 26 54l483 487h-500v121h636q28 0 50 -16.5t22 -48.5q0 -28 -26 -54l-483 -487h506v-121h-642z" />
    <glyph glyph-name="bracketleft" unicode="[" horiz-adv-x="333" 
d="M99 -89v915h171v-83h-88v-751h88v-81h-171z" />
    <glyph glyph-name="backslash" unicode="\" horiz-adv-x="445" 
d="M347 0l-337 727h84l341 -727h-88z" />
    <glyph glyph-name="bracketright" unicode="]" horiz-adv-x="333" 
d="M63 -89v81h87v751h-87v83h171v-915h-171z" />
    <glyph glyph-name="asciicircum" unicode="^" horiz-adv-x="559" 
d="M410 300l-130 329l-132 -329h-85l171 402q7 16 18 25t28 9q15 0 28 -9t20 -25l168 -402h-86z" />
    <glyph glyph-name="underscore" unicode="_" horiz-adv-x="668" 
d="M0 -161v59h676v-59h-676z" />
    <glyph glyph-name="grave" unicode="`" horiz-adv-x="362" 
d="M53 827v79l256 -77v-57z" />
    <glyph glyph-name="a" unicode="a" 
d="M14 0zM821 0l-109 183h-344l60 103h223l-162 272l-330 -558h-145l418 696q11 19 26 30t36 11t35.5 -11t25.5 -30l419 -696h-153z" />
    <glyph glyph-name="b" unicode="b" horiz-adv-x="891" 
d="M62 0zM62 0v727h532q53 0 96.5 -12t74.5 -35.5t48 -59t17 -81.5q0 -35 -8 -61t-22 -44.5t-32.5 -31t-38.5 -18.5q50 -16 82 -58t32 -106q0 -50 -16.5 -90.5t-47 -69.5t-74 -44.5t-96.5 -15.5h-547zM281 316v107h314q54 0 80 20t26 68q0 29 -11 46.5t-31.5 27t-49 12.5
t-63.5 3h-357v-474h368q34 0 63 5t50 16.5t32.5 29.5t11.5 45q0 45 -28 69.5t-82 24.5h-323z" />
    <glyph glyph-name="c" unicode="c" horiz-adv-x="829" 
d="M42 0zM395 0q-76 0 -140.5 28.5t-112 78t-74 117.5t-26.5 147q0 80 26.5 146t74 112.5t112 72t140.5 25.5h394v-127h-394q-49 0 -90.5 -17.5t-71.5 -48.5t-47 -74t-17 -95q0 -51 17 -95t47 -75.5t71.5 -49.5t90.5 -18h394v-127h-394z" />
    <glyph glyph-name="d" unicode="d" horiz-adv-x="879" 
d="M63 0zM63 0v727h421q77 0 142 -26t112 -73t73.5 -112.5t26.5 -144.5t-26.5 -147t-73.5 -117.5t-112 -78t-142 -28.5h-421zM484 127q49 0 90.5 18t72 49.5t47.5 75.5t17 95t-17 94.5t-47.5 74.5t-72 48.5t-90.5 17.5h-295v-473h295z" />
    <glyph glyph-name="e" unicode="e" horiz-adv-x="759" 
d="M63 0zM63 0v727h649v-127h-523v-473h524v-127h-650zM282 316v107h403v-107h-403z" />
    <glyph glyph-name="f" unicode="f" horiz-adv-x="705" 
d="M63 0zM63 0v727h617v-127h-491v-600h-126zM282 301v111h368v-111h-368z" />
    <glyph glyph-name="g" unicode="g" horiz-adv-x="888" 
d="M42 0zM395 0q-76 0 -140.5 28.5t-112 78t-74 117.5t-26.5 147q0 80 26.5 146t74 112.5t112 72t140.5 25.5h394v-127h-394q-49 0 -90.5 -17.5t-71.5 -48.5t-47 -74t-17 -95q0 -51 17 -95t47 -75.5t71.5 -49.5t90.5 -18h311v189h-328v107h456v-423h-439z" />
    <glyph glyph-name="h" unicode="h" horiz-adv-x="838" 
d="M63 0zM648 -3v316h-366v113h366v301h127v-730h-127zM63 -3v730h127v-730h-127z" />
    <glyph glyph-name="i" unicode="i" horiz-adv-x="267" 
d="M70 0zM70 0v727h127v-727h-127z" />
    <glyph glyph-name="j" unicode="j" horiz-adv-x="708" 
d="M24 0zM24 0v127h266q127 0 183 49t56 155v396h127v-396q0 -169 -88 -250t-278 -81h-266z" />
    <glyph glyph-name="k" unicode="k" horiz-adv-x="875" 
d="M63 0zM662 0l-407 320q-17 13 -21.5 25.5t-4.5 27.5q0 17 6 30t26 28l385 296h195l-476 -355l491 -372h-194zM63 0v727h127v-727h-127z" />
    <glyph glyph-name="l" unicode="l" horiz-adv-x="707" 
d="M63 0zM63 0v727h127v-600h489v-127h-616z" />
    <glyph glyph-name="m" unicode="m" horiz-adv-x="1115" 
d="M24 0zM968 0l-139 511l-206 -473q-11 -23 -26.5 -35.5t-38.5 -12.5q-45 0 -65 48l-205 473l-139 -511h-125l187 684q13 52 63 52q20 0 37.5 -11t26.5 -32l224 -514l224 514q18 43 61 43q46 0 61 -52l186 -684h-126z" />
    <glyph glyph-name="n" unicode="n" horiz-adv-x="873" 
d="M60 0zM181 532v-532h-121v660q0 35 17.5 55.5t47.5 20.5q14 0 27 -6t27 -20l513 -509v532h121v-666q0 -36 -17.5 -56t-45.5 -20q-31 0 -58 27z" />
    <glyph glyph-name="o" unicode="o" horiz-adv-x="968" 
d="M42 0zM395 0q-76 0 -140.5 28.5t-112 78t-74 117.5t-26.5 147q0 80 26.5 146t74 112.5t112 72t140.5 25.5h177q79 0 144.5 -26t112.5 -73t73 -112.5t26 -144.5t-26.5 -147t-74 -117.5t-112.5 -78t-143 -28.5h-177zM572 127q50 0 92 18t72.5 49.5t47.5 75.5t17 95
t-17 94.5t-47.5 74.5t-72.5 48.5t-92 17.5h-177q-49 0 -90.5 -17.5t-71.5 -48.5t-47 -74t-17 -95q0 -51 17 -95t47 -75.5t71.5 -49.5t90.5 -18h177z" />
    <glyph glyph-name="p" unicode="p" horiz-adv-x="867" 
d="M63 0zM282 202v123h292q67 0 104.5 38t37.5 100q0 63 -37.5 100t-104.5 37h-385v-600h-126v727h511q63 0 112.5 -18.5t83.5 -52t52 -81.5t18 -108q0 -59 -18 -107.5t-52 -83.5t-83.5 -54.5t-112.5 -19.5h-292z" />
    <glyph glyph-name="q" unicode="q" horiz-adv-x="968" 
d="M42 0zM795 0l-50 43q-38 -20 -81.5 -31.5t-91.5 -11.5h-177q-76 0 -140.5 28.5t-112 78t-74 117.5t-26.5 147q0 80 26.5 146t74 112.5t112 72t140.5 25.5h177q79 0 144.5 -26t112.5 -73t73 -112.5t26 -144.5q0 -80 -26.5 -147.5t-74.5 -117.5l137 -106h-169zM425 300h168
l135 -114q34 32 53.5 78t19.5 101q0 51 -17 94.5t-47.5 74.5t-72.5 48.5t-92 17.5h-177q-49 0 -90.5 -17.5t-71.5 -48.5t-47 -74t-17 -95q0 -51 17 -95t47 -75.5t71.5 -49.5t90.5 -18h177q31 0 63 8z" />
    <glyph glyph-name="r" unicode="r" horiz-adv-x="921" 
d="M63 0zM738 0l-184 202h-272v112h303q69 0 104 37.5t35 108.5t-36.5 105.5t-102.5 34.5h-396v-600h-126v727h522q62 0 111 -18.5t83 -53t52 -83.5t18 -110q0 -91 -39.5 -152.5t-110.5 -88.5l219 -221h-180z" />
    <glyph glyph-name="s" unicode="s" horiz-adv-x="880" 
d="M52 0zM63 0v127h545q51 0 78.5 26t27.5 69q0 47 -27.5 70.5t-78.5 23.5h-334q-51 0 -92.5 15.5t-70 43t-44 65.5t-15.5 83q0 44 14.5 81.5t43 64.5t70.5 42.5t96 15.5h522v-127h-522q-44 0 -68 -23.5t-24 -65.5t24.5 -65t66.5 -23h333q111 0 168.5 -52t57.5 -158
q0 -46 -14 -85t-42 -67.5t-70.5 -44.5t-99.5 -16h-545z" />
    <glyph glyph-name="t" unicode="t" horiz-adv-x="720" 
d="M20 0zM296 0v600h-276v127h679v-127h-276v-600h-127z" />
    <glyph glyph-name="u" unicode="u" horiz-adv-x="889" 
d="M52 0zM713 727h124v-406q0 -84 -22 -146.5t-69 -103.5t-121.5 -61t-180.5 -20q-105 0 -179.5 20t-121.5 61t-69 103.5t-22 146.5v406h131v-406q0 -55 13.5 -94t44 -64t81.5 -36.5t126 -11.5t126 11.5t81.5 36.5t44 64t13.5 94v406z" />
    <glyph glyph-name="v" unicode="v" 
d="M14 0zM14 727h155l330 -560l329 560h146l-419 -696q-11 -19 -26 -30t-35 -11q-21 0 -36 11t-26 30z" />
    <glyph glyph-name="w" unicode="w" horiz-adv-x="1268" 
d="M14 0zM634 243l-113 -213q-11 -20 -28 -30t-37 -10q-44 0 -66 40l-376 697h152l294 -559l110 198l-189 361h153l281 -559l296 559h142l-376 -697q-11 -20 -28.5 -30t-37.5 -10t-37 10t-28 30z" />
    <glyph glyph-name="x" unicode="x" horiz-adv-x="1000" 
d="M22 0zM794 0l-305 297l-302 -297h-165l390 378l-362 349h175l277 -269l273 269h165l-362 -349l394 -378h-178z" />
    <glyph glyph-name="y" unicode="y" horiz-adv-x="926" 
d="M13 0zM399 0v276l-386 451h171l283 -335l284 335h162l-387 -451v-276h-127z" />
    <glyph glyph-name="z" unicode="z" horiz-adv-x="802" 
d="M40 0zM112 0q-29 0 -50.5 16.5t-21.5 48.5q0 28 26 54l483 487h-500v121h636q28 0 50 -16.5t22 -48.5q0 -28 -26 -54l-483 -487h506v-121h-642z" />
    <glyph glyph-name="braceleft" unicode="{" horiz-adv-x="337" 
d="M227 -89q-52 0 -83 30.5t-31 86.5v278q0 13 -11 19t-40 7v69q29 1 40 7t11 18v281q0 57 31 88t83 31h46v-70q-44 0 -60.5 -19.5t-16.5 -46.5v-242q0 -34 -8.5 -54t-30.5 -28q24 -10 31.5 -29t7.5 -52v-240q0 -40 20.5 -52t56.5 -12v-70h-46z" />
    <glyph glyph-name="bar" unicode="|" horiz-adv-x="297" 
d="M111 -89v915h75v-915h-75z" />
    <glyph glyph-name="braceright" unicode="}" horiz-adv-x="337" 
d="M62 -89v70q36 0 56.5 12t20.5 52v240q0 33 7.5 52t31.5 29q-22 8 -30.5 28t-8.5 54v242q0 27 -16.5 46.5t-60.5 19.5v70h46q52 0 83 -31t31 -88v-281q0 -12 11 -18t40 -7v-69q-29 -1 -40 -7t-11 -19v-278q0 -56 -31 -86.5t-83 -30.5h-46z" />
    <glyph glyph-name="asciitilde" unicode="~" horiz-adv-x="691" 
d="M628 346q-29 -27 -66.5 -39t-78.5 -12q-36 0 -69.5 10.5t-67 23.5t-67.5 23.5t-71 10.5q-41 0 -80.5 -17t-63.5 -43v92q27 26 64 39.5t80 13.5q36 0 70 -10.5t67 -23.5t67 -23.5t71 -10.5q43 0 83 18.5t62 40.5v-93z" />
    <glyph glyph-name="nonbreakingspace" unicode="&#xa0;" horiz-adv-x="294" 
 />
    <glyph glyph-name="exclamdown" unicode="&#xa1;" horiz-adv-x="298" 
d="M83 0zM213.006 494.015v-493.97h-119.993v493.97h119.993zM151.009 736.999q28.999 0 48.4971 -18.998q19.499 -18.999 19.499 -49.9971q0 -28.998 -19.499 -47.9971q-19.498 -18.999 -48.4971 -18.999q-29.998 0 -48.9971 18.999q-18.998 18.999 -18.998 47.9971
q0 30.998 18.998 49.9971q18.999 18.998 48.9971 18.998z" />
    <glyph glyph-name="cent" unicode="&#xa2;" horiz-adv-x="692" 
d="M454 71v-71h-56v71h-72q-62 0 -114 22.5t-90 62.5t-59 94.5t-21 118.5q0 65 21 118t59 90.5t90 58t114 20.5h72v71h56v-71h188v-103h-188v-378h188v-104h-188zM398 553h-72q-39 0 -72.5 -14t-58 -38.5t-38 -59.5t-13.5 -77q0 -41 13.5 -75.5t38 -60t58 -39.5t72.5 -14h72
v378z" />
    <glyph glyph-name="sterling" unicode="&#xa3;" horiz-adv-x="709" 
d="M29 0v127h89v200h-50v94h50v91q0 46 13.5 85.5t41 68t69.5 45t99 16.5h221v-127h-202q-57 0 -89.5 -25t-32.5 -79v-75h202v-94h-202v-200h431v-127h-640z" />
    <glyph glyph-name="yen" unicode="&#xa5;" horiz-adv-x="787" 
d="M453 74v-74h-120v74h-206v86h206v88h-206v86h155l-263 393h152l224 -349l217 349h149l-258 -393h162v-86h-212v-88h212v-86h-212z" />
    <glyph glyph-name="brokenbar" unicode="&#xa6;" horiz-adv-x="297" 
d="M186 420h-75v406h75v-406zM111 -89v398h75v-398h-75z" />
    <glyph glyph-name="section" unicode="&#xa7;" horiz-adv-x="773" 
d="M128 -201v121h358q44 0 75.5 21t31.5 66q0 38 -22.5 62t-63.5 24h-245q-92 0 -135 42t-43 111q0 42 14.5 74.5t44.5 50.5q-44 21 -69 64.5t-25 99.5q0 40 13.5 75t40 61t65 41t88.5 15h378v-121h-357q-45 0 -76.5 -21t-31.5 -66q0 -38 23 -62t63 -24h246q92 0 135 -42
t43 -112q0 -42 -15.5 -74t-44.5 -51q43 -20 69.5 -62t26.5 -98q0 -41 -13.5 -77t-40 -62t-65 -41t-89.5 -15h-379zM276 340q-42 0 -62 -21.5t-20 -53.5q0 -36 22 -57.5t66 -21.5h204q42 0 62 21.5t20 53.5q0 36 -22 57.5t-65 21.5h-205z" />
    <glyph glyph-name="dieresis" unicode="&#xa8;" horiz-adv-x="393" 
d="M155 848q0 -21 -14.5 -33t-35.5 -12q-23 0 -37.5 12t-14.5 33t14.5 33t37.5 12q21 0 35.5 -12t14.5 -33zM340 848q0 -21 -14.5 -33t-36.5 -12t-36.5 12t-14.5 33t14.5 33t36.5 12t36.5 -12t14.5 -33z" />
    <glyph glyph-name="ordfeminine" unicode="&#xaa;" horiz-adv-x="604" 
d="M482 300l-60 101h-190l33 56h123l-89 150l-182 -307h-79l230 383q6 11 14 16.5t20 5.5q20 0 33 -22l231 -383h-84z" />
    <glyph glyph-name="guillemotleft" unicode="&#xab;" horiz-adv-x="629" 
d="M59 346q-17 11 -17 25q0 16 17 27l267 160v-63l-218 -125l218 -126v-59zM320 346q-17 10 -17 25q0 16 17 27l268 160v-63l-218 -125l218 -126v-59z" />
    <glyph glyph-name="macron" unicode="&#xaf;" horiz-adv-x="362" 
d="M53 812v58h256v-58h-256z" />
    <glyph glyph-name="degree" unicode="&#xb0;" horiz-adv-x="361" 
d="M319 598q0 -137 -140 -137q-137 0 -137 137q0 138 137 138q140 0 140 -138zM262 597q0 82 -83 82q-41 0 -61.5 -19.5t-20.5 -61.5q0 -80 82 -80q83 0 83 79z" />
    <glyph glyph-name="plusminus" unicode="&#xb1;" horiz-adv-x="690" 
d="M63 0zM303 87v241h-240v84h240v240h85v-240h239v-84h-239v-241h-85zM63 -51v84h564v-84h-564z" />
    <glyph glyph-name="twosuperior" unicode="&#xb2;" horiz-adv-x="442" 
d="M46 375zM46 375v106q0 105 112 105h132q20 0 33 12t13 32q0 21 -12.5 33t-33.5 12h-241v63h241q54 0 82.5 -28.5t28.5 -73.5t-29.5 -74t-81.5 -29h-132q-52 0 -52 -47v-48h289v-63h-349z" />
    <glyph glyph-name="threesuperior" unicode="&#xb3;" horiz-adv-x="443" 
d="M38 375zM38 375v63h233q30 0 49 12.5t19 35.5q0 47 -55 47h-160v53h156q53 0 53 44q0 26 -17 35.5t-49 9.5h-228v63h241q53 0 85 -23.5t32 -70.5q0 -35 -15 -53t-35 -24q25 -8 41 -29t16 -53q0 -50 -31.5 -80t-85.5 -30h-249z" />
    <glyph glyph-name="acute" unicode="&#xb4;" horiz-adv-x="362" 
d="M53 772v57l256 77v-79z" />
    <glyph glyph-name="paragraph" unicode="&#xb6;" horiz-adv-x="629" 
d="M487 -101v748h-127v-748h-80v497h-68q-79 0 -123 46t-44 121t44 119.5t123 44.5h354v-828h-79z" />
    <glyph glyph-name="periodcentered" unicode="&#xb7;" horiz-adv-x="262" 
d="M199 360q0 -29 -20 -48.5t-49 -19.5t-48 19.5t-19 48.5t19 48.5t48 19.5t49 -19.5t20 -48.5z" />
    <glyph glyph-name="cedilla" unicode="&#xb8;" horiz-adv-x="219" 
d="M43 -47h133l-67 -154z" />
    <glyph glyph-name="onesuperior" unicode="&#xb9;" horiz-adv-x="222" 
d="M27 375zM113 375v244q0 56 -51 56h-35v63h35q55 0 84.5 -31t29.5 -88v-244h-63z" />
    <glyph glyph-name="ordmasculine" unicode="&#xba;" horiz-adv-x="592" 
d="M247 300q-42 0 -77.5 15.5t-61.5 43t-40.5 64.5t-14.5 81t14.5 80.5t40.5 62t61.5 39.5t77.5 14h98q43 0 79 -14.5t61.5 -40t40 -62t14.5 -79.5q0 -44 -14.5 -81t-40.5 -64.5t-62 -43t-78 -15.5h-98zM345 370q27 0 50.5 10t40 27t26 41t9.5 53q0 28 -9.5 51.5t-26 41
t-40 27t-50.5 9.5h-98q-27 0 -49.5 -9.5t-39 -26.5t-26 -41t-9.5 -52q0 -29 9 -53t25.5 -41t39.5 -27t50 -10h98z" />
    <glyph glyph-name="guillemotright" unicode="&#xbb;" horiz-adv-x="629" 
d="M303 185v59l218 126l-218 125v63l267 -160q18 -11 18 -27q0 -15 -18 -25zM42 185v59l218 126l-218 125v63l268 -160q17 -10 17 -27q0 -15 -17 -25z" />
    <glyph glyph-name="onequarter" unicode="&#xbc;" horiz-adv-x="972" 
d="M42 0zM211 375v244q0 56 -51 56h-35v63h35q55 0 84.5 -31t29.5 -88v-244h-63zM42 -67l657 838h85l-655 -838h-87zM814 -10v97h-151q-57 0 -88 28t-31 88v150h63v-149q0 -32 13.5 -44t42.5 -12h151v205h63v-205h53v-61h-53v-97h-63z" />
    <glyph glyph-name="onehalf" unicode="&#xbd;" horiz-adv-x="948" 
d="M42 0zM211 375v244q0 56 -51 56h-35v63h35q55 0 84.5 -31t29.5 -88v-244h-63zM42 -67l657 838h85l-655 -838h-87zM551 -10v106q0 105 112 105h132q20 0 33 12t13 32q0 21 -12.5 33t-33.5 12h-241v63h241q54 0 82.5 -28.5t28.5 -73.5t-29.5 -74t-81.5 -29h-132
q-52 0 -52 -47v-48h289v-63h-349z" />
    <glyph glyph-name="threequarters" unicode="&#xbe;" horiz-adv-x="1029" 
d="M42 0zM42 375v63h233q30 0 49 12.5t19 35.5q0 47 -55 47h-160v53h156q53 0 53 44q0 26 -17 35.5t-49 9.5h-228v63h241q53 0 85 -23.5t32 -70.5q0 -35 -15 -53t-35 -24q25 -8 41 -29t16 -53q0 -50 -31.5 -80t-85.5 -30h-249zM99 -67l657 838h85l-655 -838h-87zM871 -10v97
h-151q-57 0 -88 28t-31 88v150h63v-149q0 -32 13.5 -44t42.5 -12h151v205h63v-205h53v-61h-53v-97h-63z" />
    <glyph glyph-name="questiondown" unicode="&#xbf;" horiz-adv-x="776" 
d="M28 0zM495.017 411.02q46.9971 0 46.9971 41.9971v39.998h119.993v-42.998q0 -66.9951 -40.9971 -106.493q-40.998 -39.498 -125.993 -39.498h-244.984q-41.998 0 -66.9961 -22.998q-24.999 -22.999 -24.999 -64.9961t24.499 -65.4961q24.498 -23.498 67.4961 -23.498
h479.971v-126.993h-479.971q-53.9971 0 -95.4941 15.499q-41.498 15.5 -69.4961 42.498t-42.4971 64.4961q-14.499 37.4971 -14.499 81.4951q0 44.9971 14.999 82.9951q14.999 37.9971 43.4971 65.4951q28.498 27.499 69.4961 42.998q40.9971 15.499 91.9941 15.499h246.984
zM600.011 735q28.998 0 48.4971 -18.999t19.499 -49.9971q0 -28.998 -19.499 -47.9971t-48.4971 -18.999q-29.998 0 -48.9971 18.999t-18.999 47.9971q0 30.998 18.999 49.9971t48.9971 18.999z" />
    <glyph glyph-name="Agrave" unicode="&#xc0;" 
d="M14 0zM821 0l-109 183h-344l60 103h223l-162 272l-330 -558h-145l418 696q11 19 26 30t36 11t35.5 -11t25.5 -30l419 -696h-153zM336 827v79l256 -77v-57z" />
    <glyph glyph-name="Aacute" unicode="&#xc1;" 
d="M14 0zM821 0l-109 183h-344l60 103h223l-162 272l-330 -558h-145l418 696q11 19 26 30t36 11t35.5 -11t25.5 -30l419 -696h-153zM396 772v57l256 77v-79z" />
    <glyph glyph-name="Acircumflex" unicode="&#xc2;" 
d="M14 0zM821 0l-109 183h-344l60 103h223l-162 272l-330 -558h-145l418 696q11 19 26 30t36 11t35.5 -11t25.5 -30l419 -696h-153zM561 772l-63 97h-8l-63 -97h-69l91 134h91l91 -134h-70z" />
    <glyph glyph-name="Atilde" unicode="&#xc3;" 
d="M14 0zM821 0l-109 183h-344l60 103h223l-162 272l-330 -558h-145l418 696q11 19 26 30t36 11t35.5 -11t25.5 -30l419 -696h-153zM622 823q-23 -29 -66 -29q-17 0 -32 6t-30 13.5t-30.5 13.5t-32.5 6q-20 0 -38 -10.5t-27 -24.5v59q11 14 28 22t37 8q17 0 32.5 -6.5
t30.5 -14t30 -13.5t32 -6q20 0 38 11t28 25v-60z" />
    <glyph glyph-name="Adieresis" unicode="&#xc4;" 
d="M14 0zM821 0l-109 183h-344l60 103h223l-162 272l-330 -558h-145l418 696q11 19 26 30t36 11t35.5 -11t25.5 -30l419 -696h-153zM453 848q0 -21 -14.5 -33t-35.5 -12q-23 0 -37.5 12t-14.5 33t14.5 33t37.5 12q21 0 35.5 -12t14.5 -33zM638 848q0 -21 -14.5 -33
t-36.5 -12t-36.5 12t-14.5 33t14.5 33t36.5 12t36.5 -12t14.5 -33z" />
    <glyph glyph-name="Aring" unicode="&#xc5;" 
d="M14 0zM821 0l-109 183h-344l60 103h223l-162 272l-330 -558h-145l418 696q11 19 26 30t36 11t35.5 -11t25.5 -30l419 -696h-153zM468 772q-45 0 -73.5 29.5t-28.5 73.5q0 45 28.5 72.5t73.5 27.5h51q45 0 74 -27.5t29 -72.5q0 -44 -29 -73.5t-74 -29.5h-51zM519 809
q29 0 47 18.5t18 46.5t-18 45.5t-47 17.5h-51q-28 0 -46 -17.5t-18 -45.5t17.5 -46.5t46.5 -18.5h51z" />
    <glyph glyph-name="AE" unicode="&#xc6;" horiz-adv-x="1345" 
d="M690 0v177h-330l62 105h268v318h-191l-342 -600h-143l398 684q12 20 27 31.5t36 11.5h822v-127h-481v-473h483v-127h-609zM909 316v107h361v-107h-361z" />
    <glyph glyph-name="Ccedilla" unicode="&#xc7;" horiz-adv-x="829" 
d="M42 0zM395 0q-76 0 -140.5 28.5t-112 78t-74 117.5t-26.5 147q0 80 26.5 146t74 112.5t112 72t140.5 25.5h394v-127h-394q-49 0 -90.5 -17.5t-71.5 -48.5t-47 -74t-17 -95q0 -51 17 -95t47 -75.5t71.5 -49.5t90.5 -18h394v-127h-394zM368 -47h133l-67 -154z" />
    <glyph glyph-name="Egrave" unicode="&#xc8;" horiz-adv-x="759" 
d="M63 0zM63 0v727h649v-127h-523v-473h524v-127h-650zM282 316v107h403v-107h-403zM221 827v79l256 -77v-57z" />
    <glyph glyph-name="Eacute" unicode="&#xc9;" horiz-adv-x="759" 
d="M63 0zM63 0v727h649v-127h-523v-473h524v-127h-650zM282 316v107h403v-107h-403zM281 772v57l256 77v-79z" />
    <glyph glyph-name="Ecircumflex" unicode="&#xca;" horiz-adv-x="759" 
d="M63 0zM63 0v727h649v-127h-523v-473h524v-127h-650zM282 316v107h403v-107h-403zM446 772l-63 97h-8l-63 -97h-69l91 134h91l91 -134h-70z" />
    <glyph glyph-name="Edieresis" unicode="&#xcb;" horiz-adv-x="759" 
d="M63 0zM63 0v727h649v-127h-523v-473h524v-127h-650zM282 316v107h403v-107h-403zM338 848q0 -21 -14.5 -33t-35.5 -12q-23 0 -37.5 12t-14.5 33t14.5 33t37.5 12q21 0 35.5 -12t14.5 -33zM523 848q0 -21 -14.5 -33t-36.5 -12t-36.5 12t-14.5 33t14.5 33t36.5 12t36.5 -12
t14.5 -33z" />
    <glyph glyph-name="Igrave" unicode="&#xcc;" horiz-adv-x="267" 
d="M0 0zM70 0v727h127v-727h-127zM-23 827v79l256 -77v-57z" />
    <glyph glyph-name="Iacute" unicode="&#xcd;" horiz-adv-x="267" 
d="M37 0zM70 0v727h127v-727h-127zM37 772v57l256 77v-79z" />
    <glyph glyph-name="Icircumflex" unicode="&#xce;" horiz-adv-x="267" 
d="M0 0zM70 0v727h127v-727h-127zM201 772l-63 97h-8l-63 -97h-69l91 134h91l91 -134h-70z" />
    <glyph glyph-name="Idieresis" unicode="&#xcf;" horiz-adv-x="267" 
d="M0 0zM70 0v727h127v-727h-127zM93 848q0 -21 -14.5 -33t-35.5 -12q-23 0 -37.5 12t-14.5 33t14.5 33t37.5 12q21 0 35.5 -12t14.5 -33zM278 848q0 -21 -14.5 -33t-36.5 -12t-36.5 12t-14.5 33t14.5 33t36.5 12t36.5 -12t14.5 -33z" />
    <glyph glyph-name="Eth" unicode="&#xd0;" horiz-adv-x="877" 
d="M61 0v316h-51v107h51v304h421q77 0 142 -26t112.5 -73t74 -112.5t26.5 -144.5t-26.5 -147t-74 -117.5t-112.5 -78t-142 -28.5h-421zM187 316v-189h295q49 0 90.5 18t72 49.5t47.5 75.5t17 95t-17 94.5t-47.5 74.5t-72 48.5t-90.5 17.5h-295v-177h286v-107h-286z" />
    <glyph glyph-name="Ntilde" unicode="&#xd1;" horiz-adv-x="873" 
d="M60 0zM181 532v-532h-121v660q0 35 17.5 55.5t47.5 20.5q14 0 27 -6t27 -20l513 -509v532h121v-666q0 -36 -17.5 -56t-45.5 -20q-31 0 -58 27zM564 823q-23 -29 -66 -29q-17 0 -32 6t-30 13.5t-30.5 13.5t-32.5 6q-20 0 -38 -10.5t-27 -24.5v59q11 14 28 22t37 8
q17 0 32.5 -6.5t30.5 -14t30 -13.5t32 -6q20 0 38 11t28 25v-60z" />
    <glyph glyph-name="Ograve" unicode="&#xd2;" horiz-adv-x="968" 
d="M42 0zM395 0q-76 0 -140.5 28.5t-112 78t-74 117.5t-26.5 147q0 80 26.5 146t74 112.5t112 72t140.5 25.5h177q79 0 144.5 -26t112.5 -73t73 -112.5t26 -144.5t-26.5 -147t-74 -117.5t-112.5 -78t-143 -28.5h-177zM572 127q50 0 92 18t72.5 49.5t47.5 75.5t17 95
t-17 94.5t-47.5 74.5t-72.5 48.5t-92 17.5h-177q-49 0 -90.5 -17.5t-71.5 -48.5t-47 -74t-17 -95q0 -51 17 -95t47 -75.5t71.5 -49.5t90.5 -18h177zM326 827v79l256 -77v-57z" />
    <glyph glyph-name="Oacute" unicode="&#xd3;" horiz-adv-x="968" 
d="M42 0zM395 0q-76 0 -140.5 28.5t-112 78t-74 117.5t-26.5 147q0 80 26.5 146t74 112.5t112 72t140.5 25.5h177q79 0 144.5 -26t112.5 -73t73 -112.5t26 -144.5t-26.5 -147t-74 -117.5t-112.5 -78t-143 -28.5h-177zM572 127q50 0 92 18t72.5 49.5t47.5 75.5t17 95
t-17 94.5t-47.5 74.5t-72.5 48.5t-92 17.5h-177q-49 0 -90.5 -17.5t-71.5 -48.5t-47 -74t-17 -95q0 -51 17 -95t47 -75.5t71.5 -49.5t90.5 -18h177zM386 772v57l256 77v-79z" />
    <glyph glyph-name="Ocircumflex" unicode="&#xd4;" horiz-adv-x="968" 
d="M42 0zM395 0q-76 0 -140.5 28.5t-112 78t-74 117.5t-26.5 147q0 80 26.5 146t74 112.5t112 72t140.5 25.5h177q79 0 144.5 -26t112.5 -73t73 -112.5t26 -144.5t-26.5 -147t-74 -117.5t-112.5 -78t-143 -28.5h-177zM572 127q50 0 92 18t72.5 49.5t47.5 75.5t17 95
t-17 94.5t-47.5 74.5t-72.5 48.5t-92 17.5h-177q-49 0 -90.5 -17.5t-71.5 -48.5t-47 -74t-17 -95q0 -51 17 -95t47 -75.5t71.5 -49.5t90.5 -18h177zM550 772l-63 97h-8l-63 -97h-69l91 134h91l91 -134h-70z" />
    <glyph glyph-name="Otilde" unicode="&#xd5;" horiz-adv-x="968" 
d="M42 0zM395 0q-76 0 -140.5 28.5t-112 78t-74 117.5t-26.5 147q0 80 26.5 146t74 112.5t112 72t140.5 25.5h177q79 0 144.5 -26t112.5 -73t73 -112.5t26 -144.5t-26.5 -147t-74 -117.5t-112.5 -78t-143 -28.5h-177zM572 127q50 0 92 18t72.5 49.5t47.5 75.5t17 95
t-17 94.5t-47.5 74.5t-72.5 48.5t-92 17.5h-177q-49 0 -90.5 -17.5t-71.5 -48.5t-47 -74t-17 -95q0 -51 17 -95t47 -75.5t71.5 -49.5t90.5 -18h177zM612 823q-23 -29 -66 -29q-17 0 -32 6t-30 13.5t-30.5 13.5t-32.5 6q-20 0 -38 -10.5t-27 -24.5v59q11 14 28 22t37 8
q17 0 32.5 -6.5t30.5 -14t30 -13.5t32 -6q20 0 38 11t28 25v-60z" />
    <glyph glyph-name="Odieresis" unicode="&#xd6;" horiz-adv-x="968" 
d="M42 0zM395 0q-76 0 -140.5 28.5t-112 78t-74 117.5t-26.5 147q0 80 26.5 146t74 112.5t112 72t140.5 25.5h177q79 0 144.5 -26t112.5 -73t73 -112.5t26 -144.5t-26.5 -147t-74 -117.5t-112.5 -78t-143 -28.5h-177zM572 127q50 0 92 18t72.5 49.5t47.5 75.5t17 95
t-17 94.5t-47.5 74.5t-72.5 48.5t-92 17.5h-177q-49 0 -90.5 -17.5t-71.5 -48.5t-47 -74t-17 -95q0 -51 17 -95t47 -75.5t71.5 -49.5t90.5 -18h177zM442 848q0 -21 -14.5 -33t-35.5 -12q-23 0 -37.5 12t-14.5 33t14.5 33t37.5 12q21 0 35.5 -12t14.5 -33zM627 848
q0 -21 -14.5 -33t-36.5 -12t-36.5 12t-14.5 33t14.5 33t36.5 12t36.5 -12t14.5 -33z" />
    <glyph glyph-name="multiply" unicode="&#xd7;" horiz-adv-x="690" 
d="M515 140l-171 170l-169 -169l-60 59l170 170l-170 169l60 61l170 -170l169 169l59 -60l-169 -169l171 -170z" />
    <glyph glyph-name="Oslash" unicode="&#xd8;" horiz-adv-x="968" 
d="M395 0q-42 0 -79.5 8.5t-71.5 24.5l-70 -83l-38 33l63 75q-72 49 -114.5 130t-42.5 183q0 80 26.5 146t74 112.5t112 72t140.5 25.5h177q46 0 87.5 -9t77.5 -26l71 84l38 -33l-65 -76q69 -47 108 -123t39 -173q0 -79 -26.5 -147t-74 -117.5t-112.5 -78t-143 -28.5h-177z
M649 588q-18 5 -37.5 8.5t-39.5 3.5h-177q-49 0 -90.5 -17.5t-71.5 -48.5t-47 -74t-17 -95q0 -71 30.5 -125.5t82.5 -83.5zM572 127q50 0 92 18t72.5 49.5t47.5 75.5t17 95q0 67 -28 119t-77 82l-365 -431q32 -8 64 -8h177z" />
    <glyph glyph-name="Ugrave" unicode="&#xd9;" horiz-adv-x="889" 
d="M52 0zM713 727h124v-406q0 -84 -22 -146.5t-69 -103.5t-121.5 -61t-180.5 -20q-105 0 -179.5 20t-121.5 61t-69 103.5t-22 146.5v406h131v-406q0 -55 13.5 -94t44 -64t81.5 -36.5t126 -11.5t126 11.5t81.5 36.5t44 64t13.5 94v406zM286 827v79l256 -77v-57z" />
    <glyph glyph-name="Uacute" unicode="&#xda;" horiz-adv-x="889" 
d="M52 0zM713 727h124v-406q0 -84 -22 -146.5t-69 -103.5t-121.5 -61t-180.5 -20q-105 0 -179.5 20t-121.5 61t-69 103.5t-22 146.5v406h131v-406q0 -55 13.5 -94t44 -64t81.5 -36.5t126 -11.5t126 11.5t81.5 36.5t44 64t13.5 94v406zM346 772v57l256 77v-79z" />
    <glyph glyph-name="Ucircumflex" unicode="&#xdb;" horiz-adv-x="889" 
d="M52 0zM713 727h124v-406q0 -84 -22 -146.5t-69 -103.5t-121.5 -61t-180.5 -20q-105 0 -179.5 20t-121.5 61t-69 103.5t-22 146.5v406h131v-406q0 -55 13.5 -94t44 -64t81.5 -36.5t126 -11.5t126 11.5t81.5 36.5t44 64t13.5 94v406zM511 772l-63 97h-8l-63 -97h-69l91 134
h91l91 -134h-70z" />
    <glyph glyph-name="Udieresis" unicode="&#xdc;" horiz-adv-x="889" 
d="M52 0zM713 727h124v-406q0 -84 -22 -146.5t-69 -103.5t-121.5 -61t-180.5 -20q-105 0 -179.5 20t-121.5 61t-69 103.5t-22 146.5v406h131v-406q0 -55 13.5 -94t44 -64t81.5 -36.5t126 -11.5t126 11.5t81.5 36.5t44 64t13.5 94v406zM403 848q0 -21 -14.5 -33t-35.5 -12
q-23 0 -37.5 12t-14.5 33t14.5 33t37.5 12q21 0 35.5 -12t14.5 -33zM588 848q0 -21 -14.5 -33t-36.5 -12t-36.5 12t-14.5 33t14.5 33t36.5 12t36.5 -12t14.5 -33z" />
    <glyph glyph-name="Yacute" unicode="&#xdd;" horiz-adv-x="926" 
d="M13 0zM399 0v276l-386 451h171l283 -335l284 335h162l-387 -451v-276h-127zM369 772v57l256 77v-79z" />
    <glyph glyph-name="Thorn" unicode="&#xde;" horiz-adv-x="843" 
d="M282 91v122h262q69 0 107 39.5t38 105.5t-38 103.5t-107 37.5h-355v-499h-126v727h126v-101h355q63 0 113.5 -18.5t85 -53t53 -83.5t18.5 -109q0 -61 -18.5 -111t-53 -85.5t-85 -55t-113.5 -19.5h-262z" />
    <glyph glyph-name="germandbls" unicode="&#xdf;" horiz-adv-x="1760" 
d="M52 0zM63 0v127h545q51 0 78.5 26t27.5 69q0 47 -27.5 70.5t-78.5 23.5h-334q-51 0 -92.5 15.5t-70 43t-44 65.5t-15.5 83q0 44 14.5 81.5t43 64.5t70.5 42.5t96 15.5h522v-127h-522q-44 0 -68 -23.5t-24 -65.5t24.5 -65t66.5 -23h333q111 0 168.5 -52t57.5 -158
q0 -46 -14 -85t-42 -67.5t-70.5 -44.5t-99.5 -16h-545zM943 0v127h545q51 0 78.5 26t27.5 69q0 47 -27.5 70.5t-78.5 23.5h-334q-51 0 -92.5 15.5t-70 43t-44 65.5t-15.5 83q0 44 14.5 81.5t43 64.5t70.5 42.5t96 15.5h522v-127h-522q-44 0 -68 -23.5t-24 -65.5t24.5 -65
t66.5 -23h333q111 0 168.5 -52t57.5 -158q0 -46 -14 -85t-42 -67.5t-70.5 -44.5t-99.5 -16h-545z" />
    <glyph glyph-name="agrave" unicode="&#xe0;" 
d="M14 0zM821 0l-109 183h-344l60 103h223l-162 272l-330 -558h-145l418 696q11 19 26 30t36 11t35.5 -11t25.5 -30l419 -696h-153zM336 827v79l256 -77v-57z" />
    <glyph glyph-name="aacute" unicode="&#xe1;" 
d="M14 0zM821 0l-109 183h-344l60 103h223l-162 272l-330 -558h-145l418 696q11 19 26 30t36 11t35.5 -11t25.5 -30l419 -696h-153zM396 772v57l256 77v-79z" />
    <glyph glyph-name="acircumflex" unicode="&#xe2;" 
d="M14 0zM821 0l-109 183h-344l60 103h223l-162 272l-330 -558h-145l418 696q11 19 26 30t36 11t35.5 -11t25.5 -30l419 -696h-153zM561 772l-63 97h-8l-63 -97h-69l91 134h91l91 -134h-70z" />
    <glyph glyph-name="atilde" unicode="&#xe3;" 
d="M14 0zM821 0l-109 183h-344l60 103h223l-162 272l-330 -558h-145l418 696q11 19 26 30t36 11t35.5 -11t25.5 -30l419 -696h-153zM622 823q-23 -29 -66 -29q-17 0 -32 6t-30 13.5t-30.5 13.5t-32.5 6q-20 0 -38 -10.5t-27 -24.5v59q11 14 28 22t37 8q17 0 32.5 -6.5
t30.5 -14t30 -13.5t32 -6q20 0 38 11t28 25v-60z" />
    <glyph glyph-name="adieresis" unicode="&#xe4;" 
d="M14 0zM821 0l-109 183h-344l60 103h223l-162 272l-330 -558h-145l418 696q11 19 26 30t36 11t35.5 -11t25.5 -30l419 -696h-153zM453 848q0 -21 -14.5 -33t-35.5 -12q-23 0 -37.5 12t-14.5 33t14.5 33t37.5 12q21 0 35.5 -12t14.5 -33zM638 848q0 -21 -14.5 -33
t-36.5 -12t-36.5 12t-14.5 33t14.5 33t36.5 12t36.5 -12t14.5 -33z" />
    <glyph glyph-name="aring" unicode="&#xe5;" 
d="M14 0zM821 0l-109 183h-344l60 103h223l-162 272l-330 -558h-145l418 696q11 19 26 30t36 11t35.5 -11t25.5 -30l419 -696h-153zM468 772q-45 0 -73.5 29.5t-28.5 73.5q0 45 28.5 72.5t73.5 27.5h51q45 0 74 -27.5t29 -72.5q0 -44 -29 -73.5t-74 -29.5h-51zM519 809
q29 0 47 18.5t18 46.5t-18 45.5t-47 17.5h-51q-28 0 -46 -17.5t-18 -45.5t17.5 -46.5t46.5 -18.5h51z" />
    <glyph glyph-name="ae" unicode="&#xe6;" horiz-adv-x="1345" 
d="M14 0zM690 0v177h-330l62 105h268v318h-191l-342 -600h-143l398 684q12 20 27 31.5t36 11.5h822v-127h-481v-473h483v-127h-609zM909 316v107h361v-107h-361z" />
    <glyph glyph-name="ccedilla" unicode="&#xe7;" horiz-adv-x="829" 
d="M42 0zM395 0q-76 0 -140.5 28.5t-112 78t-74 117.5t-26.5 147q0 80 26.5 146t74 112.5t112 72t140.5 25.5h394v-127h-394q-49 0 -90.5 -17.5t-71.5 -48.5t-47 -74t-17 -95q0 -51 17 -95t47 -75.5t71.5 -49.5t90.5 -18h394v-127h-394zM368 -47h133l-67 -154z" />
    <glyph glyph-name="egrave" unicode="&#xe8;" horiz-adv-x="759" 
d="M63 0zM63 0v727h649v-127h-523v-473h524v-127h-650zM282 316v107h403v-107h-403zM221 827v79l256 -77v-57z" />
    <glyph glyph-name="eacute" unicode="&#xe9;" horiz-adv-x="759" 
d="M63 0zM63 0v727h649v-127h-523v-473h524v-127h-650zM282 316v107h403v-107h-403zM281 772v57l256 77v-79z" />
    <glyph glyph-name="ecircumflex" unicode="&#xea;" horiz-adv-x="759" 
d="M63 0zM63 0v727h649v-127h-523v-473h524v-127h-650zM282 316v107h403v-107h-403zM446 772l-63 97h-8l-63 -97h-69l91 134h91l91 -134h-70z" />
    <glyph glyph-name="edieresis" unicode="&#xeb;" horiz-adv-x="759" 
d="M63 0zM63 0v727h649v-127h-523v-473h524v-127h-650zM282 316v107h403v-107h-403zM338 848q0 -21 -14.5 -33t-35.5 -12q-23 0 -37.5 12t-14.5 33t14.5 33t37.5 12q21 0 35.5 -12t14.5 -33zM523 848q0 -21 -14.5 -33t-36.5 -12t-36.5 12t-14.5 33t14.5 33t36.5 12t36.5 -12
t14.5 -33z" />
    <glyph glyph-name="igrave" unicode="&#xec;" horiz-adv-x="267" 
d="M0 0zM70 0v727h127v-727h-127zM-23 827v79l256 -77v-57z" />
    <glyph glyph-name="iacute" unicode="&#xed;" horiz-adv-x="267" 
d="M37 0zM70 0v727h127v-727h-127zM37 772v57l256 77v-79z" />
    <glyph glyph-name="icircumflex" unicode="&#xee;" horiz-adv-x="267" 
d="M0 0zM70 0v727h127v-727h-127zM201 772l-63 97h-8l-63 -97h-69l91 134h91l91 -134h-70z" />
    <glyph glyph-name="idieresis" unicode="&#xef;" horiz-adv-x="267" 
d="M0 0zM70 0v727h127v-727h-127zM93 848q0 -21 -14.5 -33t-35.5 -12q-23 0 -37.5 12t-14.5 33t14.5 33t37.5 12q21 0 35.5 -12t14.5 -33zM278 848q0 -21 -14.5 -33t-36.5 -12t-36.5 12t-14.5 33t14.5 33t36.5 12t36.5 -12t14.5 -33z" />
    <glyph glyph-name="eth" unicode="&#xf0;" horiz-adv-x="877" 
d="M10 0zM61 0v316h-51v107h51v304h421q77 0 142 -26t112.5 -73t74 -112.5t26.5 -144.5t-26.5 -147t-74 -117.5t-112.5 -78t-142 -28.5h-421zM187 316v-189h295q49 0 90.5 18t72 49.5t47.5 75.5t17 95t-17 94.5t-47.5 74.5t-72 48.5t-90.5 17.5h-295v-177h286v-107h-286z
" />
    <glyph glyph-name="ntilde" unicode="&#xf1;" horiz-adv-x="873" 
d="M60 0zM181 532v-532h-121v660q0 35 17.5 55.5t47.5 20.5q14 0 27 -6t27 -20l513 -509v532h121v-666q0 -36 -17.5 -56t-45.5 -20q-31 0 -58 27zM564 823q-23 -29 -66 -29q-17 0 -32 6t-30 13.5t-30.5 13.5t-32.5 6q-20 0 -38 -10.5t-27 -24.5v59q11 14 28 22t37 8
q17 0 32.5 -6.5t30.5 -14t30 -13.5t32 -6q20 0 38 11t28 25v-60z" />
    <glyph glyph-name="ograve" unicode="&#xf2;" horiz-adv-x="968" 
d="M42 0zM395 0q-76 0 -140.5 28.5t-112 78t-74 117.5t-26.5 147q0 80 26.5 146t74 112.5t112 72t140.5 25.5h177q79 0 144.5 -26t112.5 -73t73 -112.5t26 -144.5t-26.5 -147t-74 -117.5t-112.5 -78t-143 -28.5h-177zM572 127q50 0 92 18t72.5 49.5t47.5 75.5t17 95
t-17 94.5t-47.5 74.5t-72.5 48.5t-92 17.5h-177q-49 0 -90.5 -17.5t-71.5 -48.5t-47 -74t-17 -95q0 -51 17 -95t47 -75.5t71.5 -49.5t90.5 -18h177zM326 827v79l256 -77v-57z" />
    <glyph glyph-name="oacute" unicode="&#xf3;" horiz-adv-x="968" 
d="M42 0zM395 0q-76 0 -140.5 28.5t-112 78t-74 117.5t-26.5 147q0 80 26.5 146t74 112.5t112 72t140.5 25.5h177q79 0 144.5 -26t112.5 -73t73 -112.5t26 -144.5t-26.5 -147t-74 -117.5t-112.5 -78t-143 -28.5h-177zM572 127q50 0 92 18t72.5 49.5t47.5 75.5t17 95
t-17 94.5t-47.5 74.5t-72.5 48.5t-92 17.5h-177q-49 0 -90.5 -17.5t-71.5 -48.5t-47 -74t-17 -95q0 -51 17 -95t47 -75.5t71.5 -49.5t90.5 -18h177zM386 772v57l256 77v-79z" />
    <glyph glyph-name="ocircumflex" unicode="&#xf4;" horiz-adv-x="968" 
d="M42 0zM395 0q-76 0 -140.5 28.5t-112 78t-74 117.5t-26.5 147q0 80 26.5 146t74 112.5t112 72t140.5 25.5h177q79 0 144.5 -26t112.5 -73t73 -112.5t26 -144.5t-26.5 -147t-74 -117.5t-112.5 -78t-143 -28.5h-177zM572 127q50 0 92 18t72.5 49.5t47.5 75.5t17 95
t-17 94.5t-47.5 74.5t-72.5 48.5t-92 17.5h-177q-49 0 -90.5 -17.5t-71.5 -48.5t-47 -74t-17 -95q0 -51 17 -95t47 -75.5t71.5 -49.5t90.5 -18h177zM550 772l-63 97h-8l-63 -97h-69l91 134h91l91 -134h-70z" />
    <glyph glyph-name="otilde" unicode="&#xf5;" horiz-adv-x="968" 
d="M42 0zM395 0q-76 0 -140.5 28.5t-112 78t-74 117.5t-26.5 147q0 80 26.5 146t74 112.5t112 72t140.5 25.5h177q79 0 144.5 -26t112.5 -73t73 -112.5t26 -144.5t-26.5 -147t-74 -117.5t-112.5 -78t-143 -28.5h-177zM572 127q50 0 92 18t72.5 49.5t47.5 75.5t17 95
t-17 94.5t-47.5 74.5t-72.5 48.5t-92 17.5h-177q-49 0 -90.5 -17.5t-71.5 -48.5t-47 -74t-17 -95q0 -51 17 -95t47 -75.5t71.5 -49.5t90.5 -18h177zM612 823q-23 -29 -66 -29q-17 0 -32 6t-30 13.5t-30.5 13.5t-32.5 6q-20 0 -38 -10.5t-27 -24.5v59q11 14 28 22t37 8
q17 0 32.5 -6.5t30.5 -14t30 -13.5t32 -6q20 0 38 11t28 25v-60z" />
    <glyph glyph-name="odieresis" unicode="&#xf6;" horiz-adv-x="968" 
d="M42 0zM395 0q-76 0 -140.5 28.5t-112 78t-74 117.5t-26.5 147q0 80 26.5 146t74 112.5t112 72t140.5 25.5h177q79 0 144.5 -26t112.5 -73t73 -112.5t26 -144.5t-26.5 -147t-74 -117.5t-112.5 -78t-143 -28.5h-177zM572 127q50 0 92 18t72.5 49.5t47.5 75.5t17 95
t-17 94.5t-47.5 74.5t-72.5 48.5t-92 17.5h-177q-49 0 -90.5 -17.5t-71.5 -48.5t-47 -74t-17 -95q0 -51 17 -95t47 -75.5t71.5 -49.5t90.5 -18h177zM442 848q0 -21 -14.5 -33t-35.5 -12q-23 0 -37.5 12t-14.5 33t14.5 33t37.5 12q21 0 35.5 -12t14.5 -33zM627 848
q0 -21 -14.5 -33t-36.5 -12t-36.5 12t-14.5 33t14.5 33t36.5 12t36.5 -12t14.5 -33z" />
    <glyph glyph-name="divide" unicode="&#xf7;" horiz-adv-x="690" 
d="M63 32zM63 328v84h564v-84h-564zM413 630q0 -29 -20 -48.5t-49 -19.5t-48 19.5t-19 48.5t19 48.5t48 19.5t49 -19.5t20 -48.5zM413 100q0 -29 -20 -48.5t-49 -19.5t-48 19.5t-19 48.5t19 48.5t48 19.5t49 -19.5t20 -48.5z" />
    <glyph glyph-name="oslash" unicode="&#xf8;" horiz-adv-x="968" 
d="M42 0zM395 0q-42 0 -79.5 8.5t-71.5 24.5l-70 -83l-38 33l63 75q-72 49 -114.5 130t-42.5 183q0 80 26.5 146t74 112.5t112 72t140.5 25.5h177q46 0 87.5 -9t77.5 -26l71 84l38 -33l-65 -76q69 -47 108 -123t39 -173q0 -79 -26.5 -147t-74 -117.5t-112.5 -78t-143 -28.5
h-177zM649 588q-18 5 -37.5 8.5t-39.5 3.5h-177q-49 0 -90.5 -17.5t-71.5 -48.5t-47 -74t-17 -95q0 -71 30.5 -125.5t82.5 -83.5zM572 127q50 0 92 18t72.5 49.5t47.5 75.5t17 95q0 67 -28 119t-77 82l-365 -431q32 -8 64 -8h177z" />
    <glyph glyph-name="ugrave" unicode="&#xf9;" horiz-adv-x="889" 
d="M52 0zM713 727h124v-406q0 -84 -22 -146.5t-69 -103.5t-121.5 -61t-180.5 -20q-105 0 -179.5 20t-121.5 61t-69 103.5t-22 146.5v406h131v-406q0 -55 13.5 -94t44 -64t81.5 -36.5t126 -11.5t126 11.5t81.5 36.5t44 64t13.5 94v406zM286 827v79l256 -77v-57z" />
    <glyph glyph-name="uacute" unicode="&#xfa;" horiz-adv-x="889" 
d="M52 0zM713 727h124v-406q0 -84 -22 -146.5t-69 -103.5t-121.5 -61t-180.5 -20q-105 0 -179.5 20t-121.5 61t-69 103.5t-22 146.5v406h131v-406q0 -55 13.5 -94t44 -64t81.5 -36.5t126 -11.5t126 11.5t81.5 36.5t44 64t13.5 94v406zM346 772v57l256 77v-79z" />
    <glyph glyph-name="ucircumflex" unicode="&#xfb;" horiz-adv-x="889" 
d="M52 0zM713 727h124v-406q0 -84 -22 -146.5t-69 -103.5t-121.5 -61t-180.5 -20q-105 0 -179.5 20t-121.5 61t-69 103.5t-22 146.5v406h131v-406q0 -55 13.5 -94t44 -64t81.5 -36.5t126 -11.5t126 11.5t81.5 36.5t44 64t13.5 94v406zM511 772l-63 97h-8l-63 -97h-69l91 134
h91l91 -134h-70z" />
    <glyph glyph-name="udieresis" unicode="&#xfc;" horiz-adv-x="889" 
d="M52 0zM713 727h124v-406q0 -84 -22 -146.5t-69 -103.5t-121.5 -61t-180.5 -20q-105 0 -179.5 20t-121.5 61t-69 103.5t-22 146.5v406h131v-406q0 -55 13.5 -94t44 -64t81.5 -36.5t126 -11.5t126 11.5t81.5 36.5t44 64t13.5 94v406zM403 848q0 -21 -14.5 -33t-35.5 -12
q-23 0 -37.5 12t-14.5 33t14.5 33t37.5 12q21 0 35.5 -12t14.5 -33zM588 848q0 -21 -14.5 -33t-36.5 -12t-36.5 12t-14.5 33t14.5 33t36.5 12t36.5 -12t14.5 -33z" />
    <glyph glyph-name="yacute" unicode="&#xfd;" horiz-adv-x="926" 
d="M13 0zM399 0v276l-386 451h171l283 -335l284 335h162l-387 -451v-276h-127zM369 772v57l256 77v-79z" />
    <glyph glyph-name="thorn" unicode="&#xfe;" horiz-adv-x="843" 
d="M63 0zM282 91v122h262q69 0 107 39.5t38 105.5t-38 103.5t-107 37.5h-355v-499h-126v727h126v-101h355q63 0 113.5 -18.5t85 -53t53 -83.5t18.5 -109q0 -61 -18.5 -111t-53 -85.5t-85 -55t-113.5 -19.5h-262z" />
    <glyph glyph-name="ydieresis" unicode="&#xff;" horiz-adv-x="926" 
d="M13 0zM399 0v276l-386 451h171l283 -335l284 335h162l-387 -451v-276h-127zM425 848q0 -21 -14.5 -33t-35.5 -12q-23 0 -37.5 12t-14.5 33t14.5 33t37.5 12q21 0 35.5 -12t14.5 -33zM610 848q0 -21 -14.5 -33t-36.5 -12t-36.5 12t-14.5 33t14.5 33t36.5 12t36.5 -12
t14.5 -33z" />
    <glyph glyph-name="Amacron" unicode="&#x100;" 
d="M14 0zM821 0l-109 183h-344l60 103h223l-162 272l-330 -558h-145l418 696q11 19 26 30t36 11t35.5 -11t25.5 -30l419 -696h-153zM366 812v58h256v-58h-256z" />
    <glyph glyph-name="amacron" unicode="&#x101;" 
d="M14 0zM821 0l-109 183h-344l60 103h223l-162 272l-330 -558h-145l418 696q11 19 26 30t36 11t35.5 -11t25.5 -30l419 -696h-153zM366 812v58h256v-58h-256z" />
    <glyph glyph-name="Abreve" unicode="&#x102;" 
d="M14 0zM821 0l-109 183h-344l60 103h223l-162 272l-330 -558h-145l418 696q11 19 26 30t36 11t35.5 -11t25.5 -30l419 -696h-153zM467 772q-31 0 -52 14.5t-34 35.5t-19 44t-6 40h68q0 -13 3.5 -28.5t10.5 -29.5t18 -23.5t28 -9.5h24q16 0 27 9.5t17 23.5t8.5 29.5
t2.5 28.5h69q0 -17 -5.5 -40t-18.5 -44t-34 -35.5t-52 -14.5h-55z" />
    <glyph glyph-name="abreve" unicode="&#x103;" 
d="M14 0zM821 0l-109 183h-344l60 103h223l-162 272l-330 -558h-145l418 696q11 19 26 30t36 11t35.5 -11t25.5 -30l419 -696h-153zM467 772q-31 0 -52 14.5t-34 35.5t-19 44t-6 40h68q0 -13 3.5 -28.5t10.5 -29.5t18 -23.5t28 -9.5h24q16 0 27 9.5t17 23.5t8.5 29.5
t2.5 28.5h69q0 -17 -5.5 -40t-18.5 -44t-34 -35.5t-52 -14.5h-55z" />
    <glyph glyph-name="Aogonek" unicode="&#x104;" 
d="M889 -201q-52 0 -78 20t-26 54q0 23 11.5 40t28.5 28l90 59h-94l-109 183h-344l60 103h223l-162 272l-330 -558h-145l418 696q11 19 26 30t36 11t35.5 -11t25.5 -30l419 -696l-91 -61q-11 -8 -17 -15t-6 -17q0 -25 32 -25h82v-83h-85z" />
    <glyph glyph-name="aogonek" unicode="&#x105;" 
d="M14 0zM889 -201q-52 0 -78 20t-26 54q0 23 11.5 40t28.5 28l90 59h-94l-109 183h-344l60 103h223l-162 272l-330 -558h-145l418 696q11 19 26 30t36 11t35.5 -11t25.5 -30l419 -696l-91 -61q-11 -8 -17 -15t-6 -17q0 -25 32 -25h82v-83h-85z" />
    <glyph glyph-name="Cacute" unicode="&#x106;" horiz-adv-x="829" 
d="M42 0zM395 0q-76 0 -140.5 28.5t-112 78t-74 117.5t-26.5 147q0 80 26.5 146t74 112.5t112 72t140.5 25.5h394v-127h-394q-49 0 -90.5 -17.5t-71.5 -48.5t-47 -74t-17 -95q0 -51 17 -95t47 -75.5t71.5 -49.5t90.5 -18h394v-127h-394zM366 772v57l256 77v-79z" />
    <glyph glyph-name="cacute" unicode="&#x107;" horiz-adv-x="829" 
d="M42 0zM395 0q-76 0 -140.5 28.5t-112 78t-74 117.5t-26.5 147q0 80 26.5 146t74 112.5t112 72t140.5 25.5h394v-127h-394q-49 0 -90.5 -17.5t-71.5 -48.5t-47 -74t-17 -95q0 -51 17 -95t47 -75.5t71.5 -49.5t90.5 -18h394v-127h-394zM366 772v57l256 77v-79z" />
    <glyph glyph-name="Cdotaccent" unicode="&#x10a;" horiz-adv-x="829" 
d="M42 0zM395 0q-76 0 -140.5 28.5t-112 78t-74 117.5t-26.5 147q0 80 26.5 146t74 112.5t112 72t140.5 25.5h394v-127h-394q-49 0 -90.5 -17.5t-71.5 -48.5t-47 -74t-17 -95q0 -51 17 -95t47 -75.5t71.5 -49.5t90.5 -18h394v-127h-394zM525 848q0 -21 -14.5 -33t-36.5 -12
t-36.5 12t-14.5 33t14.5 33t36.5 12t36.5 -12t14.5 -33z" />
    <glyph glyph-name="cdotaccent" unicode="&#x10b;" horiz-adv-x="829" 
d="M42 0zM395 0q-76 0 -140.5 28.5t-112 78t-74 117.5t-26.5 147q0 80 26.5 146t74 112.5t112 72t140.5 25.5h394v-127h-394q-49 0 -90.5 -17.5t-71.5 -48.5t-47 -74t-17 -95q0 -51 17 -95t47 -75.5t71.5 -49.5t90.5 -18h394v-127h-394zM525 848q0 -21 -14.5 -33t-36.5 -12
t-36.5 12t-14.5 33t14.5 33t36.5 12t36.5 -12t14.5 -33z" />
    <glyph glyph-name="Ccaron" unicode="&#x10c;" horiz-adv-x="829" 
d="M42 0zM395 0q-76 0 -140.5 28.5t-112 78t-74 117.5t-26.5 147q0 80 26.5 146t74 112.5t112 72t140.5 25.5h394v-127h-394q-49 0 -90.5 -17.5t-71.5 -48.5t-47 -74t-17 -95q0 -51 17 -95t47 -75.5t71.5 -49.5t90.5 -18h394v-127h-394zM418 772l-90 134h69l63 -99h8l63 99
h70l-92 -134h-91z" />
    <glyph glyph-name="ccaron" unicode="&#x10d;" horiz-adv-x="829" 
d="M42 0zM395 0q-76 0 -140.5 28.5t-112 78t-74 117.5t-26.5 147q0 80 26.5 146t74 112.5t112 72t140.5 25.5h394v-127h-394q-49 0 -90.5 -17.5t-71.5 -48.5t-47 -74t-17 -95q0 -51 17 -95t47 -75.5t71.5 -49.5t90.5 -18h394v-127h-394zM418 772l-90 134h69l63 -99h8l63 99
h70l-92 -134h-91z" />
    <glyph glyph-name="Dcaron" unicode="&#x10e;" horiz-adv-x="879" 
d="M63 0zM63 0v727h421q77 0 142 -26t112 -73t73.5 -112.5t26.5 -144.5t-26.5 -147t-73.5 -117.5t-112 -78t-142 -28.5h-421zM484 127q49 0 90.5 18t72 49.5t47.5 75.5t17 95t-17 94.5t-47.5 74.5t-72 48.5t-90.5 17.5h-295v-473h295zM353 772l-90 134h69l63 -99h8l63 99h70
l-92 -134h-91z" />
    <glyph glyph-name="dcaron" unicode="&#x10f;" horiz-adv-x="879" 
d="M63 0zM63 0v727h421q77 0 142 -26t112 -73t73.5 -112.5t26.5 -144.5t-26.5 -147t-73.5 -117.5t-112 -78t-142 -28.5h-421zM484 127q49 0 90.5 18t72 49.5t47.5 75.5t17 95t-17 94.5t-47.5 74.5t-72 48.5t-90.5 17.5h-295v-473h295zM353 772l-90 134h69l63 -99h8l63 99h70
l-92 -134h-91z" />
    <glyph glyph-name="Dcroat" unicode="&#x110;" horiz-adv-x="877" 
d="M10 0zM61 0v316h-51v107h51v304h421q77 0 142 -26t112.5 -73t74 -112.5t26.5 -144.5t-26.5 -147t-74 -117.5t-112.5 -78t-142 -28.5h-421zM187 316v-189h295q49 0 90.5 18t72 49.5t47.5 75.5t17 95t-17 94.5t-47.5 74.5t-72 48.5t-90.5 17.5h-295v-177h286v-107h-286z
" />
    <glyph glyph-name="dcroat" unicode="&#x111;" horiz-adv-x="877" 
d="M10 0zM61 0v316h-51v107h51v304h421q77 0 142 -26t112.5 -73t74 -112.5t26.5 -144.5t-26.5 -147t-74 -117.5t-112.5 -78t-142 -28.5h-421zM187 316v-189h295q49 0 90.5 18t72 49.5t47.5 75.5t17 95t-17 94.5t-47.5 74.5t-72 48.5t-90.5 17.5h-295v-177h286v-107h-286z
" />
    <glyph glyph-name="Emacron" unicode="&#x112;" horiz-adv-x="759" 
d="M63 0zM63 0v727h649v-127h-523v-473h524v-127h-650zM282 316v107h403v-107h-403zM251 812v58h256v-58h-256z" />
    <glyph glyph-name="emacron" unicode="&#x113;" horiz-adv-x="759" 
d="M63 0zM63 0v727h649v-127h-523v-473h524v-127h-650zM282 316v107h403v-107h-403zM251 812v58h256v-58h-256z" />
    <glyph glyph-name="Ebreve" unicode="&#x114;" horiz-adv-x="759" 
d="M63 0zM63 0v727h649v-127h-523v-473h524v-127h-650zM282 316v107h403v-107h-403zM352 772q-31 0 -52 14.5t-34 35.5t-19 44t-6 40h68q0 -13 3.5 -28.5t10.5 -29.5t18 -23.5t28 -9.5h24q16 0 27 9.5t17 23.5t8.5 29.5t2.5 28.5h69q0 -17 -5.5 -40t-18.5 -44t-34 -35.5
t-52 -14.5h-55z" />
    <glyph glyph-name="ebreve" unicode="&#x115;" horiz-adv-x="759" 
d="M63 0zM63 0v727h649v-127h-523v-473h524v-127h-650zM282 316v107h403v-107h-403zM352 772q-31 0 -52 14.5t-34 35.5t-19 44t-6 40h68q0 -13 3.5 -28.5t10.5 -29.5t18 -23.5t28 -9.5h24q16 0 27 9.5t17 23.5t8.5 29.5t2.5 28.5h69q0 -17 -5.5 -40t-18.5 -44t-34 -35.5
t-52 -14.5h-55z" />
    <glyph glyph-name="Edotaccent" unicode="&#x116;" horiz-adv-x="759" 
d="M63 0zM63 0v727h649v-127h-523v-473h524v-127h-650zM282 316v107h403v-107h-403zM430 848q0 -21 -14.5 -33t-36.5 -12t-36.5 12t-14.5 33t14.5 33t36.5 12t36.5 -12t14.5 -33z" />
    <glyph glyph-name="edotaccent" unicode="&#x117;" horiz-adv-x="759" 
d="M63 0zM63 0v727h649v-127h-523v-473h524v-127h-650zM282 316v107h403v-107h-403zM430 848q0 -21 -14.5 -33t-36.5 -12t-36.5 12t-14.5 33t14.5 33t36.5 12t36.5 -12t14.5 -33z" />
    <glyph glyph-name="Eogonek" unicode="&#x118;" horiz-adv-x="759" 
d="M628 -201q-52 0 -78 20t-26 54q0 23 11.5 40t28.5 28l90 59h-591v727h649v-127h-523v-473h524v-127l-91 -61q-11 -8 -17 -15t-6 -17q0 -25 32 -25h82v-83h-85zM282 316v107h403v-107h-403z" />
    <glyph glyph-name="eogonek" unicode="&#x119;" horiz-adv-x="759" 
d="M63 0zM628 -201q-52 0 -78 20t-26 54q0 23 11.5 40t28.5 28l90 59h-591v727h649v-127h-523v-473h524v-127l-91 -61q-11 -8 -17 -15t-6 -17q0 -25 32 -25h82v-83h-85zM282 316v107h403v-107h-403z" />
    <glyph glyph-name="Ecaron" unicode="&#x11a;" horiz-adv-x="759" 
d="M63 0zM63 0v727h649v-127h-523v-473h524v-127h-650zM282 316v107h403v-107h-403zM333 772l-90 134h69l63 -99h8l63 99h70l-92 -134h-91z" />
    <glyph glyph-name="ecaron" unicode="&#x11b;" horiz-adv-x="759" 
d="M63 0zM63 0v727h649v-127h-523v-473h524v-127h-650zM282 316v107h403v-107h-403zM333 772l-90 134h69l63 -99h8l63 99h70l-92 -134h-91z" />
    <glyph glyph-name="Gbreve" unicode="&#x11e;" horiz-adv-x="888" 
d="M42 0zM395 0q-76 0 -140.5 28.5t-112 78t-74 117.5t-26.5 147q0 80 26.5 146t74 112.5t112 72t140.5 25.5h394v-127h-394q-49 0 -90.5 -17.5t-71.5 -48.5t-47 -74t-17 -95q0 -51 17 -95t47 -75.5t71.5 -49.5t90.5 -18h311v189h-328v107h456v-423h-439zM447 772
q-31 0 -52 14.5t-34 35.5t-19 44t-6 40h68q0 -13 3.5 -28.5t10.5 -29.5t18 -23.5t28 -9.5h24q16 0 27 9.5t17 23.5t8.5 29.5t2.5 28.5h69q0 -17 -5.5 -40t-18.5 -44t-34 -35.5t-52 -14.5h-55z" />
    <glyph glyph-name="gbreve" unicode="&#x11f;" horiz-adv-x="888" 
d="M42 0zM395 0q-76 0 -140.5 28.5t-112 78t-74 117.5t-26.5 147q0 80 26.5 146t74 112.5t112 72t140.5 25.5h394v-127h-394q-49 0 -90.5 -17.5t-71.5 -48.5t-47 -74t-17 -95q0 -51 17 -95t47 -75.5t71.5 -49.5t90.5 -18h311v189h-328v107h456v-423h-439zM447 772
q-31 0 -52 14.5t-34 35.5t-19 44t-6 40h68q0 -13 3.5 -28.5t10.5 -29.5t18 -23.5t28 -9.5h24q16 0 27 9.5t17 23.5t8.5 29.5t2.5 28.5h69q0 -17 -5.5 -40t-18.5 -44t-34 -35.5t-52 -14.5h-55z" />
    <glyph glyph-name="Gdotaccent" unicode="&#x120;" horiz-adv-x="888" 
d="M42 0zM395 0q-76 0 -140.5 28.5t-112 78t-74 117.5t-26.5 147q0 80 26.5 146t74 112.5t112 72t140.5 25.5h394v-127h-394q-49 0 -90.5 -17.5t-71.5 -48.5t-47 -74t-17 -95q0 -51 17 -95t47 -75.5t71.5 -49.5t90.5 -18h311v189h-328v107h456v-423h-439zM535 848
q0 -21 -14.5 -33t-36.5 -12t-36.5 12t-14.5 33t14.5 33t36.5 12t36.5 -12t14.5 -33z" />
    <glyph glyph-name="gdotaccent" unicode="&#x121;" horiz-adv-x="888" 
d="M42 0zM395 0q-76 0 -140.5 28.5t-112 78t-74 117.5t-26.5 147q0 80 26.5 146t74 112.5t112 72t140.5 25.5h394v-127h-394q-49 0 -90.5 -17.5t-71.5 -48.5t-47 -74t-17 -95q0 -51 17 -95t47 -75.5t71.5 -49.5t90.5 -18h311v189h-328v107h456v-423h-439zM535 848
q0 -21 -14.5 -33t-36.5 -12t-36.5 12t-14.5 33t14.5 33t36.5 12t36.5 -12t14.5 -33z" />
    <glyph glyph-name="Gcommaaccent" unicode="&#x122;" horiz-adv-x="888" 
d="M42 0zM395 0q-76 0 -140.5 28.5t-112 78t-74 117.5t-26.5 147q0 80 26.5 146t74 112.5t112 72t140.5 25.5h394v-127h-394q-49 0 -90.5 -17.5t-71.5 -48.5t-47 -74t-17 -95q0 -51 17 -95t47 -75.5t71.5 -49.5t90.5 -18h311v189h-328v107h456v-423h-439zM387 -47h133
l-67 -154z" />
    <glyph glyph-name="gcommaaccent" unicode="&#x123;" horiz-adv-x="888" 
d="M42 0zM395 0q-76 0 -140.5 28.5t-112 78t-74 117.5t-26.5 147q0 80 26.5 146t74 112.5t112 72t140.5 25.5h394v-127h-394q-49 0 -90.5 -17.5t-71.5 -48.5t-47 -74t-17 -95q0 -51 17 -95t47 -75.5t71.5 -49.5t90.5 -18h311v189h-328v107h456v-423h-439zM387 -47h133
l-67 -154z" />
    <glyph glyph-name="Hbar" unicode="&#x126;" horiz-adv-x="838" 
d="M648 -3v316h-366v113h366v126h-366v58h366v117h127v-730h-127zM63 -3v730h127v-730h-127z" />
    <glyph glyph-name="hbar" unicode="&#x127;" horiz-adv-x="838" 
d="M63 0zM648 -3v316h-366v113h366v126h-366v58h366v117h127v-730h-127zM63 -3v730h127v-730h-127z" />
    <glyph glyph-name="uni012A" unicode="&#x12a;" horiz-adv-x="267" 
d="M7 0zM70 0v727h127v-727h-127zM7 812v58h256v-58h-256z" />
    <glyph glyph-name="imacron" unicode="&#x12b;" horiz-adv-x="267" 
d="M7 0zM70 0v727h127v-727h-127zM7 812v58h256v-58h-256z" />
    <glyph glyph-name="Ibreve" unicode="&#x12c;" horiz-adv-x="267" 
d="M0 0zM70 0v727h127v-727h-127zM108 772q-31 0 -52 14.5t-34 35.5t-19 44t-6 40h68q0 -13 3.5 -28.5t10.5 -29.5t18 -23.5t28 -9.5h24q16 0 27 9.5t17 23.5t8.5 29.5t2.5 28.5h69q0 -17 -5.5 -40t-18.5 -44t-34 -35.5t-52 -14.5h-55z" />
    <glyph glyph-name="ibreve" unicode="&#x12d;" horiz-adv-x="267" 
d="M0 0zM70 0v727h127v-727h-127zM108 772q-31 0 -52 14.5t-34 35.5t-19 44t-6 40h68q0 -13 3.5 -28.5t10.5 -29.5t18 -23.5t28 -9.5h24q16 0 27 9.5t17 23.5t8.5 29.5t2.5 28.5h69q0 -17 -5.5 -40t-18.5 -44t-34 -35.5t-52 -14.5h-55z" />
    <glyph glyph-name="Iogonek" unicode="&#x12e;" horiz-adv-x="267" 
d="M112 -201q-52 0 -78 20t-26 54q0 23 11.5 40t28.5 28l90 59h-68v727h127v-727l-91 -61q-11 -8 -17 -15t-6 -17q0 -25 32 -25h82v-83h-85z" />
    <glyph glyph-name="iogonek" unicode="&#x12f;" horiz-adv-x="267" 
d="M8 0zM112 -201q-52 0 -78 20t-26 54q0 23 11.5 40t28.5 28l90 59h-68v727h127v-727l-91 -61q-11 -8 -17 -15t-6 -17q0 -25 32 -25h82v-83h-85z" />
    <glyph glyph-name="Idotaccent" unicode="&#x130;" horiz-adv-x="267" 
d="M70 0zM70 0v727h127v-727h-127zM184 848q0 -21 -14.5 -33t-36.5 -12t-36.5 12t-14.5 33t14.5 33t36.5 12t36.5 -12t14.5 -33z" />
    <glyph glyph-name="dotlessi" unicode="&#x131;" horiz-adv-x="267" 
d="M70 0zM70 0v727h127v-727h-127z" />
    <glyph glyph-name="IJ" unicode="&#x132;" horiz-adv-x="975" 
d="M70 0zM70 0v727h127v-727h-127zM291 0v127h266q127 0 183 49t56 155v396h127v-396q0 -169 -88 -250t-278 -81h-266z" />
    <glyph glyph-name="ij" unicode="&#x133;" horiz-adv-x="975" 
d="M70 0zM70 0v727h127v-727h-127zM291 0v127h266q127 0 183 49t56 155v396h127v-396q0 -169 -88 -250t-278 -81h-266z" />
    <glyph glyph-name="Kcommaaccent" unicode="&#x136;" horiz-adv-x="875" 
d="M63 0zM662 0l-407 320q-17 13 -21.5 25.5t-4.5 27.5q0 17 6 30t26 28l385 296h195l-476 -355l491 -372h-194zM63 0v727h127v-727h-127zM371 -47h133l-67 -154z" />
    <glyph glyph-name="kcommaaccent" unicode="&#x137;" horiz-adv-x="875" 
d="M63 0zM662 0l-407 320q-17 13 -21.5 25.5t-4.5 27.5q0 17 6 30t26 28l385 296h195l-476 -355l491 -372h-194zM63 0v727h127v-727h-127zM371 -47h133l-67 -154z" />
    <glyph glyph-name="Lacute" unicode="&#x139;" horiz-adv-x="707" 
d="M26 0zM63 0v727h127v-600h489v-127h-616zM26 772v57l256 77v-79z" />
    <glyph glyph-name="lacute" unicode="&#x13a;" horiz-adv-x="707" 
d="M26 0zM63 0v727h127v-600h489v-127h-616zM26 772v57l256 77v-79z" />
    <glyph glyph-name="Lcommaaccent" unicode="&#x13b;" horiz-adv-x="707" 
d="M63 0zM63 0v727h127v-600h489v-127h-616zM305 -47h133l-67 -154z" />
    <glyph glyph-name="lcommaaccent" unicode="&#x13c;" horiz-adv-x="707" 
d="M63 0zM63 0v727h127v-600h489v-127h-616zM305 -47h133l-67 -154z" />
    <glyph glyph-name="Lcaron" unicode="&#x13d;" horiz-adv-x="707" 
d="M63 0zM63 0v727h127v-600h489v-127h-616zM312 467v260h128l-50 -260h-78z" />
    <glyph glyph-name="lcaron" unicode="&#x13e;" horiz-adv-x="707" 
d="M63 0zM63 0v727h127v-600h489v-127h-616zM312 467v260h128l-50 -260h-78z" />
    <glyph glyph-name="Ldot" unicode="&#x13f;" horiz-adv-x="707" 
d="M63 0zM63 0v727h127v-600h489v-127h-616zM384 371q0 -21 -14.5 -33t-36.5 -12t-36.5 12t-14.5 33t14.5 33t36.5 12t36.5 -12t14.5 -33z" />
    <glyph glyph-name="ldot" unicode="&#x140;" horiz-adv-x="707" 
d="M63 0zM63 0v727h127v-600h489v-127h-616zM384 371q0 -21 -14.5 -33t-36.5 -12t-36.5 12t-14.5 33t14.5 33t36.5 12t36.5 -12t14.5 -33z" />
    <glyph glyph-name="Lslash" unicode="&#x141;" horiz-adv-x="707" 
d="M63 0v727h127v-324l274 119v-110l-274 -120v-165h489v-127h-616z" />
    <glyph glyph-name="lslash" unicode="&#x142;" horiz-adv-x="707" 
d="M63 0zM63 0v727h127v-324l274 119v-110l-274 -120v-165h489v-127h-616z" />
    <glyph glyph-name="Nacute" unicode="&#x143;" horiz-adv-x="873" 
d="M60 0zM181 532v-532h-121v660q0 35 17.5 55.5t47.5 20.5q14 0 27 -6t27 -20l513 -509v532h121v-666q0 -36 -17.5 -56t-45.5 -20q-31 0 -58 27zM338 772v57l256 77v-79z" />
    <glyph glyph-name="nacute" unicode="&#x144;" horiz-adv-x="873" 
d="M60 0zM181 532v-532h-121v660q0 35 17.5 55.5t47.5 20.5q14 0 27 -6t27 -20l513 -509v532h121v-666q0 -36 -17.5 -56t-45.5 -20q-31 0 -58 27zM338 772v57l256 77v-79z" />
    <glyph glyph-name="Ncommaaccent" unicode="&#x145;" horiz-adv-x="873" 
d="M60 0zM181 532v-532h-121v660q0 35 17.5 55.5t47.5 20.5q14 0 27 -6t27 -20l513 -509v532h121v-666q0 -36 -17.5 -56t-45.5 -20q-31 0 -58 27zM370 -47h133l-67 -154z" />
    <glyph glyph-name="ncommaaccent" unicode="&#x146;" horiz-adv-x="873" 
d="M60 0zM181 532v-532h-121v660q0 35 17.5 55.5t47.5 20.5q14 0 27 -6t27 -20l513 -509v532h121v-666q0 -36 -17.5 -56t-45.5 -20q-31 0 -58 27zM370 -47h133l-67 -154z" />
    <glyph glyph-name="Ncaron" unicode="&#x147;" horiz-adv-x="873" 
d="M60 0zM181 532v-532h-121v660q0 35 17.5 55.5t47.5 20.5q14 0 27 -6t27 -20l513 -509v532h121v-666q0 -36 -17.5 -56t-45.5 -20q-31 0 -58 27zM390 772l-90 134h69l63 -99h8l63 99h70l-92 -134h-91z" />
    <glyph glyph-name="ncaron" unicode="&#x148;" horiz-adv-x="873" 
d="M60 0zM181 532v-532h-121v660q0 35 17.5 55.5t47.5 20.5q14 0 27 -6t27 -20l513 -509v532h121v-666q0 -36 -17.5 -56t-45.5 -20q-31 0 -58 27zM390 772l-90 134h69l63 -99h8l63 99h70l-92 -134h-91z" />
    <glyph glyph-name="Eng" unicode="&#x14a;" horiz-adv-x="873" 
d="M351 -201v127h96q94 0 150 26t79 82l-495 498v-532h-121v660q0 35 17.5 55.5t47.5 20.5q14 0 27 -6t27 -20l513 -509v532h121v-666q0 -67 -27.5 -117.5t-76.5 -84t-116 -50t-146 -16.5h-96z" />
    <glyph glyph-name="eng" unicode="&#x14b;" horiz-adv-x="873" 
d="M60 0zM351 -201v127h96q94 0 150 26t79 82l-495 498v-532h-121v660q0 35 17.5 55.5t47.5 20.5q14 0 27 -6t27 -20l513 -509v532h121v-666q0 -67 -27.5 -117.5t-76.5 -84t-116 -50t-146 -16.5h-96z" />
    <glyph glyph-name="Omacron" unicode="&#x14c;" horiz-adv-x="968" 
d="M42 0zM395 0q-76 0 -140.5 28.5t-112 78t-74 117.5t-26.5 147q0 80 26.5 146t74 112.5t112 72t140.5 25.5h177q79 0 144.5 -26t112.5 -73t73 -112.5t26 -144.5t-26.5 -147t-74 -117.5t-112.5 -78t-143 -28.5h-177zM572 127q50 0 92 18t72.5 49.5t47.5 75.5t17 95
t-17 94.5t-47.5 74.5t-72.5 48.5t-92 17.5h-177q-49 0 -90.5 -17.5t-71.5 -48.5t-47 -74t-17 -95q0 -51 17 -95t47 -75.5t71.5 -49.5t90.5 -18h177zM356 812v58h256v-58h-256z" />
    <glyph glyph-name="omacron" unicode="&#x14d;" horiz-adv-x="968" 
d="M42 0zM395 0q-76 0 -140.5 28.5t-112 78t-74 117.5t-26.5 147q0 80 26.5 146t74 112.5t112 72t140.5 25.5h177q79 0 144.5 -26t112.5 -73t73 -112.5t26 -144.5t-26.5 -147t-74 -117.5t-112.5 -78t-143 -28.5h-177zM572 127q50 0 92 18t72.5 49.5t47.5 75.5t17 95
t-17 94.5t-47.5 74.5t-72.5 48.5t-92 17.5h-177q-49 0 -90.5 -17.5t-71.5 -48.5t-47 -74t-17 -95q0 -51 17 -95t47 -75.5t71.5 -49.5t90.5 -18h177zM356 812v58h256v-58h-256z" />
    <glyph glyph-name="Obreve" unicode="&#x14e;" horiz-adv-x="968" 
d="M42 0zM395 0q-76 0 -140.5 28.5t-112 78t-74 117.5t-26.5 147q0 80 26.5 146t74 112.5t112 72t140.5 25.5h177q79 0 144.5 -26t112.5 -73t73 -112.5t26 -144.5t-26.5 -147t-74 -117.5t-112.5 -78t-143 -28.5h-177zM572 127q50 0 92 18t72.5 49.5t47.5 75.5t17 95
t-17 94.5t-47.5 74.5t-72.5 48.5t-92 17.5h-177q-49 0 -90.5 -17.5t-71.5 -48.5t-47 -74t-17 -95q0 -51 17 -95t47 -75.5t71.5 -49.5t90.5 -18h177zM457 772q-31 0 -52 14.5t-34 35.5t-19 44t-6 40h68q0 -13 3.5 -28.5t10.5 -29.5t18 -23.5t28 -9.5h24q16 0 27 9.5t17 23.5
t8.5 29.5t2.5 28.5h69q0 -17 -5.5 -40t-18.5 -44t-34 -35.5t-52 -14.5h-55z" />
    <glyph glyph-name="obreve" unicode="&#x14f;" horiz-adv-x="968" 
d="M42 0zM395 0q-76 0 -140.5 28.5t-112 78t-74 117.5t-26.5 147q0 80 26.5 146t74 112.5t112 72t140.5 25.5h177q79 0 144.5 -26t112.5 -73t73 -112.5t26 -144.5t-26.5 -147t-74 -117.5t-112.5 -78t-143 -28.5h-177zM572 127q50 0 92 18t72.5 49.5t47.5 75.5t17 95
t-17 94.5t-47.5 74.5t-72.5 48.5t-92 17.5h-177q-49 0 -90.5 -17.5t-71.5 -48.5t-47 -74t-17 -95q0 -51 17 -95t47 -75.5t71.5 -49.5t90.5 -18h177zM457 772q-31 0 -52 14.5t-34 35.5t-19 44t-6 40h68q0 -13 3.5 -28.5t10.5 -29.5t18 -23.5t28 -9.5h24q16 0 27 9.5t17 23.5
t8.5 29.5t2.5 28.5h69q0 -17 -5.5 -40t-18.5 -44t-34 -35.5t-52 -14.5h-55z" />
    <glyph glyph-name="Ohungarumlaut" unicode="&#x150;" horiz-adv-x="968" 
d="M42 0zM395 0q-76 0 -140.5 28.5t-112 78t-74 117.5t-26.5 147q0 80 26.5 146t74 112.5t112 72t140.5 25.5h177q79 0 144.5 -26t112.5 -73t73 -112.5t26 -144.5t-26.5 -147t-74 -117.5t-112.5 -78t-143 -28.5h-177zM572 127q50 0 92 18t72.5 49.5t47.5 75.5t17 95
t-17 94.5t-47.5 74.5t-72.5 48.5t-92 17.5h-177q-49 0 -90.5 -17.5t-71.5 -48.5t-47 -74t-17 -95q0 -51 17 -95t47 -75.5t71.5 -49.5t90.5 -18h177zM532 781l47 125h87l-81 -125h-53zM373 781l47 125h87l-82 -125h-52z" />
    <glyph glyph-name="ohungarumlaut" unicode="&#x151;" horiz-adv-x="968" 
d="M42 0zM395 0q-76 0 -140.5 28.5t-112 78t-74 117.5t-26.5 147q0 80 26.5 146t74 112.5t112 72t140.5 25.5h177q79 0 144.5 -26t112.5 -73t73 -112.5t26 -144.5t-26.5 -147t-74 -117.5t-112.5 -78t-143 -28.5h-177zM572 127q50 0 92 18t72.5 49.5t47.5 75.5t17 95
t-17 94.5t-47.5 74.5t-72.5 48.5t-92 17.5h-177q-49 0 -90.5 -17.5t-71.5 -48.5t-47 -74t-17 -95q0 -51 17 -95t47 -75.5t71.5 -49.5t90.5 -18h177zM532 781l47 125h87l-81 -125h-53zM373 781l47 125h87l-82 -125h-52z" />
    <glyph glyph-name="OE" unicode="&#x152;" horiz-adv-x="1304" 
d="M395 0q-76 0 -140.5 28.5t-112 78t-74 117.5t-26.5 147q0 80 26.5 146t74 112.5t112 72t140.5 25.5h862v-127h-494v-473h495v-127h-863zM636 600h-241q-49 0 -90.5 -17.5t-71.5 -48.5t-47 -74t-17 -95q0 -51 17 -95t47 -75.5t71.5 -49.5t90.5 -18h241v473zM855 316v107
h374v-107h-374z" />
    <glyph glyph-name="oe" unicode="&#x153;" horiz-adv-x="1304" 
d="M42 0zM395 0q-76 0 -140.5 28.5t-112 78t-74 117.5t-26.5 147q0 80 26.5 146t74 112.5t112 72t140.5 25.5h862v-127h-494v-473h495v-127h-863zM636 600h-241q-49 0 -90.5 -17.5t-71.5 -48.5t-47 -74t-17 -95q0 -51 17 -95t47 -75.5t71.5 -49.5t90.5 -18h241v473zM855 316
v107h374v-107h-374z" />
    <glyph glyph-name="Racute" unicode="&#x154;" horiz-adv-x="921" 
d="M63 0zM738 0l-184 202h-272v112h303q69 0 104 37.5t35 108.5t-36.5 105.5t-102.5 34.5h-396v-600h-126v727h522q62 0 111 -18.5t83 -53t52 -83.5t18 -110q0 -91 -39.5 -152.5t-110.5 -88.5l219 -221h-180zM322 772v57l256 77v-79z" />
    <glyph glyph-name="racute" unicode="&#x155;" horiz-adv-x="921" 
d="M63 0zM738 0l-184 202h-272v112h303q69 0 104 37.5t35 108.5t-36.5 105.5t-102.5 34.5h-396v-600h-126v727h522q62 0 111 -18.5t83 -53t52 -83.5t18 -110q0 -91 -39.5 -152.5t-110.5 -88.5l219 -221h-180zM322 772v57l256 77v-79z" />
    <glyph glyph-name="Rcommaaccent" unicode="&#x156;" horiz-adv-x="921" 
d="M63 0zM738 0l-184 202h-272v112h303q69 0 104 37.5t35 108.5t-36.5 105.5t-102.5 34.5h-396v-600h-126v727h522q62 0 111 -18.5t83 -53t52 -83.5t18 -110q0 -91 -39.5 -152.5t-110.5 -88.5l219 -221h-180zM394 -47h133l-67 -154z" />
    <glyph glyph-name="rcommaaccent" unicode="&#x157;" horiz-adv-x="921" 
d="M63 0zM738 0l-184 202h-272v112h303q69 0 104 37.5t35 108.5t-36.5 105.5t-102.5 34.5h-396v-600h-126v727h522q62 0 111 -18.5t83 -53t52 -83.5t18 -110q0 -91 -39.5 -152.5t-110.5 -88.5l219 -221h-180zM394 -47h133l-67 -154z" />
    <glyph glyph-name="Rcaron" unicode="&#x158;" horiz-adv-x="921" 
d="M63 0zM738 0l-184 202h-272v112h303q69 0 104 37.5t35 108.5t-36.5 105.5t-102.5 34.5h-396v-600h-126v727h522q62 0 111 -18.5t83 -53t52 -83.5t18 -110q0 -91 -39.5 -152.5t-110.5 -88.5l219 -221h-180zM374 772l-90 134h69l63 -99h8l63 99h70l-92 -134h-91z" />
    <glyph glyph-name="rcaron" unicode="&#x159;" horiz-adv-x="921" 
d="M63 0zM738 0l-184 202h-272v112h303q69 0 104 37.5t35 108.5t-36.5 105.5t-102.5 34.5h-396v-600h-126v727h522q62 0 111 -18.5t83 -53t52 -83.5t18 -110q0 -91 -39.5 -152.5t-110.5 -88.5l219 -221h-180zM374 772l-90 134h69l63 -99h8l63 99h70l-92 -134h-91z" />
    <glyph glyph-name="Sacute" unicode="&#x15a;" horiz-adv-x="880" 
d="M52 0zM63 0v127h545q51 0 78.5 26t27.5 69q0 47 -27.5 70.5t-78.5 23.5h-334q-51 0 -92.5 15.5t-70 43t-44 65.5t-15.5 83q0 44 14.5 81.5t43 64.5t70.5 42.5t96 15.5h522v-127h-522q-44 0 -68 -23.5t-24 -65.5t24.5 -65t66.5 -23h333q111 0 168.5 -52t57.5 -158
q0 -46 -14 -85t-42 -67.5t-70.5 -44.5t-99.5 -16h-545zM342 772v57l256 77v-79z" />
    <glyph glyph-name="sacute" unicode="&#x15b;" horiz-adv-x="880" 
d="M52 0zM63 0v127h545q51 0 78.5 26t27.5 69q0 47 -27.5 70.5t-78.5 23.5h-334q-51 0 -92.5 15.5t-70 43t-44 65.5t-15.5 83q0 44 14.5 81.5t43 64.5t70.5 42.5t96 15.5h522v-127h-522q-44 0 -68 -23.5t-24 -65.5t24.5 -65t66.5 -23h333q111 0 168.5 -52t57.5 -158
q0 -46 -14 -85t-42 -67.5t-70.5 -44.5t-99.5 -16h-545zM342 772v57l256 77v-79z" />
    <glyph glyph-name="Scedilla" unicode="&#x15e;" horiz-adv-x="880" 
d="M52 0zM63 0v127h545q51 0 78.5 26t27.5 69q0 47 -27.5 70.5t-78.5 23.5h-334q-51 0 -92.5 15.5t-70 43t-44 65.5t-15.5 83q0 44 14.5 81.5t43 64.5t70.5 42.5t96 15.5h522v-127h-522q-44 0 -68 -23.5t-24 -65.5t24.5 -65t66.5 -23h333q111 0 168.5 -52t57.5 -158
q0 -46 -14 -85t-42 -67.5t-70.5 -44.5t-99.5 -16h-545zM373 -47h133l-67 -154z" />
    <glyph glyph-name="scedilla" unicode="&#x15f;" horiz-adv-x="880" 
d="M52 0zM63 0v127h545q51 0 78.5 26t27.5 69q0 47 -27.5 70.5t-78.5 23.5h-334q-51 0 -92.5 15.5t-70 43t-44 65.5t-15.5 83q0 44 14.5 81.5t43 64.5t70.5 42.5t96 15.5h522v-127h-522q-44 0 -68 -23.5t-24 -65.5t24.5 -65t66.5 -23h333q111 0 168.5 -52t57.5 -158
q0 -46 -14 -85t-42 -67.5t-70.5 -44.5t-99.5 -16h-545zM373 -47h133l-67 -154z" />
    <glyph glyph-name="Scaron" unicode="&#x160;" horiz-adv-x="880" 
d="M52 0zM63 0v127h545q51 0 78.5 26t27.5 69q0 47 -27.5 70.5t-78.5 23.5h-334q-51 0 -92.5 15.5t-70 43t-44 65.5t-15.5 83q0 44 14.5 81.5t43 64.5t70.5 42.5t96 15.5h522v-127h-522q-44 0 -68 -23.5t-24 -65.5t24.5 -65t66.5 -23h333q111 0 168.5 -52t57.5 -158
q0 -46 -14 -85t-42 -67.5t-70.5 -44.5t-99.5 -16h-545zM403 772l-90 134h69l63 -99h8l63 99h70l-92 -134h-91z" />
    <glyph glyph-name="scaron" unicode="&#x161;" horiz-adv-x="880" 
d="M52 0zM63 0v127h545q51 0 78.5 26t27.5 69q0 47 -27.5 70.5t-78.5 23.5h-334q-51 0 -92.5 15.5t-70 43t-44 65.5t-15.5 83q0 44 14.5 81.5t43 64.5t70.5 42.5t96 15.5h522v-127h-522q-44 0 -68 -23.5t-24 -65.5t24.5 -65t66.5 -23h333q111 0 168.5 -52t57.5 -158
q0 -46 -14 -85t-42 -67.5t-70.5 -44.5t-99.5 -16h-545zM403 772l-90 134h69l63 -99h8l63 99h70l-92 -134h-91z" />
    <glyph glyph-name="Tcommaaccent" unicode="&#x162;" horiz-adv-x="720" 
d="M20 0zM296 0v600h-276v127h679v-127h-276v-600h-127zM293 -47h133l-67 -154z" />
    <glyph glyph-name="tcommaaccent" unicode="&#x163;" horiz-adv-x="720" 
d="M20 0zM296 0v600h-276v127h679v-127h-276v-600h-127zM293 -47h133l-67 -154z" />
    <glyph glyph-name="Tcaron" unicode="&#x164;" horiz-adv-x="720" 
d="M20 0zM296 0v600h-276v127h679v-127h-276v-600h-127zM313 772l-90 134h69l63 -99h8l63 99h70l-92 -134h-91z" />
    <glyph glyph-name="tcaron" unicode="&#x165;" horiz-adv-x="720" 
d="M20 0zM296 0v600h-276v127h679v-127h-276v-600h-127zM313 772l-90 134h69l63 -99h8l63 99h70l-92 -134h-91z" />
    <glyph glyph-name="Tbar" unicode="&#x166;" horiz-adv-x="720" 
d="M296 0v256h-116v85h116v259h-276v127h679v-127h-276v-259h117v-85h-117v-256h-127z" />
    <glyph glyph-name="tbar" unicode="&#x167;" horiz-adv-x="720" 
d="M20 0zM296 0v256h-116v85h116v259h-276v127h679v-127h-276v-259h117v-85h-117v-256h-127z" />
    <glyph glyph-name="Utilde" unicode="&#x168;" horiz-adv-x="889" 
d="M52 0zM713 727h124v-406q0 -84 -22 -146.5t-69 -103.5t-121.5 -61t-180.5 -20q-105 0 -179.5 20t-121.5 61t-69 103.5t-22 146.5v406h131v-406q0 -55 13.5 -94t44 -64t81.5 -36.5t126 -11.5t126 11.5t81.5 36.5t44 64t13.5 94v406zM572 823q-23 -29 -66 -29q-17 0 -32 6
t-30 13.5t-30.5 13.5t-32.5 6q-20 0 -38 -10.5t-27 -24.5v59q11 14 28 22t37 8q17 0 32.5 -6.5t30.5 -14t30 -13.5t32 -6q20 0 38 11t28 25v-60z" />
    <glyph glyph-name="utilde" unicode="&#x169;" horiz-adv-x="889" 
d="M52 0zM713 727h124v-406q0 -84 -22 -146.5t-69 -103.5t-121.5 -61t-180.5 -20q-105 0 -179.5 20t-121.5 61t-69 103.5t-22 146.5v406h131v-406q0 -55 13.5 -94t44 -64t81.5 -36.5t126 -11.5t126 11.5t81.5 36.5t44 64t13.5 94v406zM572 823q-23 -29 -66 -29q-17 0 -32 6
t-30 13.5t-30.5 13.5t-32.5 6q-20 0 -38 -10.5t-27 -24.5v59q11 14 28 22t37 8q17 0 32.5 -6.5t30.5 -14t30 -13.5t32 -6q20 0 38 11t28 25v-60z" />
    <glyph glyph-name="Umacron" unicode="&#x16a;" horiz-adv-x="889" 
d="M52 0zM713 727h124v-406q0 -84 -22 -146.5t-69 -103.5t-121.5 -61t-180.5 -20q-105 0 -179.5 20t-121.5 61t-69 103.5t-22 146.5v406h131v-406q0 -55 13.5 -94t44 -64t81.5 -36.5t126 -11.5t126 11.5t81.5 36.5t44 64t13.5 94v406zM316 812v58h256v-58h-256z" />
    <glyph glyph-name="umacron" unicode="&#x16b;" horiz-adv-x="889" 
d="M52 0zM713 727h124v-406q0 -84 -22 -146.5t-69 -103.5t-121.5 -61t-180.5 -20q-105 0 -179.5 20t-121.5 61t-69 103.5t-22 146.5v406h131v-406q0 -55 13.5 -94t44 -64t81.5 -36.5t126 -11.5t126 11.5t81.5 36.5t44 64t13.5 94v406zM316 812v58h256v-58h-256z" />
    <glyph glyph-name="Ubreve" unicode="&#x16c;" horiz-adv-x="889" 
d="M52 0zM713 727h124v-406q0 -84 -22 -146.5t-69 -103.5t-121.5 -61t-180.5 -20q-105 0 -179.5 20t-121.5 61t-69 103.5t-22 146.5v406h131v-406q0 -55 13.5 -94t44 -64t81.5 -36.5t126 -11.5t126 11.5t81.5 36.5t44 64t13.5 94v406zM417 772q-31 0 -52 14.5t-34 35.5
t-19 44t-6 40h68q0 -13 3.5 -28.5t10.5 -29.5t18 -23.5t28 -9.5h24q16 0 27 9.5t17 23.5t8.5 29.5t2.5 28.5h69q0 -17 -5.5 -40t-18.5 -44t-34 -35.5t-52 -14.5h-55z" />
    <glyph glyph-name="ubreve" unicode="&#x16d;" horiz-adv-x="889" 
d="M52 0zM713 727h124v-406q0 -84 -22 -146.5t-69 -103.5t-121.5 -61t-180.5 -20q-105 0 -179.5 20t-121.5 61t-69 103.5t-22 146.5v406h131v-406q0 -55 13.5 -94t44 -64t81.5 -36.5t126 -11.5t126 11.5t81.5 36.5t44 64t13.5 94v406zM417 772q-31 0 -52 14.5t-34 35.5
t-19 44t-6 40h68q0 -13 3.5 -28.5t10.5 -29.5t18 -23.5t28 -9.5h24q16 0 27 9.5t17 23.5t8.5 29.5t2.5 28.5h69q0 -17 -5.5 -40t-18.5 -44t-34 -35.5t-52 -14.5h-55z" />
    <glyph glyph-name="Uring" unicode="&#x16e;" horiz-adv-x="889" 
d="M52 0zM713 727h124v-406q0 -84 -22 -146.5t-69 -103.5t-121.5 -61t-180.5 -20q-105 0 -179.5 20t-121.5 61t-69 103.5t-22 146.5v406h131v-406q0 -55 13.5 -94t44 -64t81.5 -36.5t126 -11.5t126 11.5t81.5 36.5t44 64t13.5 94v406zM418 772q-45 0 -73.5 29.5t-28.5 73.5
q0 45 28.5 72.5t73.5 27.5h51q45 0 74 -27.5t29 -72.5q0 -44 -29 -73.5t-74 -29.5h-51zM469 809q29 0 47 18.5t18 46.5t-18 45.5t-47 17.5h-51q-28 0 -46 -17.5t-18 -45.5t17.5 -46.5t46.5 -18.5h51z" />
    <glyph glyph-name="uring" unicode="&#x16f;" horiz-adv-x="889" 
d="M52 0zM713 727h124v-406q0 -84 -22 -146.5t-69 -103.5t-121.5 -61t-180.5 -20q-105 0 -179.5 20t-121.5 61t-69 103.5t-22 146.5v406h131v-406q0 -55 13.5 -94t44 -64t81.5 -36.5t126 -11.5t126 11.5t81.5 36.5t44 64t13.5 94v406zM418 772q-45 0 -73.5 29.5t-28.5 73.5
q0 45 28.5 72.5t73.5 27.5h51q45 0 74 -27.5t29 -72.5q0 -44 -29 -73.5t-74 -29.5h-51zM469 809q29 0 47 18.5t18 46.5t-18 45.5t-47 17.5h-51q-28 0 -46 -17.5t-18 -45.5t17.5 -46.5t46.5 -18.5h51z" />
    <glyph glyph-name="Uhungarumlaut" unicode="&#x170;" horiz-adv-x="889" 
d="M52 0zM713 727h124v-406q0 -84 -22 -146.5t-69 -103.5t-121.5 -61t-180.5 -20q-105 0 -179.5 20t-121.5 61t-69 103.5t-22 146.5v406h131v-406q0 -55 13.5 -94t44 -64t81.5 -36.5t126 -11.5t126 11.5t81.5 36.5t44 64t13.5 94v406zM492 781l47 125h87l-81 -125h-53z
M333 781l47 125h87l-82 -125h-52z" />
    <glyph glyph-name="uhungarumlaut" unicode="&#x171;" horiz-adv-x="889" 
d="M52 0zM713 727h124v-406q0 -84 -22 -146.5t-69 -103.5t-121.5 -61t-180.5 -20q-105 0 -179.5 20t-121.5 61t-69 103.5t-22 146.5v406h131v-406q0 -55 13.5 -94t44 -64t81.5 -36.5t126 -11.5t126 11.5t81.5 36.5t44 64t13.5 94v406zM492 781l47 125h87l-81 -125h-53z
M333 781l47 125h87l-82 -125h-52z" />
    <glyph glyph-name="Uogonek" unicode="&#x172;" horiz-adv-x="889" 
d="M454 -201q-52 0 -78 20t-26 54q0 23 11.5 40t28.5 28l74 49h-20q-105 0 -179.5 20t-121.5 61t-69 103.5t-22 146.5v406h131v-406q0 -55 13.5 -94t44 -64t81.5 -36.5t126 -11.5t126 11.5t81.5 36.5t44 64t13.5 94v406h124v-406q0 -75 -17.5 -133t-54.5 -98.5t-95.5 -64.5
t-140.5 -31l-81 -55q-11 -8 -17 -15t-6 -17q0 -25 32 -25h82v-83h-85z" />
    <glyph glyph-name="uogonek" unicode="&#x173;" horiz-adv-x="889" 
d="M52 0zM454 -201q-52 0 -78 20t-26 54q0 23 11.5 40t28.5 28l74 49h-20q-105 0 -179.5 20t-121.5 61t-69 103.5t-22 146.5v406h131v-406q0 -55 13.5 -94t44 -64t81.5 -36.5t126 -11.5t126 11.5t81.5 36.5t44 64t13.5 94v406h124v-406q0 -75 -17.5 -133t-54.5 -98.5
t-95.5 -64.5t-140.5 -31l-81 -55q-11 -8 -17 -15t-6 -17q0 -25 32 -25h82v-83h-85z" />
    <glyph glyph-name="Wcircumflex" unicode="&#x174;" horiz-adv-x="1268" 
d="M14 0zM634 243l-113 -213q-11 -20 -28 -30t-37 -10q-44 0 -66 40l-376 697h152l294 -559l110 198l-189 361h153l281 -559l296 559h142l-376 -697q-11 -20 -28.5 -30t-37.5 -10t-37 10t-28 30zM700 772l-63 97h-8l-63 -97h-69l91 134h91l91 -134h-70z" />
    <glyph glyph-name="wcircumflex" unicode="&#x175;" horiz-adv-x="1268" 
d="M14 0zM634 243l-113 -213q-11 -20 -28 -30t-37 -10q-44 0 -66 40l-376 697h152l294 -559l110 198l-189 361h153l281 -559l296 559h142l-376 -697q-11 -20 -28.5 -30t-37.5 -10t-37 10t-28 30zM700 772l-63 97h-8l-63 -97h-69l91 134h91l91 -134h-70z" />
    <glyph glyph-name="Ycircumflex" unicode="&#x176;" horiz-adv-x="926" 
d="M13 0zM399 0v276l-386 451h171l283 -335l284 335h162l-387 -451v-276h-127zM533 772l-63 97h-8l-63 -97h-69l91 134h91l91 -134h-70z" />
    <glyph glyph-name="ycircumflex" unicode="&#x177;" horiz-adv-x="926" 
d="M13 0zM399 0v276l-386 451h171l283 -335l284 335h162l-387 -451v-276h-127zM533 772l-63 97h-8l-63 -97h-69l91 134h91l91 -134h-70z" />
    <glyph glyph-name="Ydieresis" unicode="&#x178;" horiz-adv-x="926" 
d="M13 0zM399 0v276l-386 451h171l283 -335l284 335h162l-387 -451v-276h-127zM425 848q0 -21 -14.5 -33t-35.5 -12q-23 0 -37.5 12t-14.5 33t14.5 33t37.5 12q21 0 35.5 -12t14.5 -33zM610 848q0 -21 -14.5 -33t-36.5 -12t-36.5 12t-14.5 33t14.5 33t36.5 12t36.5 -12
t14.5 -33z" />
    <glyph glyph-name="Zacute" unicode="&#x179;" horiz-adv-x="802" 
d="M40 0zM112 0q-29 0 -50.5 16.5t-21.5 48.5q0 28 26 54l483 487h-500v121h636q28 0 50 -16.5t22 -48.5q0 -28 -26 -54l-483 -487h506v-121h-642zM303 772v57l256 77v-79z" />
    <glyph glyph-name="zacute" unicode="&#x17a;" horiz-adv-x="802" 
d="M40 0zM112 0q-29 0 -50.5 16.5t-21.5 48.5q0 28 26 54l483 487h-500v121h636q28 0 50 -16.5t22 -48.5q0 -28 -26 -54l-483 -487h506v-121h-642zM303 772v57l256 77v-79z" />
    <glyph glyph-name="Zdotaccent" unicode="&#x17b;" horiz-adv-x="802" 
d="M40 0zM112 0q-29 0 -50.5 16.5t-21.5 48.5q0 28 26 54l483 487h-500v121h636q28 0 50 -16.5t22 -48.5q0 -28 -26 -54l-483 -487h506v-121h-642zM452 848q0 -21 -14.5 -33t-36.5 -12t-36.5 12t-14.5 33t14.5 33t36.5 12t36.5 -12t14.5 -33z" />
    <glyph glyph-name="zdotaccent" unicode="&#x17c;" horiz-adv-x="802" 
d="M40 0zM112 0q-29 0 -50.5 16.5t-21.5 48.5q0 28 26 54l483 487h-500v121h636q28 0 50 -16.5t22 -48.5q0 -28 -26 -54l-483 -487h506v-121h-642zM452 848q0 -21 -14.5 -33t-36.5 -12t-36.5 12t-14.5 33t14.5 33t36.5 12t36.5 -12t14.5 -33z" />
    <glyph glyph-name="Zcaron" unicode="&#x17d;" horiz-adv-x="802" 
d="M40 0zM112 0q-29 0 -50.5 16.5t-21.5 48.5q0 28 26 54l483 487h-500v121h636q28 0 50 -16.5t22 -48.5q0 -28 -26 -54l-483 -487h506v-121h-642zM344 772l-90 134h69l63 -99h8l63 99h70l-92 -134h-91z" />
    <glyph glyph-name="zcaron" unicode="&#x17e;" horiz-adv-x="802" 
d="M40 0zM112 0q-29 0 -50.5 16.5t-21.5 48.5q0 28 26 54l483 487h-500v121h636q28 0 50 -16.5t22 -48.5q0 -28 -26 -54l-483 -487h506v-121h-642zM344 772l-90 134h69l63 -99h8l63 99h70l-92 -134h-91z" />
    <glyph glyph-name="Scommaaccent" unicode="&#x218;" horiz-adv-x="880" 
d="M52 0zM63 0v127h545q51 0 78.5 26t27.5 69q0 47 -27.5 70.5t-78.5 23.5h-334q-51 0 -92.5 15.5t-70 43t-44 65.5t-15.5 83q0 44 14.5 81.5t43 64.5t70.5 42.5t96 15.5h522v-127h-522q-44 0 -68 -23.5t-24 -65.5t24.5 -65t66.5 -23h333q111 0 168.5 -52t57.5 -158
q0 -46 -14 -85t-42 -67.5t-70.5 -44.5t-99.5 -16h-545zM373 -47h133l-67 -154z" />
    <glyph glyph-name="scommaaccent" unicode="&#x219;" horiz-adv-x="880" 
d="M52 0zM63 0v127h545q51 0 78.5 26t27.5 69q0 47 -27.5 70.5t-78.5 23.5h-334q-51 0 -92.5 15.5t-70 43t-44 65.5t-15.5 83q0 44 14.5 81.5t43 64.5t70.5 42.5t96 15.5h522v-127h-522q-44 0 -68 -23.5t-24 -65.5t24.5 -65t66.5 -23h333q111 0 168.5 -52t57.5 -158
q0 -46 -14 -85t-42 -67.5t-70.5 -44.5t-99.5 -16h-545zM373 -47h133l-67 -154z" />
    <glyph glyph-name="uni021A" unicode="&#x21a;" horiz-adv-x="720" 
d="M20 0zM296 0v600h-276v127h679v-127h-276v-600h-127zM293 -47h133l-67 -154z" />
    <glyph glyph-name="uni021B" unicode="&#x21b;" horiz-adv-x="720" 
d="M20 0zM296 0v600h-276v127h679v-127h-276v-600h-127zM293 -47h133l-67 -154z" />
    <glyph glyph-name="circumflex" unicode="&#x2c6;" horiz-adv-x="379" 
d="M256 772l-63 97h-8l-63 -97h-69l91 134h91l91 -134h-70z" />
    <glyph glyph-name="caron" unicode="&#x2c7;" horiz-adv-x="379" 
d="M143 772l-90 134h69l63 -99h8l63 99h70l-92 -134h-91z" />
    <glyph glyph-name="breve" unicode="&#x2d8;" horiz-adv-x="382" 
d="M164 772q-31 0 -52 14.5t-34 35.5t-19 44t-6 40h68q0 -13 3.5 -28.5t10.5 -29.5t18 -23.5t28 -9.5h24q16 0 27 9.5t17 23.5t8.5 29.5t2.5 28.5h69q0 -17 -5.5 -40t-18.5 -44t-34 -35.5t-52 -14.5h-55z" />
    <glyph glyph-name="dotaccent" unicode="&#x2d9;" horiz-adv-x="208" 
d="M155 848q0 -21 -14.5 -33t-36.5 -12t-36.5 12t-14.5 33t14.5 33t36.5 12t36.5 -12t14.5 -33z" />
    <glyph glyph-name="ring" unicode="&#x2da;" horiz-adv-x="362" 
d="M155 772q-45 0 -73.5 29.5t-28.5 73.5q0 45 28.5 72.5t73.5 27.5h51q45 0 74 -27.5t29 -72.5q0 -44 -29 -73.5t-74 -29.5h-51zM206 809q29 0 47 18.5t18 46.5t-18 45.5t-47 17.5h-51q-28 0 -46 -17.5t-18 -45.5t17.5 -46.5t46.5 -18.5h51z" />
    <glyph glyph-name="ogonek" unicode="&#x2db;" horiz-adv-x="234" 
d="M123 -201q-52 0 -78 20t-26 54q0 23 11.5 40t28.5 28l90 59h59l-91 -61q-11 -8 -17 -15t-6 -17q0 -25 32 -25h82v-83h-85z" />
    <glyph glyph-name="tilde" unicode="&#x2dc;" horiz-adv-x="362" 
d="M309 823q-23 -29 -66 -29q-17 0 -32 6t-30 13.5t-30.5 13.5t-32.5 6q-20 0 -38 -10.5t-27 -24.5v59q11 14 28 22t37 8q17 0 32.5 -6.5t30.5 -14t30 -13.5t32 -6q20 0 38 11t28 25v-60z" />
    <glyph glyph-name="hungarumlaut" unicode="&#x2dd;" horiz-adv-x="399" 
d="M212 781l47 125h87l-81 -125h-53zM53 781l47 125h87l-82 -125h-52z" />
    <glyph glyph-name="commaaccent" unicode="&#x326;" horiz-adv-x="219" 
d="M43 -47h133l-67 -154z" />
    <glyph glyph-name="Wgrave" unicode="&#x1e80;" horiz-adv-x="1268" 
d="M14 0zM634 243l-113 -213q-11 -20 -28 -30t-37 -10q-44 0 -66 40l-376 697h152l294 -559l110 198l-189 361h153l281 -559l296 559h142l-376 -697q-11 -20 -28.5 -30t-37.5 -10t-37 10t-28 30zM476 827v79l256 -77v-57z" />
    <glyph glyph-name="wgrave" unicode="&#x1e81;" horiz-adv-x="1268" 
d="M14 0zM634 243l-113 -213q-11 -20 -28 -30t-37 -10q-44 0 -66 40l-376 697h152l294 -559l110 198l-189 361h153l281 -559l296 559h142l-376 -697q-11 -20 -28.5 -30t-37.5 -10t-37 10t-28 30zM476 827v79l256 -77v-57z" />
    <glyph glyph-name="Wacute" unicode="&#x1e82;" horiz-adv-x="1268" 
d="M14 0zM634 243l-113 -213q-11 -20 -28 -30t-37 -10q-44 0 -66 40l-376 697h152l294 -559l110 198l-189 361h153l281 -559l296 559h142l-376 -697q-11 -20 -28.5 -30t-37.5 -10t-37 10t-28 30zM536 772v57l256 77v-79z" />
    <glyph glyph-name="wacute" unicode="&#x1e83;" horiz-adv-x="1268" 
d="M14 0zM634 243l-113 -213q-11 -20 -28 -30t-37 -10q-44 0 -66 40l-376 697h152l294 -559l110 198l-189 361h153l281 -559l296 559h142l-376 -697q-11 -20 -28.5 -30t-37.5 -10t-37 10t-28 30zM536 772v57l256 77v-79z" />
    <glyph glyph-name="Wdieresis" unicode="&#x1e84;" horiz-adv-x="1268" 
d="M14 0zM634 243l-113 -213q-11 -20 -28 -30t-37 -10q-44 0 -66 40l-376 697h152l294 -559l110 198l-189 361h153l281 -559l296 559h142l-376 -697q-11 -20 -28.5 -30t-37.5 -10t-37 10t-28 30zM592 848q0 -21 -14.5 -33t-35.5 -12q-23 0 -37.5 12t-14.5 33t14.5 33
t37.5 12q21 0 35.5 -12t14.5 -33zM777 848q0 -21 -14.5 -33t-36.5 -12t-36.5 12t-14.5 33t14.5 33t36.5 12t36.5 -12t14.5 -33z" />
    <glyph glyph-name="wdieresis" unicode="&#x1e85;" horiz-adv-x="1268" 
d="M14 0zM634 243l-113 -213q-11 -20 -28 -30t-37 -10q-44 0 -66 40l-376 697h152l294 -559l110 198l-189 361h153l281 -559l296 559h142l-376 -697q-11 -20 -28.5 -30t-37.5 -10t-37 10t-28 30zM592 848q0 -21 -14.5 -33t-35.5 -12q-23 0 -37.5 12t-14.5 33t14.5 33
t37.5 12q21 0 35.5 -12t14.5 -33zM777 848q0 -21 -14.5 -33t-36.5 -12t-36.5 12t-14.5 33t14.5 33t36.5 12t36.5 -12t14.5 -33z" />
    <glyph glyph-name="Ygrave" unicode="&#x1ef2;" horiz-adv-x="926" 
d="M13 0zM399 0v276l-386 451h171l283 -335l284 335h162l-387 -451v-276h-127zM308 827v79l256 -77v-57z" />
    <glyph glyph-name="ygrave" unicode="&#x1ef3;" horiz-adv-x="926" 
d="M13 0zM399 0v276l-386 451h171l283 -335l284 335h162l-387 -451v-276h-127zM308 827v79l256 -77v-57z" />
    <glyph glyph-name="endash" unicode="&#x2013;" horiz-adv-x="590" 
d="M29 320v100h535v-100h-535z" />
    <glyph glyph-name="emdash" unicode="&#x2014;" horiz-adv-x="866" 
d="M29 320v100h810v-100h-810z" />
    <glyph glyph-name="quoteleft" unicode="&#x2018;" horiz-adv-x="259" 
d="M113 467l-50 260h133v-260h-83z" />
    <glyph glyph-name="quoteright" unicode="&#x2019;" horiz-adv-x="259" 
d="M68 467v260h128l-50 -260h-78z" />
    <glyph glyph-name="quotesinglbase" unicode="&#x201a;" horiz-adv-x="259" 
d="M68 -118v260h128l-50 -260h-78z" />
    <glyph glyph-name="quotedblleft" unicode="&#x201c;" horiz-adv-x="462" 
d="M327 467l-51 260h133v-260h-82zM113 467l-50 260h133v-260h-83z" />
    <glyph glyph-name="quotedblright" unicode="&#x201d;" horiz-adv-x="462" 
d="M68 467v260h128l-50 -260h-78zM281 467v260h128l-50 -260h-78z" />
    <glyph glyph-name="quotedblbase" unicode="&#x201e;" horiz-adv-x="462" 
d="M68 -118v260h128l-50 -260h-78zM281 -118v260h128l-50 -260h-78z" />
    <glyph glyph-name="dagger" unicode="&#x2020;" horiz-adv-x="466" 
d="M205 0v511h-142v57h142v159h58v-159h140v-57h-140v-511h-58z" />
    <glyph glyph-name="daggerdbl" unicode="&#x2021;" horiz-adv-x="466" 
d="M205 0v158h-142v57h142v296h-142v58h142v158h58v-158h140v-58h-140v-296h140v-57h-140v-158h-58z" />
    <glyph glyph-name="bullet" unicode="&#x2022;" horiz-adv-x="413" 
d="M350 371q0 -29 -11.5 -55.5t-31.5 -46t-46 -31t-56 -11.5q-29 0 -55 11.5t-45.5 31t-30.5 46t-11 55.5q0 30 11 56t30.5 45.5t45.5 31t55 11.5q30 0 56 -11.5t46 -31t31.5 -45.5t11.5 -56z" />
    <glyph glyph-name="ellipsis" unicode="&#x2026;" horiz-adv-x="1310" 
d="M63 0zM199 60q0 -29 -20 -48.5t-49 -19.5t-48 19.5t-19 48.5t19 48.5t48 19.5t49 -19.5t20 -48.5zM723 60q0 -29 -20 -48.5t-49 -19.5t-48 19.5t-19 48.5t19 48.5t48 19.5t49 -19.5t20 -48.5zM1247 60q0 -29 -20 -48.5t-49 -19.5t-48 19.5t-19 48.5t19 48.5t48 19.5
t49 -19.5t20 -48.5z" />
    <glyph glyph-name="perthousand" unicode="&#x2030;" horiz-adv-x="1314" 
d="M42 0zM230 370q-40 0 -74.5 15t-59.5 40.5t-39.5 60.5t-14.5 74q0 40 14.5 73.5t39.5 58t59.5 38t74.5 13.5t74.5 -13.5t60 -38t40 -58t14.5 -73.5q0 -39 -14.5 -74t-40 -60.5t-60 -40.5t-74.5 -15zM355 557q0 53 -32.5 87.5t-92.5 34.5t-92.5 -34.5t-32.5 -87.5
t32.5 -88t92.5 -35t92.5 35t32.5 88zM67 -67l657 838h85l-655 -838h-87zM654 -15q-40 0 -74.5 15t-59.5 40.5t-39.5 60.5t-14.5 74q0 40 14.5 73.5t39.5 58t59.5 38t74.5 13.5t74.5 -13.5t60 -38t40 -58t14.5 -73.5q0 -39 -14.5 -74t-40 -60.5t-60 -40.5t-74.5 -15zM779 172
q0 53 -32.5 87.5t-92.5 34.5t-92.5 -34.5t-32.5 -87.5t32.5 -88t92.5 -35t92.5 35t32.5 88zM1083 -15q-40 0 -74.5 15t-59.5 40.5t-39.5 60.5t-14.5 74q0 40 14.5 73.5t39.5 58t59.5 38t74.5 13.5t74.5 -13.5t60 -38t40 -58t14.5 -73.5q0 -39 -14.5 -74t-40 -60.5t-60 -40.5
t-74.5 -15zM1208 172q0 53 -32.5 87.5t-92.5 34.5t-92.5 -34.5t-32.5 -87.5t32.5 -88t92.5 -35t92.5 35t32.5 88z" />
    <glyph glyph-name="guilsinglleft" unicode="&#x2039;" horiz-adv-x="367" 
d="M59 346q-17 11 -17 25q0 16 17 27l267 160v-63l-218 -125l218 -126v-59z" />
    <glyph glyph-name="guilsinglright" unicode="&#x203a;" horiz-adv-x="368" 
d="M42 185v59l218 126l-218 125v63l268 -160q17 -10 17 -27q0 -15 -17 -25z" />
    <glyph glyph-name="fraction" unicode="&#x2044;" horiz-adv-x="185" 
d="M-278 -67l657 838h85l-655 -838h-87z" />
    <glyph glyph-name="zerosuperior" unicode="&#x2070;" horiz-adv-x="449" 
d="M36 370zM224 370q-40 0 -74.5 15t-59.5 40.5t-39.5 60.5t-14.5 74q0 40 14.5 73.5t39.5 58t59.5 38t74.5 13.5t74.5 -13.5t60 -38t40 -58t14.5 -73.5q0 -39 -14.5 -74t-40 -60.5t-60 -40.5t-74.5 -15zM349 557q0 53 -32.5 87.5t-92.5 34.5t-92.5 -34.5t-32.5 -87.5
t32.5 -88t92.5 -35t92.5 35t32.5 88z" />
    <glyph glyph-name="foursuperior" unicode="&#x2074;" horiz-adv-x="452" 
d="M39 375zM309 375v97h-151q-57 0 -88 28t-31 88v150h63v-149q0 -32 13.5 -44t42.5 -12h151v205h63v-205h53v-61h-53v-97h-63z" />
    <glyph glyph-name="fivesuperior" unicode="&#x2075;" horiz-adv-x="472" 
d="M46 375zM46 375v63h273q26 0 39 13t13 35q0 47 -52 47h-273v205h368v-63h-302v-89h207q112 0 112 -105q0 -46 -27.5 -76t-84.5 -30h-273z" />
    <glyph glyph-name="sixsuperior" unicode="&#x2076;" horiz-adv-x="466" 
d="M36 375zM201 375q-78 0 -121.5 45.5t-43.5 139.5q0 93 44 135.5t121 42.5h208v-63h-208q-44 0 -69 -21t-31 -67h213q52 0 81 -24.5t29 -77.5t-29.5 -81.5t-80.5 -28.5h-113zM100 533q5 -50 30.5 -72.5t70.5 -22.5h107q55 0 55 50q0 45 -55 45h-208z" />
    <glyph glyph-name="sevensuperior" unicode="&#x2077;" horiz-adv-x="408" 
d="M37 375zM40 375l248 300h-251v63h305q22 0 31 -8.5t9 -21.5q0 -7 -2 -14t-10 -16l-248 -303h-82z" />
    <glyph glyph-name="eightsuperior" unicode="&#x2078;" horiz-adv-x="479" 
d="M40 375zM157 375q-54 0 -85.5 29.5t-31.5 80.5q0 32 16 53t41 29q-20 6 -35 24t-15 53q0 47 32 70.5t85 23.5h150q54 0 86 -23.5t32 -70.5q0 -35 -15.5 -53t-35.5 -24q25 -8 41 -29t16 -53q0 -51 -31.5 -80.5t-85.5 -29.5h-164zM160 533q-56 0 -56 -47q0 -24 19.5 -36
t49.5 -12h133q30 0 49 12t19 36q0 47 -55 47h-159zM176 675q-31 0 -48 -9.5t-17 -35.5q0 -44 53 -44h150q53 0 53 44q0 26 -16.5 35.5t-48.5 9.5h-126z" />
    <glyph glyph-name="ninesuperior" unicode="&#x2079;" horiz-adv-x="460" 
d="M36 375zM77 375v63h182q42 0 66.5 19t32.5 61h-217q-50 0 -77.5 25t-27.5 82q0 48 28 80.5t77 32.5h118q77 0 121 -45.5t44 -139.5q0 -93 -44.5 -135.5t-120.5 -42.5h-182zM100 621q0 -26 13.5 -38t37.5 -12h209q-3 54 -28.5 78.5t-72.5 24.5h-108q-23 0 -37 -13.5
t-14 -39.5z" />
    <glyph glyph-name="zeroinferior" unicode="&#x2080;" horiz-adv-x="449" 
d="M224 -15q-40 0 -74.5 15t-59.5 40.5t-39.5 60.5t-14.5 74q0 40 14.5 73.5t39.5 58t59.5 38t74.5 13.5t74.5 -13.5t60 -38t40 -58t14.5 -73.5q0 -39 -14.5 -74t-40 -60.5t-60 -40.5t-74.5 -15zM349 172q0 53 -32.5 87.5t-92.5 34.5t-92.5 -34.5t-32.5 -87.5t32.5 -88
t92.5 -35t92.5 35t32.5 88z" />
    <glyph glyph-name="oneinferior" unicode="&#x2081;" horiz-adv-x="222" 
d="M113 -10v244q0 56 -51 56h-35v63h35q55 0 84.5 -31t29.5 -88v-244h-63z" />
    <glyph glyph-name="twoinferior" unicode="&#x2082;" horiz-adv-x="442" 
d="M46 -10v106q0 105 112 105h132q20 0 33 12t13 32q0 21 -12.5 33t-33.5 12h-241v63h241q54 0 82.5 -28.5t28.5 -73.5t-29.5 -74t-81.5 -29h-132q-52 0 -52 -47v-48h289v-63h-349z" />
    <glyph glyph-name="threeinferior" unicode="&#x2083;" horiz-adv-x="443" 
d="M38 -10v63h233q30 0 49 12.5t19 35.5q0 47 -55 47h-160v53h156q53 0 53 44q0 26 -17 35.5t-49 9.5h-228v63h241q53 0 85 -23.5t32 -70.5q0 -35 -15 -53t-35 -24q25 -8 41 -29t16 -53q0 -50 -31.5 -80t-85.5 -30h-249z" />
    <glyph glyph-name="fourinferior" unicode="&#x2084;" horiz-adv-x="452" 
d="M309 -10v97h-151q-57 0 -88 28t-31 88v150h63v-149q0 -32 13.5 -44t42.5 -12h151v205h63v-205h53v-61h-53v-97h-63z" />
    <glyph glyph-name="fiveinferior" unicode="&#x2085;" horiz-adv-x="472" 
d="M46 -10v63h273q26 0 39 13t13 35q0 47 -52 47h-273v205h368v-63h-302v-89h207q112 0 112 -105q0 -46 -27.5 -76t-84.5 -30h-273z" />
    <glyph glyph-name="sixinferior" unicode="&#x2086;" horiz-adv-x="466" 
d="M201 -10q-78 0 -121.5 45.5t-43.5 139.5q0 93 44 135.5t121 42.5h208v-63h-208q-44 0 -69 -21t-31 -67h213q52 0 81 -24.5t29 -77.5t-29.5 -81.5t-80.5 -28.5h-113zM100 148q5 -50 30.5 -72.5t70.5 -22.5h107q55 0 55 50q0 45 -55 45h-208z" />
    <glyph glyph-name="seveninferior" unicode="&#x2087;" horiz-adv-x="408" 
d="M40 -10l248 300h-251v63h305q22 0 31 -8.5t9 -21.5q0 -7 -2 -14t-10 -16l-248 -303h-82z" />
    <glyph glyph-name="eightinferior" unicode="&#x2088;" horiz-adv-x="479" 
d="M157 -10q-54 0 -85.5 29.5t-31.5 80.5q0 32 16 53t41 29q-20 6 -35 24t-15 53q0 47 32 70.5t85 23.5h150q54 0 86 -23.5t32 -70.5q0 -35 -15.5 -53t-35.5 -24q25 -8 41 -29t16 -53q0 -51 -31.5 -80.5t-85.5 -29.5h-164zM160 148q-56 0 -56 -47q0 -24 19.5 -36t49.5 -12
h133q30 0 49 12t19 36q0 47 -55 47h-159zM176 290q-31 0 -48 -9.5t-17 -35.5q0 -44 53 -44h150q53 0 53 44q0 26 -16.5 35.5t-48.5 9.5h-126z" />
    <glyph glyph-name="nineinferior" unicode="&#x2089;" horiz-adv-x="460" 
d="M77 -10v63h182q42 0 66.5 19t32.5 61h-217q-50 0 -77.5 25t-27.5 82q0 48 28 80.5t77 32.5h118q77 0 121 -45.5t44 -139.5q0 -93 -44.5 -135.5t-120.5 -42.5h-182zM100 236q0 -26 13.5 -38t37.5 -12h209q-3 54 -28.5 78.5t-72.5 24.5h-108q-23 0 -37 -13.5t-14 -39.5z
" />
    <glyph glyph-name="Euro" unicode="&#x20ac;" horiz-adv-x="884" 
d="M457 0q-64 0 -120.5 20t-101 56.5t-76 87t-45.5 110.5h-84l13 46h63q-3 24 -3 51q0 10 0.5 20.5t1.5 20.5h-75l13 47h69q13 61 44.5 110.5t76.5 84.5t102 54t122 19h395l-83 -127h-312q-73 0 -127 -38t-77 -103h429l-31 -47h-416q-2 -11 -3 -23t-1 -24q0 -23 3 -45h359
l-30 -46h-312q23 -66 77 -106.5t129 -40.5h338v-127h-338z" />
    <glyph glyph-name="trademark" unicode="&#x2122;" horiz-adv-x="536" 
d="M430 480v138l-46 -138h-34l-48 138v-138h-43v247h41l66 -176l67 176h40v-247h-43zM114 480v204h-69v43h181v-43h-68v-204h-44z" />
    <glyph glyph-name="onethird" unicode="&#x2153;" horiz-adv-x="951" 
d="M42 0zM211 375v244q0 56 -51 56h-35v63h35q55 0 84.5 -31t29.5 -88v-244h-63zM42 -67l657 838h85l-655 -838h-87zM543 -10v63h233q30 0 49 12.5t19 35.5q0 47 -55 47h-160v53h156q53 0 53 44q0 26 -17 35.5t-49 9.5h-228v63h241q53 0 85 -23.5t32 -70.5q0 -35 -15 -53
t-35 -24q25 -8 41 -29t16 -53q0 -50 -31.5 -80t-85.5 -30h-249z" />
    <glyph glyph-name="twothirds" unicode="&#x2154;" horiz-adv-x="979" 
d="M43 0zM43 375v106q0 105 112 105h132q20 0 33 12t13 32q0 21 -12.5 33t-33.5 12h-241v63h241q54 0 82.5 -28.5t28.5 -73.5t-29.5 -74t-81.5 -29h-132q-52 0 -52 -47v-48h289v-63h-349zM100 -67l657 838h85l-655 -838h-87zM571 -10v63h233q30 0 49 12.5t19 35.5
q0 47 -55 47h-160v53h156q53 0 53 44q0 26 -17 35.5t-49 9.5h-228v63h241q53 0 85 -23.5t32 -70.5q0 -35 -15 -53t-35 -24q25 -8 41 -29t16 -53q0 -50 -31.5 -80t-85.5 -30h-249z" />
    <glyph glyph-name="oneeighth" unicode="&#x215b;" horiz-adv-x="985" 
d="M42 0zM211 375v244q0 56 -51 56h-35v63h35q55 0 84.5 -31t29.5 -88v-244h-63zM42 -67l657 838h85l-655 -838h-87zM662 -10q-54 0 -85.5 29.5t-31.5 80.5q0 32 16 53t41 29q-20 6 -35 24t-15 53q0 47 32 70.5t85 23.5h150q54 0 86 -23.5t32 -70.5q0 -35 -15.5 -53
t-35.5 -24q25 -8 41 -29t16 -53q0 -51 -31.5 -80.5t-85.5 -29.5h-164zM665 148q-56 0 -56 -47q0 -24 19.5 -36t49.5 -12h133q30 0 49 12t19 36q0 47 -55 47h-159zM681 290q-31 0 -48 -9.5t-17 -35.5q0 -44 53 -44h150q53 0 53 44q0 26 -16.5 35.5t-48.5 9.5h-126z" />
    <glyph glyph-name="threeeighths" unicode="&#x215c;" horiz-adv-x="972" 
d="M42 0zM42 375v63h233q30 0 49 12.5t19 35.5q0 47 -55 47h-160v53h156q53 0 53 44q0 26 -17 35.5t-49 9.5h-228v63h241q53 0 85 -23.5t32 -70.5q0 -35 -15 -53t-35 -24q25 -8 41 -29t16 -53q0 -50 -31.5 -80t-85.5 -30h-249zM89 -67l657 838h85l-655 -838h-87zM649 -10
q-54 0 -85.5 29.5t-31.5 80.5q0 32 16 53t41 29q-20 6 -35 24t-15 53q0 47 32 70.5t85 23.5h150q54 0 86 -23.5t32 -70.5q0 -35 -15.5 -53t-35.5 -24q25 -8 41 -29t16 -53q0 -51 -31.5 -80.5t-85.5 -29.5h-164zM652 148q-56 0 -56 -47q0 -24 19.5 -36t49.5 -12h133
q30 0 49 12t19 36q0 47 -55 47h-159zM668 290q-31 0 -48 -9.5t-17 -35.5q0 -44 53 -44h150q53 0 53 44q0 26 -16.5 35.5t-48.5 9.5h-126z" />
    <glyph glyph-name="fiveeighths" unicode="&#x215d;" horiz-adv-x="973" 
d="M43 0zM43 375v63h273q26 0 39 13t13 35q0 47 -52 47h-273v205h368v-63h-302v-89h207q112 0 112 -105q0 -46 -27.5 -76t-84.5 -30h-273zM100 -67l657 838h85l-655 -838h-87zM650 -10q-54 0 -85.5 29.5t-31.5 80.5q0 32 16 53t41 29q-20 6 -35 24t-15 53q0 47 32 70.5
t85 23.5h150q54 0 86 -23.5t32 -70.5q0 -35 -15.5 -53t-35.5 -24q25 -8 41 -29t16 -53q0 -51 -31.5 -80.5t-85.5 -29.5h-164zM653 148q-56 0 -56 -47q0 -24 19.5 -36t49.5 -12h133q30 0 49 12t19 36q0 47 -55 47h-159zM669 290q-31 0 -48 -9.5t-17 -35.5q0 -44 53 -44h150
q53 0 53 44q0 26 -16.5 35.5t-48.5 9.5h-126z" />
    <glyph glyph-name="seveneighths" unicode="&#x215e;" horiz-adv-x="965" 
d="M42 0zM85 375l248 300h-251v63h305q22 0 31 -8.5t9 -21.5q0 -7 -2 -14t-10 -16l-248 -303h-82zM42 -67l657 838h85l-655 -838h-87zM642 -10q-54 0 -85.5 29.5t-31.5 80.5q0 32 16 53t41 29q-20 6 -35 24t-15 53q0 47 32 70.5t85 23.5h150q54 0 86 -23.5t32 -70.5
q0 -35 -15.5 -53t-35.5 -24q25 -8 41 -29t16 -53q0 -51 -31.5 -80.5t-85.5 -29.5h-164zM645 148q-56 0 -56 -47q0 -24 19.5 -36t49.5 -12h133q30 0 49 12t19 36q0 47 -55 47h-159zM661 290q-31 0 -48 -9.5t-17 -35.5q0 -44 53 -44h150q53 0 53 44q0 26 -16.5 35.5t-48.5 9.5
h-126z" />
    <glyph glyph-name="minus" unicode="&#x2212;" horiz-adv-x="690" 
d="M63 328v84h564v-84h-564z" />
    <glyph glyph-name="approxequal" unicode="&#x2248;" horiz-adv-x="691" 
d="M64 176zM628 227q-29 -27 -66.5 -39t-78.5 -12q-36 0 -69.5 10.5t-67 23.5t-67.5 23.5t-71 10.5q-41 0 -80.5 -17t-63.5 -43v92q27 26 64 39.5t80 13.5q36 0 70 -10.5t67 -23.5t67 -23.5t71 -10.5q43 0 83 18.5t62 40.5v-93zM628 466q-29 -27 -66.5 -39t-78.5 -12
q-36 0 -69.5 10.5t-67 23.5t-67.5 23.5t-71 10.5q-41 0 -80.5 -17t-63.5 -43v92q27 26 64 39.5t80 13.5q36 0 70 -10.5t67 -23.5t67 -23.5t71 -10.5q43 0 83 18.5t62 40.5v-93z" />
    <glyph glyph-name="notequal" unicode="&#x2260;" horiz-adv-x="690" 
d="M-26 -67l203 259h-114v84h180l146 186h-326v84h392l176 225h85l-176 -225h87v-84h-153l-145 -186h298v-84h-364l-202 -259h-87z" />
    <glyph glyph-name="lessequal" unicode="&#x2264;" horiz-adv-x="690" 
d="M97 323q-16 7 -25 18.5t-9 28.5q0 14 9 27t25 20l530 222v-91l-456 -178l456 -180v-90zM63 -52v84h564v-84h-564z" />
    <glyph glyph-name="greaterequal" unicode="&#x2265;" horiz-adv-x="690" 
d="M63 100v90l456 180l-456 178v91l530 -222q16 -7 25 -20t9 -27q0 -17 -9 -28.5t-25 -18.5zM63 -52v84h564v-84h-564z" />
    <glyph glyph-name=".ttfautohint" horiz-adv-x="104" 
d="M0 0z" />
    </font>
</defs>
</svg>
