<?xml version="1.0" encoding="UTF-8" standalone="no"?>
<svg
   xmlns:dc="http://purl.org/dc/elements/1.1/"
   xmlns:cc="http://creativecommons.org/ns#"
   xmlns:rdf="http://www.w3.org/1999/02/22-rdf-syntax-ns#"
   xmlns:svg="http://www.w3.org/2000/svg"
   xmlns="http://www.w3.org/2000/svg"
   xmlns:sodipodi="http://sodipodi.sourceforge.net/DTD/sodipodi-0.dtd"
   xmlns:inkscape="http://www.inkscape.org/namespaces/inkscape"
   inkscape:version="1.0 (6e3e5246a0, 2020-05-07)"
   sodipodi:docname="wails-logo-white-transparent.svg"
   viewBox="0, 0, 400,337.64102564102564"
   height="337.64102564102564"
   width="400"
   version="1.1"
   id="svg">
  <metadata
     id="metadata126">
    <rdf:RDF>
      <cc:Work
         rdf:about="">
        <dc:format>image/svg+xml</dc:format>
        <dc:type
           rdf:resource="http://purl.org/dc/dcmitype/StillImage" />
        <dc:title></dc:title>
      </cc:Work>
    </rdf:RDF>
  </metadata>
  <defs
     id="defs124" />
  <sodipodi:namedview
     inkscape:current-layer="svgg"
     inkscape:window-maximized="0"
     inkscape:window-y="2288"
     inkscape:window-x="2970"
     inkscape:cy="168.82051"
     inkscape:cx="150.76068"
     inkscape:zoom="2.4878494"
     showgrid="false"
     id="namedview122"
     inkscape:window-height="914"
     inkscape:window-width="1563"
     inkscape:pageshadow="2"
     inkscape:pageopacity="0"
     guidetolerance="10"
     gridtolerance="10"
     objecttolerance="10"
     borderopacity="1"
     bordercolor="#666666"
     pagecolor="#ffffff" />
  <g
     id="svgg">
    <path
       style="fill:#ffffff"
       fill-rule="evenodd"
       fill="#ffffff"
       stroke="none"
       d="m 164.02,37.827 c -3.635,0.645 -10.924,2.301 -11.387,2.588 -0.156,0.096 -1.534,0.534 -3.063,0.972 -3.059,0.877 -6.726,2.199 -8.941,3.222 -0.788,0.364 -1.519,0.661 -1.626,0.661 -0.319,0 -5.197,2.414 -8.091,4.004 -5.358,2.943 -10.397,6.545 -13.936,9.962 -1.978,1.91 -2.449,2.227 -2.449,1.648 0,-1.689 1.52,-3.964 5.208,-7.797 2.718,-2.825 2.163,-2.687 -2.09,0.519 -6.559,4.943 -12.263,10.616 -17.095,17.002 -5.942,7.851 -11.537,19.679 -13.07,27.627 -0.79,4.095 -1.25,2.991 -0.627,-1.504 2.891,-20.866 18.037,-42.689 38.426,-55.368 5.392,-3.354 3.262,-2.792 -5.178,1.365 -18.666,9.195 -33.298,23.755 -42.279,42.071 -2.8,5.712 -5.863,12.94 -5.863,13.838 0,0.216 -0.292,1.105 -0.648,1.976 -1.212,2.956 -3.465,11.579 -4.74,18.137 -2.099,10.799 -4.322,14.723 -9.521,16.805 -5.63,2.253 -7.837,1.318 -7.265,-3.08 l 0.203,-1.563 -1.028,1.183 c -2.62,3.015 -3.941,7.438 -4.236,14.189 l -0.199,4.561 1.133,-1.835 c 1.699,-2.753 1.802,-2.601 1.862,2.764 0.03,2.648 0.22,5.574 0.422,6.503 0.202,0.929 0.612,2.942 0.911,4.474 0.536,2.745 1.147,3.449 1.147,1.32 0,-3.596 2.612,-9.334 5.574,-12.245 2.772,-2.724 3.2,-2.811 4.532,-0.921 1.929,2.737 5.424,3.794 4.545,1.375 -0.821,-2.261 -0.74,-5.297 0.182,-6.789 1.253,-2.027 1.645,-2.062 4.082,-0.366 l 2.153,1.498 0.548,-2.112 c 1.193,-4.604 5.48,-8.025 10.056,-8.025 h 0.857 l -0.182,2.66 c -0.296,4.318 -2.381,7.66 -5.708,9.15 l -1.343,0.601 1.374,1.088 c 0.756,0.598 1.279,1.241 1.164,1.428 -0.286,0.462 -4.149,2.172 -6.495,2.874 l -1.913,0.573 1.773,0.49 c 0.976,0.27 1.774,0.609 1.774,0.754 0,0.935 -5.544,4.624 -9.459,6.295 -2.926,1.248 -2.692,1.308 2.27,0.581 13.211,-1.936 24.62,-10.419 30.961,-23.022 0.675,-1.343 1.228,-2.499 1.228,-2.569 0,-0.071 -1.025,0.907 -2.278,2.173 -2.263,2.285 -3.293,2.619 -2.36,0.764 0.573,-1.138 2.172,-7.602 2.531,-10.23 0.225,-1.649 0.351,-1.862 1.263,-2.146 8.978,-2.794 15.07,-7.776 18.599,-15.207 1.114,-2.345 3.098,-9.908 2.704,-10.302 -0.104,-0.104 -0.189,0.027 -0.189,0.29 -10e-4,1.94 -4.006,8.014 -7.36,11.165 -7.006,6.579 -12.187,4.742 -12.797,-4.537 -1.044,-15.893 13.217,-31.845 36.88,-41.253 2.23,-0.886 4.533,-1.826 5.119,-2.089 0.585,-0.262 1.2,-0.476 1.365,-0.476 0.165,0 1.671,-0.445 3.347,-0.988 13.255,-4.296 21.702,-2.737 30.053,5.548 7.937,7.875 10.141,17.155 7.254,30.541 -0.939,4.353 -1.024,4.087 1.933,6.037 1.44,0.95 4.519,3.027 6.841,4.616 4.854,3.32 4.592,3.278 5.406,0.858 8.74,-25.984 1.539,-51.361 -17.492,-61.645 -0.98,-0.529 -1.729,-1.126 -1.663,-1.327 0.377,-1.151 9.065,-1.699 17.461,-1.1 4.992,0.355 4.665,0.122 -1.544,-1.103 -11.102,-2.19 -25.243,-2.641 -33.015,-1.053 -5.768,1.178 -8.415,1.827 -10.441,2.558 -3.376,1.217 -3.766,1.083 -1.884,-0.651 3.938,-3.626 11.36,-7.412 19.27,-9.831 3.38,-1.033 2.26,-1.099 -2.956,-0.174 m 89.887,20.703 c -22.624,22.7 -35.664,50.623 -35.664,76.366 0,4.071 -0.017,4.077 -3.445,1.334 -1.564,-1.253 -3.725,-2.961 -4.801,-3.798 -1.076,-0.836 -2.836,-2.204 -3.911,-3.04 -1.075,-0.836 -3.354,-2.585 -5.064,-3.885 -3.394,-2.581 -7.563,-5.764 -13.717,-10.473 -2.185,-1.673 -4.57,-3.535 -5.299,-4.139 -1.586,-1.313 -1.72,-1.258 -2.47,1.018 -1.28,3.888 -6.966,15.173 -10.473,20.785 -4.279,6.849 -8.927,13.632 -9.058,13.219 -0.083,-0.263 -0.238,-3.29 -0.344,-6.728 -0.574,-18.645 -5.86,-37.109 -14.936,-52.168 -1.799,-2.984 -2.19,-2.965 -1.172,0.058 0.701,2.08 2.876,10.827 3.214,12.921 1.31,8.133 1.607,10.683 1.839,15.81 1.172,25.88 -7.681,55.339 -21.296,70.858 l -1.128,1.285 1.014,-0.249 c 3.865,-0.946 17.21,-8.399 23.649,-13.207 12.456,-9.301 26.226,-24.377 34.249,-37.496 1.268,-2.073 1.318,-2.096 2.845,-1.308 8.455,4.362 21.474,16.228 27.859,25.392 4.356,6.252 9.659,15.646 11.707,20.742 1.902,4.729 1.912,4.742 1.676,2.303 -0.582,-6.033 0.175,-22.645 1.38,-30.264 2.109,-13.341 6.381,-29.263 9.965,-37.143 0.169,-0.372 0.91,-2.122 1.648,-3.889 4.669,-11.188 12.028,-24.181 18.682,-32.985 3.131,-4.143 2.685,-3.916 6.222,-3.164 33.795,7.19 52.333,38.983 43.044,73.822 -6.942,26.036 -23.878,37.43 -64.514,43.398 -2.508,0.369 -6.081,0.912 -7.939,1.208 -1.858,0.296 -5.811,0.825 -8.784,1.176 -32.046,3.782 -50.864,8.281 -53.245,12.73 -1.847,3.452 -1.811,-5.303 0.045,-10.71 1.555,-4.53 2.602,-6.543 5.971,-11.485 0.819,-1.201 4.002,-4.952 5.806,-6.841 2.225,-2.33 1.511,-2.058 -5.367,2.044 -25.117,14.977 -34.31,35.116 -26.165,57.316 1.533,4.176 6.913,14.035 7.66,14.035 0.051,0.001 0.092,-3.002 0.092,-6.672 0,-13.012 4.477,-20.276 14.414,-23.391 3.256,-1.021 4.003,-0.937 3.304,0.369 -1.37,2.561 -1.37,7.534 0.002,12.802 0.331,1.272 2.274,6.379 2.541,6.681 0.045,0.051 0.088,-1.774 0.096,-4.054 0.051,-15.72 10.166,-23.616 30.375,-23.712 3.376,-0.016 6.112,-0.055 6.081,-0.085 -0.031,-0.031 -1.062,-0.435 -2.292,-0.897 -7.411,-2.789 -20.232,-2.747 -31.651,0.103 -4.347,1.086 -4.611,0.903 -1.924,-1.333 5.994,-4.986 18.268,-7.578 40.034,-8.456 34.837,-1.404 48.347,-2.57 62.523,-5.398 26.034,-5.192 45.267,-20.445 54.847,-43.497 1.159,-2.788 1.106,-3.036 -0.393,-1.865 -3.867,3.02 -10.077,6.064 -16.128,7.904 -2.827,0.86 -3.089,0.784 -1.621,-0.468 8.553,-7.294 17.235,-19.712 19.373,-27.708 0.211,-0.791 0.513,-1.595 0.671,-1.788 1.599,-1.956 3.507,-14.946 3.521,-23.974 0.015,-10.179 -0.96,-18.029 -1.632,-13.127 -1.341,9.785 -8.216,25.095 -14.054,31.297 -2.424,2.576 -2.704,2.382 -1.716,-1.192 7.34,-26.575 3.788,-49.828 -9.758,-63.88 -4.142,-4.296 -5.343,-5.08 -3.146,-2.053 7.918,10.907 10.145,25.238 6.024,38.751 -1.144,3.749 -1.282,3.785 -2.553,0.661 -7.187,-17.672 -19.534,-31.462 -35.147,-39.256 -7.72,-3.854 -17.988,-6.775 -23.815,-6.775 h -1.607 l -6.144,6.165 M 84.096,121.065 c -0.863,3.441 -1.605,4.273 -5.154,5.781 -2.717,1.155 -2.849,1.073 -1.976,-1.231 2.025,-5.343 2.232,-5.635 4.882,-6.866 3.035,-1.411 3.152,-1.29 2.248,2.316 m 62.431,159.342 c -0.474,0.373 -4.466,6.72 -8.872,14.105 -4.405,7.385 -8.345,13.959 -8.755,14.61 -0.41,0.65 -1.127,1.79 -1.595,2.533 -0.468,0.744 -1.105,1.846 -1.417,2.45 l -0.568,1.098 h 3.346 3.345 l 2.123,-3.632 c 1.168,-1.998 2.986,-5.076 4.039,-6.841 1.053,-1.765 3.172,-5.338 4.709,-7.939 1.536,-2.602 3.267,-5.53 3.847,-6.507 0.579,-0.978 1.21,-1.727 1.402,-1.664 0.33,0.107 7.537,11.95 7.588,12.469 0.013,0.135 -2.349,0.287 -5.25,0.338 l -5.275,0.093 -1.328,2.196 -1.327,2.196 8.152,0.169 8.152,0.169 2.63,4.392 2.63,4.392 3.603,0.096 3.603,0.096 -0.695,-1.279 c -0.382,-0.703 -2.958,-5.003 -5.724,-9.555 -2.766,-4.552 -7.112,-11.738 -9.657,-15.969 -5.484,-9.113 -6.326,-9.888 -8.706,-8.016 M 46.221,280.243 c -0.109,0.109 1.81,3.877 4.264,8.373 2.455,4.496 5.384,9.923 6.51,12.06 7.078,13.432 8.031,14.865 9.9,14.865 2.162,0 2.471,-0.312 4.932,-4.968 2.882,-5.453 3.678,-6.849 3.908,-6.853 0.125,-0.002 1.341,2.145 2.703,4.77 5.387,10.394 6.254,10.152 13.806,-3.842 2.834,-5.25 6.955,-12.862 9.157,-16.913 2.202,-4.052 4.004,-7.435 4.004,-7.517 0,-0.083 -1.426,-0.15 -3.17,-0.15 -3.762,0 -2.813,-1.034 -7.91,8.614 -2.061,3.902 -5.032,9.522 -6.603,12.489 -1.57,2.966 -3.008,5.445 -3.196,5.507 -0.188,0.063 -3.359,-5.898 -7.046,-13.245 l -6.703,-13.36 -3.463,-0.003 c -1.904,-10e-4 -3.463,0.09 -3.463,0.203 0,0.182 2.609,5.259 7.37,14.342 l 1.515,2.892 -2.5,4.614 c -1.375,2.538 -2.667,4.62 -2.871,4.625 -0.204,0.006 -2.221,-3.524 -4.481,-7.844 -2.261,-4.32 -5.386,-10.287 -6.946,-13.26 l -2.836,-5.406 -3.342,-0.095 c -1.838,-0.053 -3.431,-0.007 -3.539,0.102 m 158.509,17.392 v 17.568 h 2.871 2.872 v -17.568 -17.567 h -2.872 -2.871 v 17.567 m 41.554,-0.013 v 17.581 h 14.696 14.696 v -3.041 -3.04 h -11.652 -11.652 l -0.088,-14.443 -0.088,-14.443 -2.956,-0.097 -2.956,-0.098 v 17.581 m 70.702,-17.213 c -9.476,1.384 -11.172,14.433 -2.394,18.423 l 2.131,0.968 10.869,0.185 10.869,0.184 0.874,0.823 c 1.582,1.487 1.877,4.426 0.635,6.322 -1.148,1.752 -1.659,1.808 -16.626,1.808 h -13.885 v 3.062 3.063 l 14.781,-0.106 14.78,-0.107 1.858,-0.966 c 7.569,-3.933 7.294,-15.921 -0.426,-18.543 -0.652,-0.221 -5.489,-0.45 -11.965,-0.567 -10.347,-0.185 -10.918,-0.229 -11.825,-0.902 -2.001,-1.487 -2.22,-4.681 -0.456,-6.655 l 0.968,-1.083 13.71,-0.096 13.711,-0.095 v -3.03 -3.029 l -12.923,0.042 c -7.107,0.023 -13.716,0.158 -14.686,0.299"
       id="path0" />
    <path
       fill-rule="evenodd"
       fill="#9c9a9b"
       stroke="none"
       d="m 171.959,36.486 c 0,0.186 -0.253,0.338 -0.563,0.338 -0.309,0 -0.476,0.087 -0.37,0.193 0.106,0.106 0.853,-0.039 1.661,-0.322 1.452,-0.508 1.456,-0.514 0.37,-0.53 -0.603,-0.009 -1.098,0.136 -1.098,0.321 m -1.604,8.36 c 1.811,0.061 4.776,0.061 6.588,0 1.811,-0.06 0.329,-0.11 -3.294,-0.11 -3.624,0 -5.106,0.05 -3.294,0.11 m -5.908,0.325 c 0.42,0.081 1.028,0.078 1.351,-0.006 0.323,-0.085 -0.021,-0.151 -0.764,-0.147 -0.743,0.003 -1.008,0.073 -0.587,0.153 m 17.229,0 c 0.42,0.081 1.029,0.078 1.352,-0.006 0.323,-0.085 -0.021,-0.151 -0.764,-0.147 -0.744,0.003 -1.008,0.073 -0.588,0.153 m 10.135,3.041 c 0.421,0.081 1.029,0.078 1.352,-0.007 0.323,-0.084 -0.021,-0.151 -0.764,-0.147 -0.744,0.004 -1.008,0.073 -0.588,0.154 m -67.675,0.584 c -0.649,0.48 -0.649,0.485 0.001,0.393 0.362,-0.051 0.716,-0.269 0.788,-0.485 0.172,-0.515 0.005,-0.496 -0.789,0.092 m 70.716,-0.246 c 0.42,0.081 1.028,0.077 1.351,-0.007 0.323,-0.085 -0.021,-0.151 -0.764,-0.147 -0.743,0.004 -1.007,0.073 -0.587,0.154 m 5.777,0.036 c 0.389,0.269 0.389,0.345 0,0.485 -0.253,0.092 0.113,0.156 0.814,0.143 1.284,-0.024 1.126,-0.288 -0.429,-0.716 -0.576,-0.157 -0.698,-0.13 -0.385,0.088 m -78.688,2.681 -1.164,1.267 1.267,-1.164 c 0.697,-0.641 1.267,-1.211 1.267,-1.267 0,-0.258 -0.286,-0.015 -1.37,1.164 m 136.487,2.365 -1.164,1.267 1.266,-1.165 c 1.18,-1.083 1.423,-1.369 1.165,-1.369 -0.057,0 -0.627,0.57 -1.267,1.267 m 15.39,0.76 c 0.371,0.16 0.903,0.29 1.182,0.29 0.319,0 0.257,-0.107 -0.169,-0.29 -0.372,-0.16 -0.904,-0.29 -1.182,-0.29 -0.32,0 -0.257,0.107 0.169,0.29 m 40.709,1.648 c 0,0.44 0.873,1.083 1.126,0.829 0.254,-0.253 -0.389,-1.126 -0.83,-1.126 -0.163,0 -0.296,0.134 -0.296,0.297 m -216.739,1.477 -1.335,1.436 1.436,-1.336 c 1.335,-1.242 1.591,-1.536 1.335,-1.536 -0.055,0 -0.701,0.646 -1.436,1.436 m 14.86,-0.338 -0.993,1.098 1.098,-0.992 c 1.024,-0.925 1.254,-1.204 0.993,-1.204 -0.059,0 -0.553,0.494 -1.098,1.098 m -7.433,1.689 -0.992,1.098 1.098,-0.992 c 1.023,-0.925 1.253,-1.204 0.992,-1.204 -0.058,0 -0.552,0.494 -1.098,1.098 m 214.549,1.267 c 1.103,1.115 2.081,2.027 2.174,2.027 0.093,0 -0.733,-0.912 -1.837,-2.027 -1.103,-1.115 -2.082,-2.027 -2.174,-2.027 -0.093,0 0.733,0.912 1.837,2.027 m -211.994,1.52 c -1.384,1.394 -2.441,2.534 -2.348,2.534 0.093,0 1.302,-1.14 2.686,-2.534 1.384,-1.393 2.441,-2.533 2.348,-2.533 -0.093,0 -1.301,1.14 -2.686,2.533 m 7.947,-1.866 c -0.333,0.368 -0.736,0.587 -0.897,0.487 -0.161,-0.099 -0.293,0.085 -0.293,0.409 0,0.477 0.195,0.404 1.014,-0.381 0.557,-0.534 1.013,-1.019 1.013,-1.077 0,-0.246 -0.27,-0.064 -0.837,0.562 m -23.672,3.471 -1.336,1.436 1.436,-1.336 c 1.336,-1.241 1.591,-1.536 1.336,-1.536 -0.055,0 -0.702,0.646 -1.436,1.436 m 63.618,-0.521 c 0.42,0.081 1.028,0.078 1.351,-0.007 0.323,-0.084 -0.021,-0.151 -0.764,-0.147 -0.743,0.004 -1.008,0.073 -0.587,0.154 m 3.543,-0.006 c 0.325,0.085 0.857,0.085 1.183,0 0.325,-0.085 0.059,-0.155 -0.592,-0.155 -0.65,0 -0.916,0.07 -0.591,0.155 m 12.416,4.602 c 0,0.059 0.494,0.553 1.098,1.098 l 1.098,0.993 -0.993,-1.098 c -0.925,-1.024 -1.203,-1.254 -1.203,-0.993 m 129.392,2.015 c 0,0.051 1.178,1.229 2.618,2.618 l 2.618,2.525 -2.525,-2.618 c -2.346,-2.432 -2.711,-2.772 -2.711,-2.525 m -172.973,1.934 c -0.651,0.356 -1.061,0.654 -0.913,0.661 0.358,0.019 2.264,-0.972 2.264,-1.177 0,-0.221 -0.02,-0.213 -1.351,0.516 m 47.973,0.443 c 0,0.058 0.494,0.553 1.097,1.098 l 1.098,0.993 -0.992,-1.098 c -0.925,-1.024 -1.203,-1.254 -1.203,-0.993 m 148.727,8.341 c 0,0.65 0.069,0.916 0.154,0.591 0.085,-0.325 0.085,-0.857 0,-1.183 -0.085,-0.325 -0.154,-0.059 -0.154,0.592 m -214.782,3.8 -3.033,3.125 3.125,-3.033 c 2.902,-2.818 3.278,-3.217 3.033,-3.217 -0.05,0 -1.456,1.406 -3.125,3.125 m 89.782,-2.111 c 0,0.65 0.069,0.916 0.154,0.591 0.085,-0.325 0.085,-0.857 0,-1.182 -0.085,-0.326 -0.154,-0.06 -0.154,0.591 m 0.337,2.702 c 0,0.651 0.07,0.917 0.155,0.592 0.085,-0.325 0.085,-0.858 0,-1.183 -0.085,-0.325 -0.155,-0.059 -0.155,0.591 m -17.56,1.859 c 0.003,0.743 0.073,1.007 0.153,0.587 0.081,-0.42 0.078,-1.029 -0.006,-1.352 -0.085,-0.323 -0.151,0.021 -0.147,0.765 m -91.585,0.014 c -0.566,1.242 -0.458,1.507 0.154,0.378 0.286,-0.527 0.457,-1.022 0.379,-1.099 -0.077,-0.078 -0.317,0.247 -0.533,0.721 m 233.814,1.337 c 0.004,0.743 0.073,1.007 0.154,0.587 0.081,-0.42 0.078,-1.028 -0.007,-1.351 -0.084,-0.323 -0.15,0.021 -0.147,0.764 M 75.731,88.021 c -0.566,1.243 -0.458,1.508 0.154,0.378 0.285,-0.527 0.456,-1.022 0.379,-1.099 -0.078,-0.077 -0.317,0.247 -0.533,0.721 m 257.793,2.182 c 0,0.65 0.07,0.916 0.155,0.591 0.085,-0.325 0.085,-0.857 0,-1.183 -0.085,-0.325 -0.155,-0.059 -0.155,0.592 m 0.364,3.547 c 0.002,1.115 0.065,1.53 0.141,0.923 0.075,-0.607 0.073,-1.519 -0.004,-2.027 -0.077,-0.508 -0.138,-0.011 -0.137,1.104 m -151.37,1.014 c 0.003,0.743 0.073,1.007 0.153,0.587 0.081,-0.42 0.078,-1.029 -0.006,-1.352 -0.085,-0.323 -0.151,0.021 -0.147,0.765 m 17.567,0 c 0.004,0.743 0.073,1.007 0.154,0.587 0.081,-0.42 0.078,-1.029 -0.007,-1.352 -0.084,-0.323 -0.151,0.021 -0.147,0.765 m 97.55,-0.739 c 0,0.058 0.494,0.552 1.098,1.098 l 1.098,0.992 -0.992,-1.098 c -0.925,-1.024 -1.204,-1.253 -1.204,-0.992 M 87.168,95.946 c -0.008,0.464 -0.107,1.187 -0.219,1.605 -0.112,0.418 -0.051,0.76 0.135,0.76 0.455,0 0.75,-2.065 0.387,-2.703 -0.219,-0.384 -0.292,-0.302 -0.303,0.338 m 112.573,1.689 c 0,0.65 0.069,0.917 0.154,0.591 0.085,-0.325 0.085,-0.857 0,-1.182 -0.085,-0.325 -0.154,-0.059 -0.154,0.591 m -81.262,3.511 c -0.139,0.352 -0.172,0.719 -0.075,0.817 0.308,0.308 0.579,-0.197 0.45,-0.839 -0.118,-0.588 -0.136,-0.586 -0.375,0.022 m 229.235,0.543 c 0,0.651 0.069,0.917 0.154,0.591 0.085,-0.325 0.085,-0.857 0,-1.182 -0.085,-0.325 -0.154,-0.059 -0.154,0.591 m -13.826,2.196 c 0.002,1.115 0.065,1.53 0.141,0.923 0.075,-0.607 0.073,-1.519 -0.004,-2.027 -0.077,-0.508 -0.138,-0.011 -0.137,1.104 m -235.492,1.351 c 0.004,0.744 0.073,1.008 0.154,0.588 0.081,-0.42 0.077,-1.029 -0.007,-1.352 -0.085,-0.323 -0.151,0.021 -0.147,0.764 m 235.128,2.872 c 0,0.65 0.07,0.916 0.155,0.591 0.085,-0.325 0.085,-0.857 0,-1.182 -0.085,-0.325 -0.155,-0.059 -0.155,0.591 m -235.128,2.196 c 0.004,0.743 0.073,1.008 0.154,0.587 0.081,-0.42 0.077,-1.028 -0.007,-1.351 -0.085,-0.323 -0.151,0.021 -0.147,0.764 m 49.662,2.365 c 0.004,0.743 0.073,1.007 0.154,0.587 0.081,-0.42 0.078,-1.028 -0.007,-1.351 -0.084,-0.323 -0.151,0.021 -0.147,0.764 m 44.678,0.344 c 0.372,0.302 0.98,0.699 1.352,0.882 l 0.676,0.331 -0.676,-0.55 c -0.372,-0.302 -0.98,-0.699 -1.352,-0.882 l -0.675,-0.331 0.675,0.55 m 154.978,0.501 c 0,0.65 0.069,0.916 0.154,0.591 0.085,-0.325 0.085,-0.858 0,-1.183 -0.085,-0.325 -0.154,-0.059 -0.154,0.592 m -199.261,8.277 c -0.001,3.716 0.049,5.282 0.109,3.48 0.061,-1.801 0.061,-4.842 10e-4,-6.756 -0.06,-1.915 -0.11,-0.441 -0.11,3.276 m 28.629,-5.054 c -0.566,1.243 -0.458,1.508 0.154,0.378 0.286,-0.527 0.456,-1.022 0.379,-1.099 -0.077,-0.077 -0.317,0.247 -0.533,0.721 m -66.453,3.618 -1.676,1.773 1.773,-1.676 c 0.976,-0.922 1.774,-1.72 1.774,-1.774 0,-0.252 -0.313,0.029 -1.871,1.677 m -31.444,0.433 c -0.308,0.47 -0.499,0.916 -0.424,0.991 0.075,0.075 0.393,-0.309 0.706,-0.855 0.697,-1.215 0.49,-1.315 -0.282,-0.136 m 156.819,9.135 c -0.124,0.495 -0.161,0.965 -0.081,1.045 0.079,0.079 0.246,-0.261 0.37,-0.756 0.125,-0.495 0.161,-0.965 0.082,-1.045 -0.08,-0.079 -0.247,0.261 -0.371,0.756 m -87.939,0.82 c 0,0.836 0.066,1.178 0.146,0.76 0.081,-0.418 0.081,-1.102 0,-1.52 -0.08,-0.418 -0.146,-0.076 -0.146,0.76 m -99.269,1.098 -0.992,1.098 1.061,-0.956 c 0.771,-0.696 1.109,-0.834 1.24,-0.507 0.12,0.302 0.188,0.255 0.206,-0.142 0.04,-0.872 -0.402,-0.725 -1.515,0.507 m 110.755,0.254 c 0,0.836 0.066,1.178 0.147,0.76 0.08,-0.418 0.08,-1.102 0,-1.521 -0.081,-0.418 -0.147,-0.076 -0.147,0.761 m -98.93,0.76 -0.993,1.098 1.098,-0.993 c 1.024,-0.924 1.254,-1.203 0.993,-1.203 -0.059,0 -0.553,0.494 -1.098,1.098 m 157.363,0.253 c 0,0.65 0.069,0.916 0.154,0.591 0.085,-0.325 0.085,-0.857 0,-1.182 -0.085,-0.325 -0.154,-0.059 -0.154,0.591 m -58.09,3.21 c 0.002,0.929 0.068,1.269 0.146,0.755 0.077,-0.513 0.075,-1.274 -0.005,-1.689 -0.08,-0.416 -0.144,0.005 -0.141,0.934 m -62.023,0.284 c -0.095,0.249 -0.057,0.642 0.086,0.873 0.256,0.413 0.692,-0.226 0.692,-1.016 0,-0.475 -0.581,-0.369 -0.778,0.143 m -23.737,3.347 -0.992,1.098 1.098,-0.992 c 0.604,-0.546 1.098,-1.04 1.098,-1.098 0,-0.261 -0.279,-0.031 -1.204,0.992 m -8.299,4.561 c -0.419,0.535 -0.407,0.548 0.124,0.131 0.322,-0.253 0.824,-0.369 1.115,-0.257 0.304,0.117 0.441,0.061 0.322,-0.131 -0.319,-0.516 -1.048,-0.396 -1.561,0.257 m -19.239,3.351 -0.819,0.902 0.918,-0.648 c 0.506,-0.357 0.924,-0.763 0.93,-0.902 0.017,-0.416 -0.168,-0.299 -1.029,0.648 m 17.685,0.788 c 0,0.836 0.066,1.178 0.147,0.76 0.08,-0.418 0.08,-1.102 0,-1.52 -0.081,-0.419 -0.147,-0.076 -0.147,0.76 m 12.07,-0.676 c -0.65,0.356 -1.061,0.654 -0.912,0.661 0.358,0.019 2.264,-0.972 2.264,-1.176 0,-0.222 -0.02,-0.214 -1.352,0.515 M 205.912,150 c 1.291,1.301 2.423,2.365 2.516,2.365 0.093,0 -0.887,-1.064 -2.178,-2.365 -1.291,-1.301 -2.423,-2.365 -2.516,-2.365 -0.093,0 0.887,1.064 2.178,2.365 m 129.561,-1.014 c -0.397,0.558 -0.646,1.014 -0.553,1.014 0.093,0 0.494,-0.456 0.891,-1.014 0.397,-0.557 0.645,-1.013 0.553,-1.013 -0.093,0 -0.494,0.456 -0.891,1.013 m -288.392,2.365 c 0,1.766 0.057,2.488 0.127,1.605 0.069,-0.883 0.069,-2.327 0,-3.209 -0.07,-0.883 -0.127,-0.161 -0.127,1.604 m 29.723,-0.784 c 0.613,0.726 0.608,0.743 -0.422,1.275 -0.574,0.297 -1.044,0.616 -1.044,0.709 0,0.239 1.946,-0.796 2.166,-1.152 0.101,-0.162 -0.156,-0.582 -0.569,-0.932 l -0.753,-0.636 0.622,0.736 m 67.646,0.302 c -0.124,0.495 -0.161,0.965 -0.081,1.045 0.079,0.079 0.246,-0.261 0.37,-0.756 0.125,-0.495 0.161,-0.965 0.082,-1.045 -0.08,-0.079 -0.247,0.261 -0.371,0.756 m -99.518,0.164 c 0,0.197 -0.152,0.264 -0.337,0.149 -0.189,-0.116 -0.334,0.136 -0.327,0.572 0.01,0.758 0.024,0.762 0.506,0.124 0.497,-0.656 0.645,-1.202 0.327,-1.202 -0.093,0 -0.169,0.161 -0.169,0.357 m 298.35,1.389 c -0.021,0.31 -0.126,0.842 -0.233,1.182 -0.184,0.587 -0.174,0.588 0.191,0.017 0.213,-0.331 0.318,-0.863 0.234,-1.182 -0.137,-0.523 -0.156,-0.525 -0.192,-0.017 m -12.877,2.814 c -0.82,0.837 -1.416,1.521 -1.323,1.521 0.093,0 0.841,-0.684 1.661,-1.521 0.821,-0.836 1.416,-1.52 1.323,-1.52 -0.093,0 -0.84,0.684 -1.661,1.52 M 69.406,155.218 c 0.36,0.289 0.893,0.513 1.182,0.499 0.455,-0.023 0.458,-0.053 0.02,-0.215 -0.279,-0.103 -0.811,-0.328 -1.182,-0.499 -0.665,-0.306 -0.666,-0.302 -0.02,0.215 m 99.833,2.806 -1.165,1.267 1.267,-1.165 c 0.697,-0.64 1.267,-1.21 1.267,-1.267 0,-0.258 -0.286,-0.015 -1.369,1.165 m 60.907,0.422 c 0,0.65 0.069,0.916 0.154,0.591 0.085,-0.325 0.085,-0.857 0,-1.182 -0.085,-0.325 -0.154,-0.059 -0.154,0.591 m 96.187,0.929 -1.164,1.267 1.267,-1.164 c 1.179,-1.084 1.422,-1.37 1.164,-1.37 -0.056,0 -0.627,0.57 -1.267,1.267 m -161.468,3.294 c -0.821,0.836 -1.416,1.52 -1.323,1.52 0.093,0 0.84,-0.684 1.661,-1.52 0.82,-0.836 1.416,-1.52 1.323,-1.52 -0.093,0 -0.841,0.684 -1.661,1.52 M 305.236,162.5 c -0.288,0.557 -0.448,1.014 -0.355,1.014 0.093,0 0.405,-0.457 0.693,-1.014 0.289,-0.557 0.448,-1.014 0.356,-1.014 -0.093,0 -0.405,0.457 -0.694,1.014 m -144.953,4.476 -0.992,1.098 1.098,-0.992 c 1.023,-0.925 1.253,-1.204 0.992,-1.204 -0.058,0 -0.552,0.494 -1.098,1.098 m 68.9,9.206 c 0.001,2.23 0.055,3.098 0.122,1.93 0.066,-1.169 0.065,-2.993 -0.002,-4.054 -0.067,-1.061 -0.121,-0.105 -0.12,2.124 m 65.559,-0.084 -0.992,1.098 1.098,-0.992 c 0.604,-0.546 1.098,-1.04 1.098,-1.098 0,-0.261 -0.279,-0.031 -1.204,0.992 m -104.539,1.287 c 0,0.197 -0.19,0.248 -0.423,0.115 -0.232,-0.134 -0.303,-0.113 -0.159,0.046 0.145,0.159 -0.767,1.361 -2.026,2.672 -2.168,2.256 -2.142,2.24 0.497,-0.311 2.954,-2.857 2.973,-2.88 2.449,-2.88 -0.186,0 -0.338,0.161 -0.338,0.358 m 136.148,2.176 c -1.384,1.393 -2.441,2.534 -2.348,2.534 0.093,0 1.302,-1.141 2.686,-2.534 1.384,-1.394 2.441,-2.534 2.348,-2.534 -0.093,0 -1.301,1.14 -2.686,2.534 m -97.758,6.25 c 0.488,1.986 1.112,2.666 1.084,1.182 -0.014,-0.743 -0.101,-1.053 -0.194,-0.689 -0.147,0.579 -0.227,0.537 -0.633,-0.338 -0.386,-0.83 -0.43,-0.857 -0.257,-0.155 m 34.752,4.392 c -0.426,0.183 -0.489,0.29 -0.169,0.29 0.278,0 0.81,-0.131 1.182,-0.29 0.426,-0.183 0.488,-0.291 0.169,-0.291 -0.279,0 -0.811,0.131 -1.182,0.291 m -97.136,3.631 -2.864,2.957 2.956,-2.865 c 2.745,-2.66 3.11,-3.048 2.864,-3.048 -0.051,0 -1.381,1.331 -2.956,2.956 m 63.605,2.007 c 0.325,0.085 0.857,0.085 1.183,0 0.325,-0.085 0.059,-0.155 -0.592,-0.155 -0.65,0 -0.916,0.07 -0.591,0.155 m 32.939,7.1 c 0.418,0.081 1.103,0.081 1.521,0 0.418,-0.08 0.076,-0.146 -0.76,-0.146 -0.837,0 -1.179,0.066 -0.761,0.146 m -3.542,0.342 c 0.513,0.078 1.273,0.076 1.689,-0.005 0.415,-0.08 -0.005,-0.143 -0.934,-0.141 -0.929,0.003 -1.269,0.068 -0.755,0.146 m -4.224,0.334 c 0.42,0.081 1.028,0.078 1.351,-0.006 0.323,-0.085 -0.02,-0.151 -0.764,-0.147 -0.743,0.003 -1.007,0.073 -0.587,0.153 m -6.081,0.338 c 0.42,0.081 1.028,0.078 1.351,-0.007 0.323,-0.084 -0.021,-0.15 -0.764,-0.147 -0.743,0.004 -1.007,0.073 -0.587,0.154 m -7.774,0.337 c 0.418,0.081 1.102,0.081 1.52,0 0.418,-0.08 0.076,-0.146 -0.76,-0.146 -0.836,0 -1.178,0.066 -0.76,0.146 m -8.778,0.345 c 0.607,0.075 1.519,0.073 2.027,-0.004 0.508,-0.077 0.011,-0.138 -1.104,-0.136 -1.115,10e-4 -1.53,0.065 -0.923,0.14 m -57.925,1.951 c 0.002,1.115 0.065,1.53 0.14,0.923 0.075,-0.607 0.074,-1.52 -0.003,-2.027 -0.077,-0.508 -0.139,-0.011 -0.137,1.104 m 6.314,-1.352 c -0.464,0.266 -0.692,0.483 -0.507,0.483 0.186,0 0.718,-0.217 1.183,-0.483 0.464,-0.265 0.692,-0.482 0.507,-0.482 -0.186,0 -0.718,0.217 -1.183,0.482 m 44.51,-0.259 c 0.79,0.071 2.082,0.071 2.872,0 0.79,-0.071 0.144,-0.129 -1.436,-0.129 -1.579,0 -2.225,0.058 -1.436,0.129 m -5.737,0.335 c 0.607,0.076 1.52,0.074 2.027,-0.003 0.508,-0.077 0.011,-0.139 -1.104,-0.137 -1.115,0.002 -1.53,0.065 -0.923,0.14 m -5.242,0.326 c 0.325,0.085 0.857,0.085 1.182,0 0.325,-0.085 0.059,-0.154 -0.591,-0.154 -0.65,0 -0.917,0.069 -0.591,0.154 m -11.644,6.436 c 0.981,0.068 2.502,0.068 3.378,-0.002 0.876,-0.069 0.073,-0.125 -1.785,-0.124 -1.858,0.001 -2.575,0.057 -1.593,0.126 m -18.963,2.057 c -0.658,0.727 -0.711,1.072 -0.165,1.072 0.217,0 0.293,-0.102 0.168,-0.226 -0.124,-0.125 0.026,-0.505 0.334,-0.845 0.308,-0.34 0.484,-0.618 0.391,-0.618 -0.093,0 -0.42,0.278 -0.728,0.617 m 36.772,1.41 c -0.594,0.255 -0.561,0.293 0.274,0.314 0.551,0.013 0.861,-0.118 0.74,-0.314 -0.115,-0.186 -0.238,-0.328 -0.274,-0.315 -0.035,0.014 -0.368,0.155 -0.74,0.315 m -50.691,12.922 -1.336,1.436 1.436,-1.336 c 1.335,-1.242 1.591,-1.536 1.335,-1.536 -0.055,0 -0.701,0.646 -1.435,1.436 m 14.475,8.361 c 0,1.022 0.063,1.44 0.141,0.929 0.077,-0.511 0.077,-1.347 0,-1.858 -0.078,-0.511 -0.141,-0.093 -0.141,0.929 m 0.007,4.054 c 0,1.208 0.061,1.702 0.136,1.098 0.075,-0.604 0.075,-1.592 0,-2.196 -0.075,-0.603 -0.136,-0.109 -0.136,1.098 m -20.603,5.068 c 0,1.394 0.06,1.964 0.133,1.267 0.073,-0.697 0.073,-1.837 0,-2.534 -0.073,-0.697 -0.133,-0.127 -0.133,1.267 m -0.157,7.855 c 0.255,0.325 0.597,0.591 0.761,0.591 0.163,0 0.284,-0.266 0.269,-0.591 -0.017,-0.376 -0.09,-0.433 -0.201,-0.155 -0.144,0.356 -0.278,0.356 -0.734,0 -0.499,-0.39 -0.509,-0.374 -0.095,0.155 m -16.631,25.85 c -0.088,0.143 0.435,0.203 1.162,0.134 0.728,-0.069 1.323,-0.186 1.323,-0.26 0,-0.251 -2.325,-0.133 -2.485,0.126 m -101.011,0.332 c -0.087,0.139 1.007,0.212 2.429,0.162 4.539,-0.161 5.06,-0.3 1.341,-0.358 -1.987,-0.032 -3.683,0.057 -3.77,0.196 m 19.037,-0.035 c 2.797,0.249 6.344,0.269 6.199,0.035 -0.087,-0.139 -1.783,-0.228 -3.77,-0.196 -1.986,0.031 -3.079,0.104 -2.429,0.161 m 34.966,-0.003 c 2.362,0.249 5.838,0.272 5.692,0.038 -0.086,-0.139 -1.631,-0.229 -3.431,-0.199 -1.801,0.03 -2.818,0.102 -2.261,0.161 m 104.781,0.038 c -0.087,0.139 0.779,0.211 1.923,0.159 3.725,-0.168 4.166,-0.303 1.171,-0.358 -1.615,-0.03 -3.007,0.06 -3.094,0.199 m 41.554,0 c -0.087,0.139 0.779,0.211 1.923,0.159 3.725,-0.168 4.166,-0.303 1.171,-0.358 -1.615,-0.03 -3.007,0.06 -3.094,0.199 m 76.807,-0.011 c 11.535,0.236 21.881,0.242 21.739,0.011 -0.087,-0.139 -6.039,-0.22 -13.229,-0.179 -7.189,0.041 -11.018,0.116 -8.51,0.168 m 8.615,6.177 -13.176,0.181 13.071,0.078 c 8.436,0.051 13.146,-0.041 13.281,-0.259 0.114,-0.186 0.161,-0.303 0.104,-0.26 -0.058,0.043 -6.034,0.16 -13.28,0.26 m -23.045,3.885 c 0.002,0.929 0.068,1.269 0.145,0.755 0.078,-0.513 0.076,-1.273 -0.004,-1.689 -0.08,-0.415 -0.144,0.005 -0.141,0.934 m 15.042,10.219 c 2.659,0.057 6.915,0.057 9.459,-10e-4 2.544,-0.057 0.368,-0.104 -4.835,-0.103 -5.202,0 -7.283,0.047 -4.624,0.104 m 16.342,6.334 c -0.213,0.466 -0.883,1.15 -1.491,1.521 -0.608,0.37 -0.935,0.674 -0.728,0.675 0.868,0.002 3.193,-2.454 2.746,-2.901 -0.078,-0.078 -0.315,0.239 -0.527,0.705 M 142.523,306.51 c 0.143,0.142 3.898,0.218 8.345,0.168 l 8.085,-0.091 -8.345,-0.169 c -4.59,-0.092 -8.228,-0.051 -8.085,0.092 m 115.479,2.527 c 3.193,0.055 8.514,0.055 11.824,0 3.31,-0.056 0.698,-0.101 -5.806,-0.101 -6.503,0 -9.211,0.045 -6.018,0.101 m 58.321,0 c 3.868,0.054 10.101,0.054 13.852,0 3.75,-0.055 0.585,-0.099 -7.033,-0.099 -7.618,0 -10.687,0.045 -6.819,0.099 m -191.154,5.49 c -0.724,1.172 6.411,1.585 7.29,0.422 0.381,-0.503 0.377,-0.528 -0.026,-0.169 -0.748,0.667 -7.231,0.589 -6.973,-0.084 0.219,-0.572 0.027,-0.684 -0.291,-0.169 m 79.523,0.775 c 0.148,0.147 1.548,0.222 3.11,0.166 l 2.84,-0.102 -3.11,-0.166 c -1.71,-0.091 -2.988,-0.046 -2.84,0.102 m 41.545,-0.011 c 0.141,0.141 6.861,0.217 14.932,0.169 l 14.676,-0.089 -14.933,-0.168 c -8.213,-0.093 -14.817,-0.054 -14.675,0.088 m -80.443,0.161 c 0.975,0.068 2.572,0.068 3.547,0 0.976,-0.068 0.178,-0.124 -1.773,-0.124 -1.951,0 -2.75,0.056 -1.774,0.124 m 150.146,0.004 c 3.658,0.054 9.739,0.054 13.514,0 3.775,-0.055 0.782,-0.099 -6.65,-0.099 -7.432,0 -10.521,0.044 -6.864,0.099 m -249.466,0.323 c 0.42,0.081 1.028,0.078 1.351,-0.006 0.323,-0.085 -0.021,-0.151 -0.764,-0.147 -0.743,0.003 -1.008,0.073 -0.587,0.153 m 17.229,0 c 0.421,0.081 1.029,0.078 1.352,-0.006 0.323,-0.085 -0.021,-0.151 -0.764,-0.147 -0.744,0.003 -1.008,0.073 -0.588,0.153"
       id="path2" />
    <path
       fill-rule="evenodd"
       fill="#747474"
       stroke="none"
       d="m 169.257,36.789 c -0.881,0.159 -1.034,0.273 -0.601,0.448 0.32,0.129 1.156,0.023 1.858,-0.234 1.328,-0.488 0.777,-0.582 -1.257,-0.214 m -39.95,1.62 c -0.325,0.085 -0.591,0.304 -0.591,0.487 0,0.183 -0.175,0.225 -0.39,0.092 -0.24,-0.149 -0.298,-0.093 -0.151,0.145 0.211,0.341 0.951,0.054 2.202,-0.855 0.177,-0.129 -0.3,-0.07 -1.07,0.131 m 38.007,6.756 c 0.325,0.085 0.857,0.085 1.183,0 0.325,-0.085 0.059,-0.154 -0.592,-0.154 -0.65,0 -0.916,0.069 -0.591,0.154 m 11.487,0 c 0.325,0.085 0.857,0.085 1.182,0 0.325,-0.085 0.059,-0.154 -0.591,-0.154 -0.65,0 -0.916,0.069 -0.591,0.154 m 10.135,2.703 c 0.325,0.085 0.857,0.085 1.182,0 0.325,-0.085 0.059,-0.154 -0.591,-0.154 -0.65,0 -0.916,0.069 -0.591,0.154 m 8.868,0.474 c -0.574,0.269 -0.535,0.297 0.261,0.188 0.516,-0.071 1.019,0.003 1.118,0.164 0.1,0.161 0.514,0.288 0.921,0.282 0.581,-0.008 0.631,-0.072 0.234,-0.297 -0.941,-0.532 -1.855,-0.654 -2.534,-0.337 m -75.268,1.791 c -0.48,0.445 -0.92,0.788 -0.978,0.761 -0.058,-0.027 -0.069,0.013 -0.024,0.088 0.045,0.076 -0.1,0.38 -0.322,0.676 -0.221,0.296 0.272,-0.07 1.096,-0.813 0.825,-0.744 1.565,-1.39 1.645,-1.436 0.08,-0.047 -0.009,-0.085 -0.199,-0.085 -0.189,0 -0.737,0.364 -1.218,0.809 m 137.06,2.654 c -0.638,0.754 -0.638,0.756 0.033,0.193 0.372,-0.313 1.36,-0.628 2.196,-0.702 l 1.52,-0.133 -1.553,-0.059 c -1.238,-0.047 -1.682,0.095 -2.196,0.701 M 187.5,57.264 c 1.009,1.021 1.911,1.858 2.004,1.858 0.093,0 -0.657,-0.837 -1.666,-1.858 -1.009,-1.022 -1.911,-1.859 -2.004,-1.859 -0.093,0 0.657,0.837 1.666,1.859 m 65.364,1.942 -2.695,2.787 2.787,-2.695 c 1.533,-1.482 2.787,-2.736 2.787,-2.787 0,-0.246 -0.376,0.106 -2.879,2.695 m -146.973,-1.351 -0.992,1.098 1.098,-0.993 c 1.023,-0.924 1.253,-1.203 0.992,-1.203 -0.058,0 -0.552,0.494 -1.098,1.098 m 209.856,-0.821 c -0.109,0.177 0.015,0.5 0.277,0.717 0.375,0.311 0.46,0.286 0.4,-0.121 -0.102,-0.697 -0.434,-0.989 -0.677,-0.596 m 3.679,3.101 c 1.103,1.115 2.082,2.027 2.174,2.027 0.093,0 -0.733,-0.912 -1.836,-2.027 -1.104,-1.115 -2.082,-2.027 -2.175,-2.027 -0.093,0 0.733,0.912 1.837,2.027 M 115.878,59.966 c -0.82,0.836 -1.416,1.52 -1.323,1.52 0.093,0 0.841,-0.684 1.661,-1.52 0.821,-0.836 1.416,-1.52 1.323,-1.52 -0.093,0 -0.84,0.684 -1.661,1.52 m -5.933,-0.084 -0.992,1.098 1.098,-0.993 c 1.023,-0.924 1.253,-1.203 0.992,-1.203 -0.058,0 -0.552,0.494 -1.098,1.098 m 47.065,2.525 c 0.604,0.074 1.592,0.074 2.196,0 0.604,-0.075 0.11,-0.137 -1.098,-0.137 -1.208,0 -1.702,0.062 -1.098,0.137 m 147.382,10.672 c 0,0.058 0.494,0.552 1.098,1.098 l 1.098,0.992 -0.992,-1.098 c -0.925,-1.024 -1.204,-1.253 -1.204,-0.992 m -194.435,10.451 -2.356,2.45 2.45,-2.356 c 2.275,-2.188 2.603,-2.543 2.355,-2.543 -0.051,0 -1.153,1.102 -2.449,2.449 m 215.144,0.254 c 0,1.022 0.064,1.44 0.141,0.929 0.077,-0.511 0.077,-1.347 0,-1.858 -0.077,-0.511 -0.141,-0.093 -0.141,0.929 m -142.252,3.04 c 0,0.651 0.069,0.917 0.154,0.592 0.085,-0.326 0.085,-0.858 0,-1.183 -0.085,-0.325 -0.154,-0.059 -0.154,0.591 m 17.274,2.534 c 0.001,1.858 0.058,2.575 0.126,1.594 0.069,-0.982 0.068,-2.502 -0.001,-3.379 -0.069,-0.876 -0.125,-0.073 -0.125,1.785 m -17.274,4.561 c 0,0.65 0.069,0.916 0.154,0.591 0.085,-0.325 0.085,-0.857 0,-1.182 -0.085,-0.325 -0.154,-0.059 -0.154,0.591 m -96.363,5.698 c 0,1.3 0.457,1.116 0.794,-0.321 0.149,-0.637 0.07,-0.873 -0.294,-0.873 -0.346,0 -0.5,0.366 -0.5,1.194 m 260.896,1.228 c 0.004,0.743 0.073,1.007 0.154,0.587 0.081,-0.42 0.078,-1.028 -0.007,-1.351 -0.084,-0.323 -0.15,0.02 -0.147,0.764 m 0.382,6.756 c 10e-4,2.23 0.055,3.098 0.122,1.93 0.066,-1.169 0.065,-2.993 -0.002,-4.054 -0.066,-1.062 -0.121,-0.105 -0.12,2.124 M 98.051,105.743 c 0,0.651 0.07,0.917 0.155,0.591 0.085,-0.325 0.085,-0.857 0,-1.182 -0.085,-0.325 -0.155,-0.059 -0.155,0.591 m 208.537,1.014 c 0.288,0.557 0.6,1.013 0.693,1.013 0.093,0 -0.067,-0.456 -0.355,-1.013 -0.289,-0.558 -0.6,-1.014 -0.693,-1.014 -0.093,0 0.067,0.456 0.355,1.014 m -208.537,2.702 c 0,0.651 0.07,0.917 0.155,0.592 0.085,-0.325 0.085,-0.858 0,-1.183 -0.085,-0.325 -0.155,-0.059 -0.155,0.591 m 249.331,4.899 c 0.004,0.743 0.073,1.008 0.154,0.587 0.081,-0.42 0.078,-1.028 -0.007,-1.351 -0.084,-0.323 -0.15,0.021 -0.147,0.764 m -198.648,7.433 c 0.004,0.743 0.073,1.007 0.154,0.587 0.08,-0.42 0.077,-1.029 -0.007,-1.352 -0.085,-0.323 -0.151,0.021 -0.147,0.765 m 69.925,5.236 c 0,0.65 0.07,0.916 0.155,0.591 0.085,-0.325 0.085,-0.857 0,-1.182 -0.085,-0.325 -0.155,-0.059 -0.155,0.591 m 93.608,2.196 c 0.002,1.115 0.065,1.53 0.14,0.923 0.075,-0.607 0.074,-1.519 -0.003,-2.027 -0.078,-0.508 -0.139,-0.011 -0.137,1.104 m -163.878,0.845 c 0,0.65 0.07,0.916 0.155,0.591 0.085,-0.325 0.085,-0.857 0,-1.183 -0.085,-0.325 -0.155,-0.059 -0.155,0.592 m 11.156,5.236 c 0.003,0.743 0.073,1.008 0.153,0.587 0.081,-0.42 0.078,-1.028 -0.006,-1.351 -0.085,-0.323 -0.151,0.021 -0.147,0.764 m 152.722,0.676 c 0.002,1.115 0.065,1.53 0.14,0.923 0.075,-0.607 0.074,-1.52 -0.003,-2.027 -0.078,-0.508 -0.139,-0.011 -0.137,1.104 m -94.367,0.575 c -0.09,1.06 -0.04,1.803 0.11,1.652 0.151,-0.151 0.224,-1.018 0.164,-1.927 l -0.11,-1.652 -0.164,1.927 m -137.072,0.164 c 0.325,0.085 0.857,0.085 1.182,0 0.325,-0.085 0.059,-0.154 -0.591,-0.154 -0.65,0 -0.916,0.069 -0.591,0.154 m 79.026,5.744 c -0.031,1.894 0.057,3.514 0.197,3.601 0.139,0.087 0.212,-0.931 0.161,-2.261 -0.166,-4.345 -0.3,-4.847 -0.358,-1.34 m -115.479,5.172 c 0,1.58 0.058,2.226 0.129,1.436 0.071,-0.79 0.071,-2.082 0,-2.872 -0.071,-0.789 -0.129,-0.143 -0.129,1.436 m 32.732,2.893 c 0.452,0.538 0.495,0.789 0.186,1.098 -0.221,0.221 -0.313,0.401 -0.206,0.401 0.765,0 0.885,-0.967 0.192,-1.553 -0.757,-0.641 -0.757,-0.641 -0.172,0.054 m 11.222,1.246 -1.336,1.435 1.436,-1.335 c 1.335,-1.242 1.591,-1.536 1.336,-1.536 -0.056,0 -0.702,0.646 -1.436,1.436 m 253.875,1.518 c -0.596,0.674 -0.628,0.766 -0.116,0.337 0.387,-0.325 0.805,-0.488 0.929,-0.364 0.125,0.124 0.226,-0.027 0.226,-0.337 0,-0.749 -0.081,-0.72 -1.039,0.364 m -177.521,9.292 -1.676,1.774 1.773,-1.676 c 0.976,-0.922 1.774,-1.721 1.774,-1.774 0,-0.252 -0.313,0.028 -1.871,1.676 m -104.379,0.953 c -0.55,0.217 -0.472,0.271 0.422,0.291 1.142,0.024 1.401,-0.129 0.676,-0.401 -0.232,-0.087 -0.726,-0.038 -1.098,0.11 m 168.835,5.889 c 0.004,0.743 0.073,1.007 0.154,0.587 0.081,-0.42 0.078,-1.028 -0.007,-1.351 -0.084,-0.323 -0.15,0.02 -0.147,0.764 m -0.326,6.756 c 0.002,0.929 0.068,1.269 0.146,0.756 0.077,-0.514 0.075,-1.274 -0.005,-1.689 -0.08,-0.416 -0.144,0.004 -0.141,0.933 m 97.699,2.957 -2.694,2.787 2.787,-2.695 c 2.588,-2.503 2.941,-2.88 2.695,-2.88 -0.051,0 -1.306,1.255 -2.788,2.788 m -137.323,-1.267 c -0.464,0.265 -0.698,0.488 -0.519,0.494 0.179,0.007 -0.429,0.811 -1.35,1.786 -1.225,1.296 -1.062,1.185 0.603,-0.413 2.699,-2.588 2.808,-2.749 1.266,-1.867 m 39.957,4.898 c 0,0.836 0.066,1.178 0.146,0.76 0.081,-0.418 0.081,-1.102 0,-1.52 -0.08,-0.418 -0.146,-0.076 -0.146,0.76 m -64.809,13.26 -0.992,1.098 1.098,-0.992 c 1.023,-0.925 1.253,-1.204 0.992,-1.204 -0.058,0 -0.552,0.495 -1.098,1.098 m 91.326,7.249 c 0.42,0.081 1.028,0.078 1.351,-0.006 0.323,-0.085 -0.021,-0.151 -0.764,-0.147 -0.743,0.003 -1.008,0.073 -0.587,0.153 m -5.066,0.344 c 0.607,0.075 1.52,0.074 2.027,-0.003 0.508,-0.077 0.011,-0.139 -1.104,-0.137 -1.115,0.002 -1.53,0.065 -0.923,0.14 m -21.961,1.008 c 0.42,0.081 1.028,0.078 1.351,-0.007 0.323,-0.085 -0.021,-0.151 -0.764,-0.147 -0.743,0.004 -1.008,0.073 -0.587,0.154 m -7.771,0.338 c 0.421,0.08 1.029,0.077 1.352,-0.007 0.323,-0.085 -0.021,-0.151 -0.764,-0.147 -0.744,0.004 -1.008,0.073 -0.588,0.154 m -5.911,0.341 c 0.514,0.078 1.274,0.076 1.689,-0.005 0.416,-0.08 -0.004,-0.143 -0.934,-0.141 -0.929,0.003 -1.269,0.068 -0.755,0.146 m -3.383,0.328 c 0.325,0.085 0.857,0.085 1.182,0 0.326,-0.085 0.059,-0.154 -0.591,-0.154 -0.65,0 -0.916,0.069 -0.591,0.154 m -12.669,6.763 c 0.418,0.08 1.102,0.08 1.52,0 0.418,-0.081 0.076,-0.147 -0.76,-0.147 -0.836,0 -1.178,0.066 -0.76,0.147 m 8.953,-0.006 c 0.325,0.085 0.857,0.085 1.182,0 0.325,-0.085 0.059,-0.154 -0.591,-0.154 -0.65,0 -0.916,0.069 -0.591,0.154 m 3.378,3.041 c 0.325,0.085 0.857,0.085 1.183,0 0.325,-0.085 0.059,-0.155 -0.592,-0.155 -0.65,0 -0.916,0.07 -0.591,0.155 m 5.237,0.005 c 0.418,0.081 1.102,0.081 1.52,0 0.418,-0.08 0.076,-0.146 -0.76,-0.146 -0.836,0 -1.178,0.066 -0.76,0.146 m -63.666,8.545 c 0,1.022 0.063,1.441 0.141,0.93 0.077,-0.511 0.077,-1.348 0,-1.859 -0.078,-0.511 -0.141,-0.092 -0.141,0.929 m 31.065,15.034 c 0.004,0.744 0.073,1.008 0.154,0.588 0.081,-0.421 0.077,-1.029 -0.007,-1.352 -0.085,-0.323 -0.151,0.021 -0.147,0.764 m -20.277,11.318 c 0,0.65 0.069,0.916 0.154,0.591 0.085,-0.325 0.085,-0.857 0,-1.182 -0.085,-0.326 -0.154,-0.059 -0.154,0.591 m 0.175,2.542 c -0.09,0.469 -0.031,0.934 0.13,1.033 0.161,0.1 0.292,-0.284 0.292,-0.853 0,-1.254 -0.2,-1.34 -0.422,-0.18 m 46.863,44.755 c 0,9.569 0.043,13.484 0.096,8.699 0.053,-4.784 0.053,-12.614 0,-17.398 -0.053,-4.785 -0.096,-0.87 -0.096,8.699 m 112.11,-2.788 c 2.566,0.058 6.671,0.058 9.121,0 2.451,-0.058 0.352,-0.105 -4.665,-0.105 -5.017,10e-4 -7.022,0.048 -4.456,0.105 m -177.47,11.47 c 7.124,0.24 13.775,0.249 13.631,0.017 -0.086,-0.139 -3.835,-0.222 -8.33,-0.183 -4.495,0.038 -6.88,0.113 -5.301,0.166 m 130.524,5.845 c 0,1.58 0.058,2.226 0.129,1.436 0.071,-0.79 0.071,-2.082 0,-2.872 -0.071,-0.789 -0.129,-0.143 -0.129,1.436 m 33.446,0 c 0,1.58 0.058,2.226 0.129,1.436 0.071,-0.79 0.071,-2.082 0,-2.872 -0.071,-0.789 -0.129,-0.143 -0.129,1.436"
       id="path3" />
    <path
       fill-rule="evenodd"
       fill="#7c7c7c"
       stroke="none"
       d="m 185.732,47.88 c 0.608,0.075 1.52,0.074 2.027,-0.003 0.508,-0.078 0.011,-0.139 -1.104,-0.137 -1.114,0.002 -1.53,0.065 -0.923,0.14 m -91.328,13.015 -0.992,1.098 1.098,-0.992 c 1.024,-0.925 1.253,-1.204 0.992,-1.204 -0.058,0 -0.552,0.494 -1.098,1.098 m 80.258,9.206 c 0.63,0.651 1.222,1.183 1.315,1.183 0.093,0 -0.347,-0.532 -0.977,-1.183 -0.63,-0.65 -1.222,-1.182 -1.315,-1.182 -0.093,0 0.347,0.532 0.977,1.182 m 159.245,28.717 c 0.001,1.858 0.058,2.575 0.126,1.593 0.069,-0.982 0.068,-2.502 -0.001,-3.378 -0.07,-0.877 -0.126,-0.074 -0.125,1.785 m -222.777,14.611 -1.164,1.267 1.267,-1.164 c 0.697,-0.641 1.267,-1.211 1.267,-1.267 0,-0.258 -0.286,-0.015 -1.37,1.164 m 201.129,19.172 c 0.002,0.929 0.068,1.269 0.146,0.756 0.077,-0.514 0.075,-1.274 -0.005,-1.689 -0.08,-0.416 -0.144,0.004 -0.141,0.933 m -98.656,82.844 c 0.513,0.078 1.273,0.076 1.689,-0.004 0.415,-0.081 -0.005,-0.144 -0.934,-0.142 -0.929,0.003 -1.269,0.068 -0.755,0.146 m -9.054,82.19 c 0,9.569 0.043,13.484 0.096,8.699 0.053,-4.784 0.053,-12.614 0,-17.398 -0.053,-4.785 -0.096,-0.87 -0.096,8.699 m 41.554,0 c 0,9.569 0.043,13.484 0.096,8.699 0.053,-4.784 0.053,-12.614 0,-17.398 -0.053,-4.785 -0.096,-0.87 -0.096,8.699 m 98.61,-14.527 c 0,1.58 0.058,2.226 0.129,1.436 0.071,-0.79 0.071,-2.082 0,-2.872 -0.071,-0.789 -0.129,-0.143 -0.129,1.436"
       id="path4" />
  </g>
</svg>
