<svg id="svg" version="1.1" xmlns="http://www.w3.org/2000/svg" xmlns:xlink="http://www.w3.org/1999/xlink" width="400" height="337.64102564102564" viewBox="0, 0, 400,337.64102564102564"><g id="svgg"><path id="path0" d="M164.020 37.827 C 160.385 38.472,153.096 40.128,152.633 40.415 C 152.477 40.511,151.099 40.949,149.570 41.387 C 146.511 42.264,142.844 43.586,140.629 44.609 C 139.841 44.973,139.110 45.270,139.003 45.270 C 138.684 45.270,133.806 47.684,130.912 49.274 C 125.554 52.217,120.515 55.819,116.976 59.236 C 114.998 61.146,114.527 61.463,114.527 60.884 C 114.527 59.195,116.047 56.920,119.735 53.087 C 122.453 50.262,121.898 50.400,117.645 53.606 C 111.086 58.549,105.382 64.222,100.550 70.608 C 94.608 78.459,89.013 90.287,87.480 98.235 C 86.690 102.330,86.230 101.226,86.853 96.731 C 89.744 75.865,104.890 54.042,125.279 41.363 C 130.671 38.009,128.541 38.571,120.101 42.728 C 101.435 51.923,86.803 66.483,77.822 84.799 C 75.022 90.511,71.959 97.739,71.959 98.637 C 71.959 98.853,71.667 99.742,71.311 100.613 C 70.099 103.569,67.846 112.192,66.571 118.750 C 64.472 129.549,62.249 133.473,57.050 135.555 C 51.420 137.808,49.213 136.873,49.785 132.475 L 49.988 130.912 48.960 132.095 C 46.340 135.110,45.019 139.533,44.724 146.284 L 44.525 150.845 45.658 149.010 C 47.357 146.257,47.460 146.409,47.520 151.774 C 47.550 154.422,47.740 157.348,47.942 158.277 C 48.144 159.206,48.554 161.219,48.853 162.751 C 49.389 165.496,50.000 166.200,50.000 164.071 C 50.000 160.475,52.612 154.737,55.574 151.826 C 58.346 149.102,58.774 149.015,60.106 150.905 C 62.035 153.642,65.530 154.699,64.651 152.280 C 63.830 150.019,63.911 146.983,64.833 145.491 C 66.086 143.464,66.478 143.429,68.915 145.125 L 71.068 146.623 71.616 144.511 C 72.809 139.907,77.096 136.486,81.672 136.486 L 82.529 136.486 82.347 139.146 C 82.051 143.464,79.966 146.806,76.639 148.296 L 75.296 148.897 76.670 149.985 C 77.426 150.583,77.949 151.226,77.834 151.413 C 77.548 151.875,73.685 153.585,71.339 154.287 L 69.426 154.860 71.199 155.350 C 72.175 155.620,72.973 155.959,72.973 156.104 C 72.973 157.039,67.429 160.728,63.514 162.399 C 60.588 163.647,60.822 163.707,65.784 162.980 C 78.995 161.044,90.404 152.561,96.745 139.958 C 97.420 138.615,97.973 137.459,97.973 137.389 C 97.973 137.318,96.948 138.296,95.695 139.562 C 93.432 141.847,92.402 142.181,93.335 140.326 C 93.908 139.188,95.507 132.724,95.866 130.096 C 96.091 128.447,96.217 128.234,97.129 127.950 C 106.107 125.156,112.199 120.174,115.728 112.743 C 116.842 110.398,118.826 102.835,118.432 102.441 C 118.328 102.337,118.243 102.468,118.243 102.731 C 118.242 104.671,114.237 110.745,110.883 113.896 C 103.877 120.475,98.696 118.638,98.086 109.359 C 97.042 93.466,111.303 77.514,134.966 68.106 C 137.196 67.220,139.499 66.280,140.085 66.017 C 140.670 65.755,141.285 65.541,141.450 65.541 C 141.615 65.541,143.121 65.096,144.797 64.553 C 158.052 60.257,166.499 61.816,174.850 70.101 C 182.787 77.976,184.991 87.256,182.104 100.642 C 181.165 104.995,181.080 104.729,184.037 106.679 C 185.477 107.629,188.556 109.706,190.878 111.295 C 195.732 114.615,195.470 114.573,196.284 112.153 C 205.024 86.169,197.823 60.792,178.792 50.508 C 177.812 49.979,177.063 49.382,177.129 49.181 C 177.506 48.030,186.194 47.482,194.590 48.081 C 199.582 48.436,199.255 48.203,193.046 46.978 C 181.944 44.788,167.803 44.337,160.031 45.925 C 154.263 47.103,151.616 47.752,149.590 48.483 C 146.214 49.700,145.824 49.566,147.706 47.832 C 151.644 44.206,159.066 40.420,166.976 38.001 C 170.356 36.968,169.236 36.902,164.020 37.827 M253.907 58.530 C 231.283 81.230,218.243 109.153,218.243 134.896 C 218.243 138.967,218.226 138.973,214.798 136.230 C 213.234 134.977,211.073 133.269,209.997 132.432 C 208.921 131.596,207.161 130.228,206.086 129.392 C 205.011 128.556,202.732 126.807,201.022 125.507 C 197.628 122.926,193.459 119.743,187.305 115.034 C 185.120 113.361,182.735 111.499,182.006 110.895 C 180.420 109.582,180.286 109.637,179.536 111.913 C 178.256 115.801,172.570 127.086,169.063 132.698 C 164.784 139.547,160.136 146.330,160.005 145.917 C 159.922 145.654,159.767 142.627,159.661 139.189 C 159.087 120.544,153.801 102.080,144.725 87.021 C 142.926 84.037,142.535 84.056,143.553 87.079 C 144.254 89.159,146.429 97.906,146.767 100.000 C 148.077 108.133,148.374 110.683,148.606 115.810 C 149.778 141.690,140.925 171.149,127.310 186.668 L 126.182 187.953 127.196 187.704 C 131.061 186.758,144.406 179.305,150.845 174.497 C 163.301 165.196,177.071 150.120,185.094 137.001 C 186.362 134.928,186.412 134.905,187.939 135.693 C 196.394 140.055,209.413 151.921,215.798 161.085 C 220.154 167.337,225.457 176.731,227.505 181.827 C 229.407 186.556,229.417 186.569,229.181 184.130 C 228.599 178.097,229.356 161.485,230.561 153.866 C 232.670 140.525,236.942 124.603,240.526 116.723 C 240.695 116.351,241.436 114.601,242.174 112.834 C 246.843 101.646,254.202 88.653,260.856 79.849 C 263.987 75.706,263.541 75.933,267.078 76.685 C 300.873 83.875,319.411 115.668,310.122 150.507 C 303.180 176.543,286.244 187.937,245.608 193.905 C 243.100 194.274,239.527 194.817,237.669 195.113 C 235.811 195.409,231.858 195.938,228.885 196.289 C 196.839 200.071,178.021 204.570,175.640 209.019 C 173.793 212.471,173.829 203.716,175.685 198.309 C 177.240 193.779,178.287 191.766,181.656 186.824 C 182.475 185.623,185.658 181.872,187.462 179.983 C 189.687 177.653,188.973 177.925,182.095 182.027 C 156.978 197.004,147.785 217.143,155.930 239.343 C 157.463 243.519,162.843 253.378,163.590 253.378 C 163.641 253.379,163.682 250.376,163.682 246.706 C 163.682 233.694,168.159 226.430,178.096 223.315 C 181.352 222.294,182.099 222.378,181.400 223.684 C 180.030 226.245,180.030 231.218,181.402 236.486 C 181.733 237.758,183.676 242.865,183.943 243.167 C 183.988 243.218,184.031 241.393,184.039 239.113 C 184.090 223.393,194.205 215.497,214.414 215.401 C 217.790 215.385,220.526 215.346,220.495 215.316 C 220.464 215.285,219.433 214.881,218.203 214.419 C 210.792 211.630,197.971 211.672,186.552 214.522 C 182.205 215.608,181.941 215.425,184.628 213.189 C 190.622 208.203,202.896 205.611,224.662 204.733 C 259.499 203.329,273.009 202.163,287.185 199.335 C 313.219 194.143,332.452 178.890,342.032 155.838 C 343.191 153.050,343.138 152.802,341.639 153.973 C 337.772 156.993,331.562 160.037,325.511 161.877 C 322.684 162.737,322.422 162.661,323.890 161.409 C 332.443 154.115,341.125 141.697,343.263 133.701 C 343.474 132.910,343.776 132.106,343.934 131.913 C 345.533 129.957,347.441 116.967,347.455 107.939 C 347.470 97.760,346.495 89.910,345.823 94.812 C 344.482 104.597,337.607 119.907,331.769 126.109 C 329.345 128.685,329.065 128.491,330.053 124.917 C 337.393 98.342,333.841 75.089,320.295 61.037 C 316.153 56.741,314.952 55.957,317.149 58.984 C 325.067 69.891,327.294 84.222,323.173 97.735 C 322.029 101.484,321.891 101.520,320.620 98.396 C 313.433 80.724,301.086 66.934,285.473 59.140 C 277.753 55.286,267.485 52.365,261.658 52.365 L 260.051 52.365 253.907 58.530 M84.096 121.065 C 83.233 124.506,82.491 125.338,78.942 126.846 C 76.225 128.001,76.093 127.919,76.966 125.615 C 78.991 120.272,79.198 119.980,81.848 118.749 C 84.883 117.338,85.000 117.459,84.096 121.065 M146.527 280.407 C 146.053 280.780,142.061 287.127,137.655 294.512 C 133.250 301.897,129.310 308.471,128.900 309.122 C 128.490 309.772,127.773 310.912,127.305 311.655 C 126.837 312.399,126.200 313.501,125.888 314.105 L 125.320 315.203 128.666 315.203 L 132.011 315.203 134.134 311.571 C 135.302 309.573,137.120 306.495,138.173 304.730 C 139.226 302.965,141.345 299.392,142.882 296.791 C 144.418 294.189,146.149 291.261,146.729 290.284 C 147.308 289.306,147.939 288.557,148.131 288.620 C 148.461 288.727,155.668 300.570,155.719 301.089 C 155.732 301.224,153.370 301.376,150.469 301.427 L 145.194 301.520 143.866 303.716 L 142.539 305.912 150.691 306.081 L 158.843 306.250 161.473 310.642 L 164.103 315.034 167.706 315.130 L 171.309 315.226 170.614 313.947 C 170.232 313.244,167.656 308.944,164.890 304.392 C 162.124 299.840,157.778 292.654,155.233 288.423 C 149.749 279.310,148.907 278.535,146.527 280.407 M46.221 280.243 C 46.112 280.352,48.031 284.120,50.485 288.616 C 52.940 293.112,55.869 298.539,56.995 300.676 C 64.073 314.108,65.026 315.541,66.895 315.541 C 69.057 315.541,69.366 315.229,71.827 310.573 C 74.709 305.120,75.505 303.724,75.735 303.720 C 75.860 303.718,77.076 305.865,78.438 308.490 C 83.825 318.884,84.692 318.642,92.244 304.648 C 95.078 299.398,99.199 291.786,101.401 287.735 C 103.603 283.683,105.405 280.300,105.405 280.218 C 105.405 280.135,103.979 280.068,102.235 280.068 C 98.473 280.068,99.422 279.034,94.325 288.682 C 92.264 292.584,89.293 298.204,87.722 301.171 C 86.152 304.137,84.714 306.616,84.526 306.678 C 84.338 306.741,81.167 300.780,77.480 293.433 L 70.777 280.073 67.314 280.070 C 65.410 280.069,63.851 280.160,63.851 280.273 C 63.851 280.455,66.460 285.532,71.221 294.615 L 72.736 297.507 70.236 302.121 C 68.861 304.659,67.569 306.741,67.365 306.746 C 67.161 306.752,65.144 303.222,62.884 298.902 C 60.623 294.582,57.498 288.615,55.938 285.642 L 53.102 280.236 49.760 280.141 C 47.922 280.088,46.329 280.134,46.221 280.243 M204.730 297.635 L 204.730 315.203 207.601 315.203 L 210.473 315.203 210.473 297.635 L 210.473 280.068 207.601 280.068 L 204.730 280.068 204.730 297.635 M246.284 297.622 L 246.284 315.203 260.980 315.203 L 275.676 315.203 275.676 312.162 L 275.676 309.122 264.024 309.122 L 252.372 309.122 252.284 294.679 L 252.196 280.236 249.240 280.139 L 246.284 280.041 246.284 297.622 M316.986 280.409 C 307.510 281.793,305.814 294.842,314.592 298.832 L 316.723 299.800 327.592 299.985 L 338.461 300.169 339.335 300.992 C 340.917 302.479,341.212 305.418,339.970 307.314 C 338.822 309.066,338.311 309.122,323.344 309.122 L 309.459 309.122 309.459 312.184 L 309.459 315.247 324.240 315.141 L 339.020 315.034 340.878 314.068 C 348.447 310.135,348.172 298.147,340.452 295.525 C 339.800 295.304,334.963 295.075,328.487 294.958 C 318.140 294.773,317.569 294.729,316.662 294.056 C 314.661 292.569,314.442 289.375,316.206 287.401 L 317.174 286.318 330.884 286.222 L 344.595 286.127 344.595 283.097 L 344.595 280.068 331.672 280.110 C 324.565 280.133,317.956 280.268,316.986 280.409 " stroke="none" fill="#211a20" fill-rule="evenodd"></path><path id="path1" d="M0.000 168.919 L 0.000 337.838 200.000 337.838 L 400.000 337.838 400.000 168.919 L 400.000 0.000 200.000 0.000 L 0.000 0.000 0.000 168.919 M171.959 36.865 C 164.380 39.179,162.768 39.713,160.642 40.614 C 155.757 42.684,151.044 45.395,148.142 47.804 C 146.853 48.874,146.873 48.872,151.789 47.485 C 165.299 43.672,182.156 43.727,197.631 47.634 C 204.831 49.452,204.533 49.631,195.936 48.653 C 188.886 47.851,184.099 47.795,180.555 48.473 C 177.973 48.967,177.181 49.290,177.907 49.551 C 181.680 50.911,189.625 58.229,193.202 63.640 C 200.750 75.057,202.486 92.676,197.652 108.784 C 197.289 109.992,196.779 111.740,196.519 112.669 C 195.903 114.863,195.547 114.881,192.546 112.863 C 183.137 106.538,180.919 104.956,180.971 104.612 C 181.003 104.398,181.260 103.159,181.542 101.858 C 182.789 96.097,183.000 88.506,182.078 82.560 C 180.734 73.889,169.883 63.783,160.939 62.872 C 144.921 61.241,113.375 76.266,105.196 89.421 C 104.871 89.944,104.333 90.681,104.001 91.059 C 98.326 97.519,96.571 113.291,101.147 116.704 C 105.190 119.720,114.457 112.170,117.731 103.194 C 118.888 100.021,119.001 100.120,118.551 103.909 C 117.223 115.086,110.364 123.513,99.340 127.513 L 96.485 128.549 95.587 133.144 C 95.093 135.671,94.417 138.448,94.086 139.316 C 93.755 140.184,93.557 140.967,93.646 141.056 C 93.855 141.265,97.805 137.158,98.041 136.486 C 98.138 136.208,98.342 136.096,98.494 136.237 C 99.309 136.999,94.134 145.764,90.357 150.016 C 82.835 158.486,70.138 164.337,60.473 163.788 L 58.615 163.682 61.149 162.891 C 64.354 161.890,67.427 160.279,70.421 158.029 L 72.769 156.265 71.604 155.973 C 68.181 155.115,68.218 155.007,72.466 153.515 C 73.953 152.994,75.687 152.264,76.321 151.894 L 77.472 151.221 76.236 150.152 C 74.675 148.803,74.671 148.827,76.690 147.803 C 79.965 146.144,81.955 142.890,82.166 138.851 L 82.264 136.993 80.743 137.102 C 76.302 137.418,72.791 140.509,71.945 144.848 C 71.457 147.353,71.591 147.321,68.962 145.556 C 66.530 143.923,65.535 144.084,64.829 146.223 C 64.372 147.608,64.611 151.934,65.206 153.046 C 66.606 155.662,61.245 153.493,59.445 150.715 C 57.524 147.751,52.041 155.342,50.551 163.029 C 49.634 167.761,49.416 167.673,48.367 162.148 C 47.297 156.514,46.867 152.651,47.016 150.016 L 47.154 147.564 46.393 148.450 C 45.974 148.937,45.470 149.934,45.273 150.667 C 45.075 151.399,44.746 152.102,44.541 152.229 C 43.804 152.684,44.401 141.399,45.258 138.682 C 46.843 133.655,50.720 128.401,50.132 132.079 C 49.534 135.823,50.658 136.869,54.380 136.029 C 60.648 134.613,63.763 130.656,65.577 121.809 C 67.816 110.882,68.559 107.932,70.856 100.845 C 79.825 73.172,97.353 52.819,122.128 41.310 C 129.205 38.022,134.140 36.411,130.152 38.691 C 121.503 43.634,109.360 53.752,104.052 60.439 C 103.403 61.257,102.483 62.397,102.008 62.973 C 95.168 71.271,88.605 85.568,87.671 94.208 C 87.488 95.906,87.646 95.596,89.114 91.385 C 93.795 77.954,104.240 63.250,114.564 55.556 C 115.049 55.194,116.296 54.253,117.336 53.464 C 120.097 51.367,124.766 48.302,124.937 48.473 C 125.018 48.554,124.192 49.416,123.100 50.387 C 118.707 54.297,114.601 59.198,114.927 60.143 C 114.986 60.313,115.870 59.687,116.892 58.752 C 128.902 47.768,148.485 39.441,168.827 36.668 C 173.677 36.007,174.584 36.064,171.959 36.865 M265.034 52.214 C 278.669 53.923,295.098 62.505,304.904 73.040 C 311.579 80.212,319.031 92.071,321.277 99.094 C 321.778 100.661,321.767 100.671,322.775 97.775 C 327.246 84.920,324.613 69.276,316.107 58.165 C 314.026 55.447,314.275 55.213,316.961 57.364 C 332.836 70.075,338.152 94.968,330.952 122.889 C 329.607 128.103,329.698 128.215,332.513 124.791 C 338.124 117.963,342.646 107.698,345.134 96.141 C 346.333 90.567,346.749 91.014,347.626 98.818 C 350.176 121.519,343.165 142.740,328.177 157.686 C 325.708 160.148,323.717 162.162,323.753 162.162 C 326.249 162.158,338.717 156.016,342.314 153.017 C 343.882 151.711,343.889 152.021,342.377 155.844 C 339.050 164.258,333.800 172.210,327.055 179.051 C 323.977 182.174,322.340 183.569,317.230 187.426 C 309.627 193.165,297.343 197.953,284.459 200.202 C 276.819 201.535,276.173 201.629,270.608 202.200 C 267.728 202.496,265.068 202.804,264.696 202.884 C 263.417 203.161,254.537 203.717,243.412 204.218 C 200.173 206.164,192.564 207.335,185.173 213.178 C 182.922 214.957,182.897 214.948,187.331 213.968 C 198.835 211.426,208.548 211.233,216.047 213.398 C 218.602 214.136,221.622 215.346,221.622 215.632 C 221.622 215.675,218.543 215.711,214.780 215.712 C 197.571 215.718,187.296 221.655,184.976 232.932 C 184.430 235.587,184.224 242.573,184.658 243.705 C 185.159 245.010,184.082 244.108,183.314 242.578 C 180.393 236.762,179.129 227.200,180.862 224.022 L 181.487 222.876 180.161 223.088 C 173.048 224.225,167.048 229.995,164.647 238.007 C 163.991 240.199,163.751 250.017,164.283 252.987 C 165.201 258.120,157.183 244.698,154.746 237.022 C 148.115 216.133,157.495 196.571,180.980 182.313 C 184.460 180.201,190.306 177.027,190.719 177.027 C 190.876 177.027,189.564 178.509,187.804 180.321 C 179.007 189.373,175.257 196.678,174.754 205.743 L 174.557 209.290 176.045 208.071 C 181.432 203.660,198.647 199.432,221.959 196.795 C 224.468 196.511,226.900 196.201,227.365 196.107 C 227.829 196.012,231.098 195.561,234.628 195.103 C 283.847 188.724,301.187 178.890,309.098 152.872 C 318.204 122.924,306.770 94.117,280.932 81.910 C 276.178 79.665,266.193 76.351,264.179 76.351 C 263.815 76.351,258.836 83.026,256.365 86.827 C 245.430 103.642,236.303 125.496,232.944 142.905 C 232.639 144.485,232.251 146.233,232.082 146.791 C 230.617 151.601,229.594 163.424,229.578 175.727 C 229.568 182.538,229.447 187.935,229.307 187.721 C 229.167 187.506,228.744 186.308,228.366 185.058 C 226.616 179.270,219.628 166.630,214.400 159.797 C 207.076 150.225,198.634 142.563,188.976 136.725 C 186.373 135.151,186.809 134.982,184.569 138.429 C 169.911 160.985,150.448 178.221,129.560 187.145 C 125.110 189.047,124.927 189.004,126.974 186.533 C 147.512 161.748,153.989 120.174,142.714 85.498 C 141.476 81.689,142.193 82.232,145.362 87.500 C 154.070 101.980,159.543 121.097,160.040 138.777 L 160.232 145.628 163.331 140.973 C 170.446 130.285,175.792 120.522,179.071 112.223 C 180.392 108.879,180.019 108.890,184.079 112.078 C 185.912 113.518,188.839 115.781,190.581 117.107 C 192.324 118.434,195.194 120.625,196.959 121.977 C 198.725 123.330,202.069 125.885,204.392 127.655 C 206.715 129.425,210.503 132.379,212.811 134.219 C 215.119 136.060,217.186 137.634,217.405 137.718 C 217.693 137.828,217.869 136.533,218.042 133.054 C 218.868 116.360,224.798 97.096,233.134 84.020 C 240.965 71.739,247.965 63.282,257.891 54.111 C 260.837 51.390,260.076 51.592,265.034 52.214 M82.185 118.902 C 79.833 120.015,79.474 120.466,77.862 124.347 C 76.440 127.771,76.382 127.712,79.618 126.127 C 82.570 124.681,82.998 124.109,83.966 120.325 C 84.643 117.679,84.691 117.717,82.185 118.902 M150.110 280.082 C 150.593 280.461,152.399 283.120,154.125 285.991 C 155.851 288.862,157.750 292.010,158.345 292.987 C 158.940 293.964,159.816 295.448,160.292 296.284 C 160.767 297.120,163.504 301.676,166.374 306.408 C 172.275 316.140,172.197 315.528,167.535 315.535 C 163.719 315.541,164.157 315.881,161.119 310.570 L 158.953 306.782 150.750 306.769 C 141.267 306.755,141.576 306.887,143.520 303.689 L 144.838 301.520 150.122 301.427 C 155.806 301.327,155.783 301.336,154.641 299.625 C 154.221 298.995,152.595 296.323,151.028 293.686 C 149.462 291.049,148.078 288.956,147.952 289.033 C 147.748 289.159,146.396 291.373,142.950 297.223 C 140.807 300.861,140.419 301.523,139.441 303.209 C 138.903 304.139,137.949 305.735,137.322 306.757 C 136.695 307.779,135.886 309.147,135.524 309.797 C 135.161 310.448,134.263 311.968,133.527 313.176 L 132.190 315.372 128.878 315.469 C 127.057 315.523,125.434 315.434,125.272 315.272 C 125.026 315.026,128.497 308.854,131.582 304.054 C 131.999 303.404,135.190 298.083,138.672 292.230 C 146.629 278.854,147.446 277.986,150.110 280.082 M53.655 280.828 C 54.241 281.789,55.865 284.852,62.838 298.142 C 63.715 299.814,64.964 302.178,65.612 303.396 C 66.260 304.613,66.881 305.829,66.991 306.098 C 67.152 306.493,67.276 306.460,67.632 305.925 C 68.374 304.812,70.577 300.945,71.504 299.132 L 72.379 297.419 67.904 288.887 C 65.039 283.425,63.546 280.238,63.754 280.030 C 63.933 279.851,65.636 279.748,67.550 279.802 L 71.022 279.899 77.656 293.147 C 81.305 300.434,84.369 306.401,84.464 306.408 C 84.559 306.414,85.452 304.861,86.447 302.956 C 87.443 301.052,89.551 297.061,91.131 294.088 C 92.712 291.115,95.003 286.782,96.222 284.459 C 98.875 279.401,98.443 279.741,102.224 279.735 C 106.135 279.728,106.063 279.548,103.825 283.750 C 102.775 285.720,101.238 288.623,100.409 290.203 C 99.580 291.782,97.165 296.233,95.043 300.093 C 92.921 303.953,90.546 308.342,89.765 309.847 C 88.984 311.353,88.109 313.028,87.822 313.572 C 85.459 318.033,82.454 316.669,78.641 309.402 C 75.370 303.170,76.015 303.105,72.466 310.024 C 69.012 316.760,65.786 317.908,63.422 313.244 C 62.835 312.086,61.166 308.985,55.568 298.649 C 46.568 282.031,45.649 280.274,45.816 280.005 C 45.909 279.853,47.561 279.730,49.486 279.730 L 52.985 279.730 53.655 280.828 M210.642 297.635 L 210.642 315.372 207.601 315.372 L 204.561 315.372 204.473 297.973 C 204.425 288.404,204.460 280.378,204.552 280.139 C 204.675 279.818,205.502 279.729,207.680 279.801 L 210.642 279.899 210.642 297.635 M252.284 294.337 L 252.372 308.775 264.108 308.864 L 275.845 308.953 275.845 312.162 L 275.845 315.372 260.980 315.372 L 246.115 315.372 246.027 297.973 C 245.979 288.404,246.014 280.378,246.106 280.139 C 246.229 279.818,247.056 279.729,249.234 279.801 L 252.196 279.899 252.284 294.337 M344.764 283.108 L 344.764 286.318 331.317 286.406 C 316.408 286.504,316.611 286.474,315.663 288.741 C 315.062 290.181,315.082 291.029,315.753 292.444 C 316.680 294.397,316.762 294.411,328.716 294.595 L 339.696 294.765 341.764 295.845 C 348.400 299.311,348.210 310.926,341.466 314.139 C 338.959 315.333,335.392 315.577,321.959 315.471 L 309.291 315.372 309.291 312.162 L 309.291 308.953 323.480 308.784 C 334.324 308.655,337.852 308.510,338.447 308.171 C 340.277 307.128,341.055 304.339,340.056 302.408 C 339.066 300.493,339.235 300.522,327.905 300.314 C 318.382 300.139,317.193 300.053,315.200 299.396 C 307.010 296.698,306.122 285.130,313.795 281.103 C 315.962 279.966,318.618 279.779,331.757 279.839 L 344.764 279.899 344.764 283.108 " stroke="none" fill="#fbfbfb" fill-rule="evenodd"></path><path id="path2" d="M171.959 36.486 C 171.959 36.672,171.706 36.824,171.396 36.824 C 171.087 36.824,170.920 36.911,171.026 37.017 C 171.132 37.123,171.879 36.978,172.687 36.695 C 174.139 36.187,174.143 36.181,173.057 36.165 C 172.454 36.156,171.959 36.301,171.959 36.486 M170.355 44.846 C 172.166 44.907,175.131 44.907,176.943 44.846 C 178.754 44.786,177.272 44.736,173.649 44.736 C 170.025 44.736,168.543 44.786,170.355 44.846 M164.447 45.171 C 164.867 45.252,165.475 45.249,165.798 45.165 C 166.121 45.080,165.777 45.014,165.034 45.018 C 164.291 45.021,164.026 45.091,164.447 45.171 M181.676 45.171 C 182.096 45.252,182.705 45.249,183.028 45.165 C 183.351 45.080,183.007 45.014,182.264 45.018 C 181.520 45.021,181.256 45.091,181.676 45.171 M191.811 48.212 C 192.232 48.293,192.840 48.290,193.163 48.205 C 193.486 48.121,193.142 48.054,192.399 48.058 C 191.655 48.062,191.391 48.131,191.811 48.212 M124.136 48.796 C 123.487 49.276,123.487 49.281,124.137 49.189 C 124.499 49.138,124.853 48.920,124.925 48.704 C 125.097 48.189,124.930 48.208,124.136 48.796 M194.852 48.550 C 195.272 48.631,195.880 48.627,196.203 48.543 C 196.526 48.458,196.182 48.392,195.439 48.396 C 194.696 48.400,194.432 48.469,194.852 48.550 M200.629 48.586 C 201.018 48.855,201.018 48.931,200.629 49.071 C 200.376 49.163,200.742 49.227,201.443 49.214 C 202.727 49.190,202.569 48.926,201.014 48.498 C 200.438 48.341,200.316 48.368,200.629 48.586 M121.941 51.267 L 120.777 52.534 122.044 51.370 C 122.741 50.729,123.311 50.159,123.311 50.103 C 123.311 49.845,123.025 50.088,121.941 51.267 M258.428 53.632 L 257.264 54.899 258.530 53.734 C 259.710 52.651,259.953 52.365,259.695 52.365 C 259.638 52.365,259.068 52.935,258.428 53.632 M273.818 54.392 C 274.189 54.552,274.721 54.682,275.000 54.682 C 275.319 54.682,275.257 54.575,274.831 54.392 C 274.459 54.232,273.927 54.102,273.649 54.102 C 273.329 54.102,273.392 54.209,273.818 54.392 M314.527 56.040 C 314.527 56.480,315.400 57.123,315.653 56.869 C 315.907 56.616,315.264 55.743,314.823 55.743 C 314.660 55.743,314.527 55.877,314.527 56.040 M97.788 57.517 L 96.453 58.953 97.889 57.617 C 99.224 56.375,99.480 56.081,99.224 56.081 C 99.169 56.081,98.523 56.727,97.788 57.517 M112.648 57.179 L 111.655 58.277 112.753 57.285 C 113.777 56.360,114.007 56.081,113.746 56.081 C 113.687 56.081,113.193 56.575,112.648 57.179 M105.215 58.868 L 104.223 59.966 105.321 58.974 C 106.344 58.049,106.574 57.770,106.313 57.770 C 106.255 57.770,105.761 58.264,105.215 58.868 M319.764 60.135 C 320.867 61.250,321.845 62.162,321.938 62.162 C 322.031 62.162,321.205 61.250,320.101 60.135 C 318.998 59.020,318.019 58.108,317.927 58.108 C 317.834 58.108,318.660 59.020,319.764 60.135 M107.770 61.655 C 106.386 63.049,105.329 64.189,105.422 64.189 C 105.515 64.189,106.724 63.049,108.108 61.655 C 109.492 60.262,110.549 59.122,110.456 59.122 C 110.363 59.122,109.155 60.262,107.770 61.655 M115.717 59.789 C 115.384 60.157,114.981 60.376,114.820 60.276 C 114.659 60.177,114.527 60.361,114.527 60.685 C 114.527 61.162,114.722 61.089,115.541 60.304 C 116.098 59.770,116.554 59.285,116.554 59.227 C 116.554 58.981,116.284 59.163,115.717 59.789 M92.045 63.260 L 90.709 64.696 92.145 63.360 C 93.481 62.119,93.736 61.824,93.481 61.824 C 93.426 61.824,92.779 62.470,92.045 63.260 M155.663 62.739 C 156.083 62.820,156.691 62.817,157.014 62.732 C 157.337 62.648,156.993 62.581,156.250 62.585 C 155.507 62.589,155.242 62.658,155.663 62.739 M159.206 62.733 C 159.531 62.818,160.063 62.818,160.389 62.733 C 160.714 62.648,160.448 62.578,159.797 62.578 C 159.147 62.578,158.881 62.648,159.206 62.733 M171.622 67.335 C 171.622 67.394,172.116 67.888,172.720 68.433 L 173.818 69.426 172.825 68.328 C 171.900 67.304,171.622 67.074,171.622 67.335 M301.014 69.350 C 301.014 69.401,302.192 70.579,303.632 71.968 L 306.250 74.493 303.725 71.875 C 301.379 69.443,301.014 69.103,301.014 69.350 M128.041 71.284 C 127.390 71.640,126.980 71.938,127.128 71.945 C 127.486 71.964,129.392 70.973,129.392 70.768 C 129.392 70.547,129.372 70.555,128.041 71.284 M176.014 71.727 C 176.014 71.785,176.508 72.280,177.111 72.825 L 178.209 73.818 177.217 72.720 C 176.292 71.696,176.014 71.466,176.014 71.727 M324.741 80.068 C 324.741 80.718,324.810 80.984,324.895 80.659 C 324.980 80.334,324.980 79.802,324.895 79.476 C 324.810 79.151,324.741 79.417,324.741 80.068 M109.959 83.868 L 106.926 86.993 110.051 83.960 C 112.953 81.142,113.329 80.743,113.084 80.743 C 113.034 80.743,111.628 82.149,109.959 83.868 M199.741 81.757 C 199.741 82.407,199.810 82.673,199.895 82.348 C 199.980 82.023,199.980 81.491,199.895 81.166 C 199.810 80.840,199.741 81.106,199.741 81.757 M200.078 84.459 C 200.078 85.110,200.148 85.376,200.233 85.051 C 200.318 84.726,200.318 84.193,200.233 83.868 C 200.148 83.543,200.078 83.809,200.078 84.459 M182.518 86.318 C 182.521 87.061,182.591 87.325,182.671 86.905 C 182.752 86.485,182.749 85.876,182.665 85.553 C 182.580 85.230,182.514 85.574,182.518 86.318 M90.933 86.332 C 90.367 87.574,90.475 87.839,91.087 86.710 C 91.373 86.183,91.544 85.688,91.466 85.611 C 91.389 85.533,91.149 85.858,90.933 86.332 M324.747 87.669 C 324.751 88.412,324.820 88.676,324.901 88.256 C 324.982 87.836,324.979 87.228,324.894 86.905 C 324.810 86.582,324.744 86.926,324.747 87.669 M75.731 88.021 C 75.165 89.264,75.273 89.529,75.885 88.399 C 76.170 87.872,76.341 87.377,76.264 87.300 C 76.186 87.223,75.947 87.547,75.731 88.021 M333.524 90.203 C 333.524 90.853,333.594 91.119,333.679 90.794 C 333.764 90.469,333.764 89.937,333.679 89.611 C 333.594 89.286,333.524 89.552,333.524 90.203 M333.888 93.750 C 333.890 94.865,333.953 95.280,334.029 94.673 C 334.104 94.066,334.102 93.154,334.025 92.646 C 333.948 92.138,333.887 92.635,333.888 93.750 M182.518 94.764 C 182.521 95.507,182.591 95.771,182.671 95.351 C 182.752 94.931,182.749 94.322,182.665 93.999 C 182.580 93.676,182.514 94.020,182.518 94.764 M200.085 94.764 C 200.089 95.507,200.158 95.771,200.239 95.351 C 200.320 94.931,200.317 94.322,200.232 93.999 C 200.148 93.676,200.081 94.020,200.085 94.764 M297.635 94.025 C 297.635 94.083,298.129 94.577,298.733 95.123 L 299.831 96.115 298.839 95.017 C 297.914 93.993,297.635 93.764,297.635 94.025 M87.168 95.946 C 87.160 96.410,87.061 97.133,86.949 97.551 C 86.837 97.969,86.898 98.311,87.084 98.311 C 87.539 98.311,87.834 96.246,87.471 95.608 C 87.252 95.224,87.179 95.306,87.168 95.946 M199.741 97.635 C 199.741 98.285,199.810 98.552,199.895 98.226 C 199.980 97.901,199.980 97.369,199.895 97.044 C 199.810 96.719,199.741 96.985,199.741 97.635 M118.479 101.146 C 118.340 101.498,118.307 101.865,118.404 101.963 C 118.712 102.271,118.983 101.766,118.854 101.124 C 118.736 100.536,118.718 100.538,118.479 101.146 M347.714 101.689 C 347.714 102.340,347.783 102.606,347.868 102.280 C 347.953 101.955,347.953 101.423,347.868 101.098 C 347.783 100.773,347.714 101.039,347.714 101.689 M333.888 103.885 C 333.890 105.000,333.953 105.415,334.029 104.808 C 334.104 104.201,334.102 103.289,334.025 102.781 C 333.948 102.273,333.887 102.770,333.888 103.885 M98.396 105.236 C 98.400 105.980,98.469 106.244,98.550 105.824 C 98.631 105.404,98.627 104.795,98.543 104.472 C 98.458 104.149,98.392 104.493,98.396 105.236 M333.524 108.108 C 333.524 108.758,333.594 109.024,333.679 108.699 C 333.764 108.374,333.764 107.842,333.679 107.517 C 333.594 107.192,333.524 107.458,333.524 108.108 M98.396 110.304 C 98.400 111.047,98.469 111.312,98.550 110.891 C 98.631 110.471,98.627 109.863,98.543 109.540 C 98.458 109.217,98.392 109.561,98.396 110.304 M148.058 112.669 C 148.062 113.412,148.131 113.676,148.212 113.256 C 148.293 112.836,148.290 112.228,148.205 111.905 C 148.121 111.582,148.054 111.926,148.058 112.669 M192.736 113.013 C 193.108 113.315,193.716 113.712,194.088 113.895 L 194.764 114.226 194.088 113.676 C 193.716 113.374,193.108 112.977,192.736 112.794 L 192.061 112.463 192.736 113.013 M347.714 113.514 C 347.714 114.164,347.783 114.430,347.868 114.105 C 347.953 113.780,347.953 113.247,347.868 112.922 C 347.783 112.597,347.714 112.863,347.714 113.514 M148.453 121.791 C 148.452 125.507,148.502 127.073,148.562 125.271 C 148.623 123.470,148.623 120.429,148.563 118.515 C 148.503 116.600,148.453 118.074,148.453 121.791 M177.082 116.737 C 176.516 117.980,176.624 118.245,177.236 117.115 C 177.522 116.588,177.692 116.093,177.615 116.016 C 177.538 115.939,177.298 116.263,177.082 116.737 M110.629 120.355 L 108.953 122.128 110.726 120.452 C 111.702 119.530,112.500 118.732,112.500 118.678 C 112.500 118.426,112.187 118.707,110.629 120.355 M79.185 120.788 C 78.877 121.258,78.686 121.704,78.761 121.779 C 78.836 121.854,79.154 121.470,79.467 120.924 C 80.164 119.709,79.957 119.609,79.185 120.788 M236.004 129.923 C 235.880 130.418,235.843 130.888,235.923 130.968 C 236.002 131.047,236.169 130.707,236.293 130.212 C 236.418 129.717,236.454 129.247,236.375 129.167 C 236.295 129.088,236.128 129.428,236.004 129.923 M148.065 130.743 C 148.065 131.579,148.131 131.921,148.211 131.503 C 148.292 131.085,148.292 130.401,148.211 129.983 C 148.131 129.565,148.065 129.907,148.065 130.743 M48.796 131.841 L 47.804 132.939 48.865 131.983 C 49.636 131.287,49.974 131.149,50.105 131.476 C 50.225 131.778,50.293 131.731,50.311 131.334 C 50.351 130.462,49.909 130.609,48.796 131.841 M159.551 132.095 C 159.551 132.931,159.617 133.273,159.698 132.855 C 159.778 132.437,159.778 131.753,159.698 131.334 C 159.617 130.916,159.551 131.258,159.551 132.095 M60.621 132.855 L 59.628 133.953 60.726 132.960 C 61.750 132.036,61.980 131.757,61.719 131.757 C 61.660 131.757,61.166 132.251,60.621 132.855 M217.984 133.108 C 217.984 133.758,218.053 134.024,218.138 133.699 C 218.223 133.374,218.223 132.842,218.138 132.517 C 218.053 132.192,217.984 132.458,217.984 133.108 M159.894 136.318 C 159.896 137.247,159.962 137.587,160.040 137.073 C 160.117 136.560,160.115 135.799,160.035 135.384 C 159.955 134.968,159.891 135.389,159.894 136.318 M97.871 136.602 C 97.776 136.851,97.814 137.244,97.957 137.475 C 98.213 137.888,98.649 137.249,98.649 136.459 C 98.649 135.984,98.068 136.090,97.871 136.602 M74.134 139.949 L 73.142 141.047 74.240 140.055 C 74.844 139.509,75.338 139.015,75.338 138.957 C 75.338 138.696,75.059 138.926,74.134 139.949 M65.835 144.510 C 65.416 145.045,65.428 145.058,65.959 144.641 C 66.281 144.388,66.783 144.272,67.074 144.384 C 67.378 144.501,67.515 144.445,67.396 144.253 C 67.077 143.737,66.348 143.857,65.835 144.510 M46.596 147.861 L 45.777 148.763 46.695 148.115 C 47.201 147.758,47.619 147.352,47.625 147.213 C 47.642 146.797,47.457 146.914,46.596 147.861 M64.281 148.649 C 64.281 149.485,64.347 149.827,64.428 149.409 C 64.508 148.991,64.508 148.307,64.428 147.889 C 64.347 147.470,64.281 147.813,64.281 148.649 M76.351 147.973 C 75.701 148.329,75.290 148.627,75.439 148.634 C 75.797 148.653,77.703 147.662,77.703 147.458 C 77.703 147.236,77.683 147.244,76.351 147.973 M205.912 150.000 C 207.203 151.301,208.335 152.365,208.428 152.365 C 208.521 152.365,207.541 151.301,206.250 150.000 C 204.959 148.699,203.827 147.635,203.734 147.635 C 203.641 147.635,204.621 148.699,205.912 150.000 M335.473 148.986 C 335.076 149.544,334.827 150.000,334.920 150.000 C 335.013 150.000,335.414 149.544,335.811 148.986 C 336.208 148.429,336.456 147.973,336.364 147.973 C 336.271 147.973,335.870 148.429,335.473 148.986 M47.081 151.351 C 47.081 153.117,47.138 153.839,47.208 152.956 C 47.277 152.073,47.277 150.629,47.208 149.747 C 47.138 148.864,47.081 149.586,47.081 151.351 M76.804 150.567 C 77.417 151.293,77.412 151.310,76.382 151.842 C 75.808 152.139,75.338 152.458,75.338 152.551 C 75.338 152.790,77.284 151.755,77.504 151.399 C 77.605 151.237,77.348 150.817,76.935 150.467 L 76.182 149.831 76.804 150.567 M144.450 150.869 C 144.326 151.364,144.289 151.834,144.369 151.914 C 144.448 151.993,144.615 151.653,144.739 151.158 C 144.864 150.663,144.900 150.193,144.821 150.113 C 144.741 150.034,144.574 150.374,144.450 150.869 M44.932 151.033 C 44.932 151.230,44.780 151.297,44.595 151.182 C 44.406 151.066,44.261 151.318,44.268 151.754 C 44.278 152.512,44.292 152.516,44.774 151.878 C 45.271 151.222,45.419 150.676,45.101 150.676 C 45.008 150.676,44.932 150.837,44.932 151.033 M343.282 152.422 C 343.261 152.732,343.156 153.264,343.049 153.604 C 342.865 154.191,342.875 154.192,343.240 153.621 C 343.453 153.290,343.558 152.758,343.474 152.439 C 343.337 151.916,343.318 151.914,343.282 152.422 M330.405 155.236 C 329.585 156.073,328.989 156.757,329.082 156.757 C 329.175 156.757,329.923 156.073,330.743 155.236 C 331.564 154.400,332.159 153.716,332.066 153.716 C 331.973 153.716,331.226 154.400,330.405 155.236 M69.406 155.218 C 69.766 155.507,70.299 155.731,70.588 155.717 C 71.043 155.694,71.046 155.664,70.608 155.502 C 70.329 155.399,69.797 155.174,69.426 155.003 C 68.761 154.697,68.760 154.701,69.406 155.218 M169.239 158.024 L 168.074 159.291 169.341 158.126 C 170.038 157.486,170.608 156.916,170.608 156.859 C 170.608 156.601,170.322 156.844,169.239 158.024 M230.146 158.446 C 230.146 159.096,230.215 159.362,230.300 159.037 C 230.385 158.712,230.385 158.180,230.300 157.855 C 230.215 157.530,230.146 157.796,230.146 158.446 M326.333 159.375 L 325.169 160.642 326.436 159.478 C 327.615 158.394,327.858 158.108,327.600 158.108 C 327.544 158.108,326.973 158.678,326.333 159.375 M164.865 162.669 C 164.044 163.505,163.449 164.189,163.542 164.189 C 163.635 164.189,164.382 163.505,165.203 162.669 C 166.023 161.833,166.619 161.149,166.526 161.149 C 166.433 161.149,165.685 161.833,164.865 162.669 M305.236 162.500 C 304.948 163.057,304.788 163.514,304.881 163.514 C 304.974 163.514,305.286 163.057,305.574 162.500 C 305.863 161.943,306.022 161.486,305.930 161.486 C 305.837 161.486,305.525 161.943,305.236 162.500 M160.283 166.976 L 159.291 168.074 160.389 167.082 C 161.412 166.157,161.642 165.878,161.381 165.878 C 161.323 165.878,160.829 166.372,160.283 166.976 M229.183 176.182 C 229.184 178.412,229.238 179.280,229.305 178.112 C 229.371 176.943,229.370 175.119,229.303 174.058 C 229.236 172.997,229.182 173.953,229.183 176.182 M294.742 176.098 L 293.750 177.196 294.848 176.204 C 295.452 175.658,295.946 175.164,295.946 175.106 C 295.946 174.845,295.667 175.075,294.742 176.098 M190.203 177.385 C 190.203 177.582,190.013 177.633,189.780 177.500 C 189.548 177.366,189.477 177.387,189.621 177.546 C 189.766 177.705,188.854 178.907,187.595 180.218 C 185.427 182.474,185.453 182.458,188.092 179.907 C 191.046 177.050,191.065 177.027,190.541 177.027 C 190.355 177.027,190.203 177.188,190.203 177.385 M326.351 179.561 C 324.967 180.954,323.910 182.095,324.003 182.095 C 324.096 182.095,325.305 180.954,326.689 179.561 C 328.073 178.167,329.130 177.027,329.037 177.027 C 328.944 177.027,327.736 178.167,326.351 179.561 M228.593 185.811 C 229.081 187.797,229.705 188.477,229.677 186.993 C 229.663 186.250,229.576 185.940,229.483 186.304 C 229.336 186.883,229.256 186.841,228.850 185.966 C 228.464 185.136,228.420 185.109,228.593 185.811 M263.345 190.203 C 262.919 190.386,262.856 190.493,263.176 190.493 C 263.454 190.493,263.986 190.362,264.358 190.203 C 264.784 190.020,264.846 189.912,264.527 189.912 C 264.248 189.912,263.716 190.043,263.345 190.203 M166.209 193.834 L 163.345 196.791 166.301 193.926 C 169.046 191.266,169.411 190.878,169.165 190.878 C 169.114 190.878,167.784 192.209,166.209 193.834 M229.814 195.841 C 230.139 195.926,230.671 195.926,230.997 195.841 C 231.322 195.756,231.056 195.686,230.405 195.686 C 229.755 195.686,229.489 195.756,229.814 195.841 M262.753 202.941 C 263.171 203.022,263.856 203.022,264.274 202.941 C 264.692 202.861,264.350 202.795,263.514 202.795 C 262.677 202.795,262.335 202.861,262.753 202.941 M259.211 203.283 C 259.724 203.361,260.484 203.359,260.900 203.278 C 261.315 203.198,260.895 203.135,259.966 203.137 C 259.037 203.140,258.697 203.205,259.211 203.283 M254.987 203.617 C 255.407 203.698,256.015 203.695,256.338 203.611 C 256.661 203.526,256.318 203.460,255.574 203.464 C 254.831 203.467,254.567 203.537,254.987 203.617 M248.906 203.955 C 249.326 204.036,249.934 204.033,250.257 203.948 C 250.580 203.864,250.236 203.798,249.493 203.801 C 248.750 203.805,248.486 203.874,248.906 203.955 M241.132 204.292 C 241.550 204.373,242.234 204.373,242.652 204.292 C 243.070 204.212,242.728 204.146,241.892 204.146 C 241.056 204.146,240.714 204.212,241.132 204.292 M232.354 204.637 C 232.961 204.712,233.873 204.710,234.381 204.633 C 234.889 204.556,234.392 204.495,233.277 204.497 C 232.162 204.498,231.747 204.562,232.354 204.637 M174.429 206.588 C 174.431 207.703,174.494 208.118,174.569 207.511 C 174.644 206.904,174.643 205.991,174.566 205.484 C 174.489 204.976,174.427 205.473,174.429 206.588 M180.743 205.236 C 180.279 205.502,180.051 205.719,180.236 205.719 C 180.422 205.719,180.954 205.502,181.419 205.236 C 181.883 204.971,182.111 204.754,181.926 204.754 C 181.740 204.754,181.208 204.971,180.743 205.236 M225.253 204.977 C 226.043 205.048,227.335 205.048,228.125 204.977 C 228.915 204.906,228.269 204.848,226.689 204.848 C 225.110 204.848,224.464 204.906,225.253 204.977 M219.516 205.312 C 220.123 205.388,221.036 205.386,221.543 205.309 C 222.051 205.232,221.554 205.170,220.439 205.172 C 219.324 205.174,218.909 205.237,219.516 205.312 M214.274 205.638 C 214.599 205.723,215.131 205.723,215.456 205.638 C 215.781 205.553,215.515 205.484,214.865 205.484 C 214.215 205.484,213.948 205.553,214.274 205.638 M202.630 212.074 C 203.611 212.142,205.132 212.142,206.008 212.072 C 206.884 212.003,206.081 211.947,204.223 211.948 C 202.365 211.949,201.648 212.005,202.630 212.074 M183.667 214.131 C 183.009 214.858,182.956 215.203,183.502 215.203 C 183.719 215.203,183.795 215.101,183.670 214.977 C 183.546 214.852,183.696 214.472,184.004 214.132 C 184.312 213.792,184.488 213.514,184.395 213.514 C 184.302 213.514,183.975 213.792,183.667 214.131 M220.439 215.541 C 219.845 215.796,219.878 215.834,220.713 215.855 C 221.264 215.868,221.574 215.737,221.453 215.541 C 221.338 215.355,221.215 215.213,221.179 215.226 C 221.144 215.240,220.811 215.381,220.439 215.541 M169.748 228.463 L 168.412 229.899 169.848 228.563 C 171.183 227.321,171.439 227.027,171.183 227.027 C 171.128 227.027,170.482 227.673,169.748 228.463 M184.223 236.824 C 184.223 237.846,184.286 238.264,184.364 237.753 C 184.441 237.242,184.441 236.406,184.364 235.895 C 184.286 235.384,184.223 235.802,184.223 236.824 M184.230 240.878 C 184.230 242.086,184.291 242.580,184.366 241.976 C 184.441 241.372,184.441 240.384,184.366 239.780 C 184.291 239.177,184.230 239.671,184.230 240.878 M163.627 245.946 C 163.627 247.340,163.687 247.910,163.760 247.213 C 163.833 246.516,163.833 245.376,163.760 244.679 C 163.687 243.982,163.627 244.552,163.627 245.946 M163.470 253.801 C 163.725 254.126,164.067 254.392,164.231 254.392 C 164.394 254.392,164.515 254.126,164.500 253.801 C 164.483 253.425,164.410 253.368,164.299 253.646 C 164.155 254.002,164.021 254.002,163.565 253.646 C 163.066 253.256,163.056 253.272,163.470 253.801 M146.839 279.651 C 146.751 279.794,147.274 279.854,148.001 279.785 C 148.729 279.716,149.324 279.599,149.324 279.525 C 149.324 279.274,146.999 279.392,146.839 279.651 M45.828 279.983 C 45.741 280.122,46.835 280.195,48.257 280.145 C 52.796 279.984,53.317 279.845,49.598 279.787 C 47.611 279.755,45.915 279.844,45.828 279.983 M64.865 279.948 C 67.662 280.197,71.209 280.217,71.064 279.983 C 70.977 279.844,69.281 279.755,67.294 279.787 C 65.308 279.818,64.215 279.891,64.865 279.948 M99.831 279.945 C 102.193 280.194,105.669 280.217,105.523 279.983 C 105.437 279.844,103.892 279.754,102.092 279.784 C 100.291 279.814,99.274 279.886,99.831 279.945 M204.612 279.983 C 204.525 280.122,205.391 280.194,206.535 280.142 C 210.260 279.974,210.701 279.839,207.706 279.784 C 206.091 279.754,204.699 279.844,204.612 279.983 M246.166 279.983 C 246.079 280.122,246.945 280.194,248.089 280.142 C 251.814 279.974,252.255 279.839,249.260 279.784 C 247.645 279.754,246.253 279.844,246.166 279.983 M322.973 279.972 C 334.508 280.208,344.854 280.214,344.712 279.983 C 344.625 279.844,338.673 279.763,331.483 279.804 C 324.294 279.845,320.465 279.920,322.973 279.972 M331.588 286.149 L 318.412 286.330 331.483 286.408 C 339.919 286.459,344.629 286.367,344.764 286.149 C 344.878 285.963,344.925 285.846,344.868 285.889 C 344.810 285.932,338.834 286.049,331.588 286.149 M308.543 290.034 C 308.545 290.963,308.611 291.303,308.688 290.789 C 308.766 290.276,308.764 289.516,308.684 289.100 C 308.604 288.685,308.540 289.105,308.543 290.034 M323.585 300.253 C 326.244 300.310,330.500 300.310,333.044 300.252 C 335.588 300.195,333.412 300.148,328.209 300.149 C 323.007 300.149,320.926 300.196,323.585 300.253 M339.927 306.587 C 339.714 307.053,339.044 307.737,338.436 308.108 C 337.828 308.478,337.501 308.782,337.708 308.783 C 338.576 308.785,340.901 306.329,340.454 305.882 C 340.376 305.804,340.139 306.121,339.927 306.587 M142.523 306.510 C 142.666 306.652,146.421 306.728,150.868 306.678 L 158.953 306.587 150.608 306.418 C 146.018 306.326,142.380 306.367,142.523 306.510 M258.002 309.037 C 261.195 309.092,266.516 309.092,269.826 309.037 C 273.136 308.981,270.524 308.936,264.020 308.936 C 257.517 308.936,254.809 308.981,258.002 309.037 M316.323 309.037 C 320.191 309.091,326.424 309.091,330.175 309.037 C 333.925 308.982,330.760 308.938,323.142 308.938 C 315.524 308.938,312.455 308.983,316.323 309.037 M125.169 314.527 C 124.445 315.699,131.580 316.112,132.459 314.949 C 132.840 314.446,132.836 314.421,132.433 314.780 C 131.685 315.447,125.202 315.369,125.460 314.696 C 125.679 314.124,125.487 314.012,125.169 314.527 M204.692 315.302 C 204.840 315.449,206.240 315.524,207.802 315.468 L 210.642 315.366 207.532 315.200 C 205.822 315.109,204.544 315.154,204.692 315.302 M246.237 315.291 C 246.378 315.432,253.098 315.508,261.169 315.460 L 275.845 315.371 260.912 315.203 C 252.699 315.110,246.095 315.149,246.237 315.291 M165.794 315.452 C 166.769 315.520,168.366 315.520,169.341 315.452 C 170.317 315.384,169.519 315.328,167.568 315.328 C 165.617 315.328,164.818 315.384,165.794 315.452 M315.940 315.456 C 319.598 315.510,325.679 315.510,329.454 315.456 C 333.229 315.401,330.236 315.357,322.804 315.357 C 315.372 315.357,312.283 315.401,315.940 315.456 M66.474 315.779 C 66.894 315.860,67.502 315.857,67.825 315.773 C 68.148 315.688,67.804 315.622,67.061 315.626 C 66.318 315.629,66.053 315.699,66.474 315.779 M83.703 315.779 C 84.124 315.860,84.732 315.857,85.055 315.773 C 85.378 315.688,85.034 315.622,84.291 315.626 C 83.547 315.629,83.283 315.699,83.703 315.779 " stroke="none" fill="#9c9a9b" fill-rule="evenodd"></path><path id="path3" d="M169.257 36.789 C 168.376 36.948,168.223 37.062,168.656 37.237 C 168.976 37.366,169.812 37.260,170.514 37.003 C 171.842 36.515,171.291 36.421,169.257 36.789 M129.307 38.409 C 128.982 38.494,128.716 38.713,128.716 38.896 C 128.716 39.079,128.541 39.121,128.326 38.988 C 128.086 38.839,128.028 38.895,128.175 39.133 C 128.386 39.474,129.126 39.187,130.377 38.278 C 130.554 38.149,130.077 38.208,129.307 38.409 M167.314 45.165 C 167.639 45.250,168.171 45.250,168.497 45.165 C 168.822 45.080,168.556 45.011,167.905 45.011 C 167.255 45.011,166.989 45.080,167.314 45.165 M178.801 45.165 C 179.126 45.250,179.658 45.250,179.983 45.165 C 180.308 45.080,180.042 45.011,179.392 45.011 C 178.742 45.011,178.476 45.080,178.801 45.165 M188.936 47.868 C 189.261 47.953,189.793 47.953,190.118 47.868 C 190.443 47.783,190.177 47.714,189.527 47.714 C 188.877 47.714,188.611 47.783,188.936 47.868 M197.804 48.342 C 197.230 48.611,197.269 48.639,198.065 48.530 C 198.581 48.459,199.084 48.533,199.183 48.694 C 199.283 48.855,199.697 48.982,200.104 48.976 C 200.685 48.968,200.735 48.904,200.338 48.679 C 199.397 48.147,198.483 48.025,197.804 48.342 M122.536 50.133 C 122.056 50.578,121.616 50.921,121.558 50.894 C 121.500 50.867,121.489 50.907,121.534 50.982 C 121.579 51.058,121.434 51.362,121.212 51.658 C 120.991 51.954,121.484 51.588,122.308 50.845 C 123.133 50.101,123.873 49.455,123.953 49.409 C 124.033 49.362,123.944 49.324,123.754 49.324 C 123.565 49.324,123.017 49.688,122.536 50.133 M259.596 52.787 C 258.958 53.541,258.958 53.543,259.629 52.980 C 260.001 52.667,260.989 52.352,261.825 52.278 L 263.345 52.145 261.792 52.086 C 260.554 52.039,260.110 52.181,259.596 52.787 M187.500 57.264 C 188.509 58.285,189.411 59.122,189.504 59.122 C 189.597 59.122,188.847 58.285,187.838 57.264 C 186.829 56.242,185.927 55.405,185.834 55.405 C 185.741 55.405,186.491 56.242,187.500 57.264 M252.864 59.206 L 250.169 61.993 252.956 59.298 C 254.489 57.816,255.743 56.562,255.743 56.511 C 255.743 56.265,255.367 56.617,252.864 59.206 M105.891 57.855 L 104.899 58.953 105.997 57.960 C 107.020 57.036,107.250 56.757,106.989 56.757 C 106.931 56.757,106.437 57.251,105.891 57.855 M315.747 57.034 C 315.638 57.211,315.762 57.534,316.024 57.751 C 316.399 58.062,316.484 58.037,316.424 57.630 C 316.322 56.933,315.990 56.641,315.747 57.034 M319.426 60.135 C 320.529 61.250,321.508 62.162,321.600 62.162 C 321.693 62.162,320.867 61.250,319.764 60.135 C 318.660 59.020,317.682 58.108,317.589 58.108 C 317.496 58.108,318.322 59.020,319.426 60.135 M115.878 59.966 C 115.058 60.802,114.462 61.486,114.555 61.486 C 114.648 61.486,115.396 60.802,116.216 59.966 C 117.037 59.130,117.632 58.446,117.539 58.446 C 117.446 58.446,116.699 59.130,115.878 59.966 M109.945 59.882 L 108.953 60.980 110.051 59.987 C 111.074 59.063,111.304 58.784,111.043 58.784 C 110.985 58.784,110.491 59.278,109.945 59.882 M157.010 62.407 C 157.614 62.481,158.602 62.481,159.206 62.407 C 159.810 62.332,159.316 62.270,158.108 62.270 C 156.900 62.270,156.406 62.332,157.010 62.407 M304.392 73.079 C 304.392 73.137,304.886 73.631,305.490 74.177 L 306.588 75.169 305.596 74.071 C 304.671 73.047,304.392 72.818,304.392 73.079 M109.957 83.530 L 107.601 85.980 110.051 83.624 C 112.326 81.436,112.654 81.081,112.406 81.081 C 112.355 81.081,111.253 82.183,109.957 83.530 M325.101 83.784 C 325.101 84.806,325.165 85.224,325.242 84.713 C 325.319 84.202,325.319 83.366,325.242 82.855 C 325.165 82.344,325.101 82.762,325.101 83.784 M182.849 86.824 C 182.849 87.475,182.918 87.741,183.003 87.416 C 183.088 87.090,183.088 86.558,183.003 86.233 C 182.918 85.908,182.849 86.174,182.849 86.824 M200.123 89.358 C 200.124 91.216,200.181 91.933,200.249 90.952 C 200.318 89.970,200.317 88.450,200.248 87.573 C 200.179 86.697,200.123 87.500,200.123 89.358 M182.849 93.919 C 182.849 94.569,182.918 94.835,183.003 94.510 C 183.088 94.185,183.088 93.653,183.003 93.328 C 182.918 93.003,182.849 93.269,182.849 93.919 M86.486 99.617 C 86.486 100.917,86.943 100.733,87.280 99.296 C 87.429 98.659,87.350 98.423,86.986 98.423 C 86.640 98.423,86.486 98.789,86.486 99.617 M347.382 100.845 C 347.386 101.588,347.455 101.852,347.536 101.432 C 347.617 101.012,347.614 100.404,347.529 100.081 C 347.445 99.758,347.379 100.101,347.382 100.845 M347.764 107.601 C 347.765 109.831,347.819 110.699,347.886 109.531 C 347.952 108.362,347.951 106.538,347.884 105.477 C 347.818 104.415,347.763 105.372,347.764 107.601 M98.051 105.743 C 98.051 106.394,98.121 106.660,98.206 106.334 C 98.291 106.009,98.291 105.477,98.206 105.152 C 98.121 104.827,98.051 105.093,98.051 105.743 M306.588 106.757 C 306.876 107.314,307.188 107.770,307.281 107.770 C 307.374 107.770,307.214 107.314,306.926 106.757 C 306.637 106.199,306.326 105.743,306.233 105.743 C 306.140 105.743,306.300 106.199,306.588 106.757 M98.051 109.459 C 98.051 110.110,98.121 110.376,98.206 110.051 C 98.291 109.726,98.291 109.193,98.206 108.868 C 98.121 108.543,98.051 108.809,98.051 109.459 M347.382 114.358 C 347.386 115.101,347.455 115.366,347.536 114.945 C 347.617 114.525,347.614 113.917,347.529 113.594 C 347.445 113.271,347.379 113.615,347.382 114.358 M148.734 121.791 C 148.738 122.534,148.807 122.798,148.888 122.378 C 148.968 121.958,148.965 121.349,148.881 121.026 C 148.796 120.703,148.730 121.047,148.734 121.791 M218.659 127.027 C 218.659 127.677,218.729 127.943,218.814 127.618 C 218.899 127.293,218.899 126.761,218.814 126.436 C 218.729 126.111,218.659 126.377,218.659 127.027 M312.267 129.223 C 312.269 130.338,312.332 130.753,312.407 130.146 C 312.482 129.539,312.481 128.627,312.404 128.119 C 312.326 127.611,312.265 128.108,312.267 129.223 M148.389 130.068 C 148.389 130.718,148.459 130.984,148.544 130.659 C 148.629 130.334,148.629 129.802,148.544 129.476 C 148.459 129.151,148.389 129.417,148.389 130.068 M159.545 135.304 C 159.548 136.047,159.618 136.312,159.698 135.891 C 159.779 135.471,159.776 134.863,159.692 134.540 C 159.607 134.217,159.541 134.561,159.545 135.304 M312.267 135.980 C 312.269 137.095,312.332 137.510,312.407 136.903 C 312.482 136.296,312.481 135.383,312.404 134.876 C 312.326 134.368,312.265 134.865,312.267 135.980 M217.900 136.555 C 217.810 137.615,217.860 138.358,218.010 138.207 C 218.161 138.056,218.234 137.189,218.174 136.280 L 218.064 134.628 217.900 136.555 M80.828 136.719 C 81.153 136.804,81.685 136.804,82.010 136.719 C 82.335 136.634,82.069 136.565,81.419 136.565 C 80.769 136.565,80.503 136.634,80.828 136.719 M159.854 142.463 C 159.823 144.357,159.911 145.977,160.051 146.064 C 160.190 146.151,160.263 145.133,160.212 143.803 C 160.046 139.458,159.912 138.956,159.854 142.463 M44.375 147.635 C 44.375 149.215,44.433 149.861,44.504 149.071 C 44.575 148.281,44.575 146.989,44.504 146.199 C 44.433 145.410,44.375 146.056,44.375 147.635 M77.107 150.528 C 77.559 151.066,77.602 151.317,77.293 151.626 C 77.072 151.847,76.980 152.027,77.087 152.027 C 77.852 152.027,77.972 151.060,77.279 150.474 C 76.522 149.833,76.522 149.833,77.107 150.528 M88.329 151.774 L 86.993 153.209 88.429 151.874 C 89.764 150.632,90.020 150.338,89.765 150.338 C 89.709 150.338,89.063 150.984,88.329 151.774 M342.204 153.292 C 341.608 153.966,341.576 154.058,342.088 153.629 C 342.475 153.304,342.893 153.141,343.017 153.265 C 343.142 153.389,343.243 153.238,343.243 152.928 C 343.243 152.179,343.162 152.208,342.204 153.292 M164.683 162.584 L 163.007 164.358 164.780 162.682 C 165.756 161.760,166.554 160.961,166.554 160.908 C 166.554 160.656,166.241 160.936,164.683 162.584 M60.304 163.537 C 59.754 163.754,59.832 163.808,60.726 163.828 C 61.868 163.852,62.127 163.699,61.402 163.427 C 61.170 163.340,60.676 163.389,60.304 163.537 M229.139 169.426 C 229.143 170.169,229.212 170.433,229.293 170.013 C 229.374 169.593,229.371 168.985,229.286 168.662 C 229.202 168.339,229.136 168.682,229.139 169.426 M228.813 176.182 C 228.815 177.111,228.881 177.451,228.959 176.938 C 229.036 176.424,229.034 175.664,228.954 175.249 C 228.874 174.833,228.810 175.253,228.813 176.182 M326.512 179.139 L 323.818 181.926 326.605 179.231 C 329.193 176.728,329.546 176.351,329.300 176.351 C 329.249 176.351,327.994 177.606,326.512 179.139 M189.189 177.872 C 188.725 178.137,188.491 178.360,188.670 178.366 C 188.849 178.373,188.241 179.177,187.320 180.152 C 186.095 181.448,186.258 181.337,187.923 179.739 C 190.622 177.151,190.731 176.990,189.189 177.872 M229.146 182.770 C 229.146 183.606,229.212 183.948,229.292 183.530 C 229.373 183.112,229.373 182.428,229.292 182.010 C 229.212 181.592,229.146 181.934,229.146 182.770 M164.337 196.030 L 163.345 197.128 164.443 196.136 C 165.466 195.211,165.696 194.932,165.435 194.932 C 165.377 194.932,164.883 195.427,164.337 196.030 M255.663 203.279 C 256.083 203.360,256.691 203.357,257.014 203.273 C 257.337 203.188,256.993 203.122,256.250 203.126 C 255.507 203.129,255.242 203.199,255.663 203.279 M250.597 203.623 C 251.204 203.698,252.117 203.697,252.624 203.620 C 253.132 203.543,252.635 203.481,251.520 203.483 C 250.405 203.485,249.990 203.548,250.597 203.623 M228.636 204.631 C 229.056 204.712,229.664 204.709,229.987 204.624 C 230.310 204.539,229.966 204.473,229.223 204.477 C 228.480 204.481,228.215 204.550,228.636 204.631 M220.865 204.969 C 221.286 205.049,221.894 205.046,222.217 204.962 C 222.540 204.877,222.196 204.811,221.453 204.815 C 220.709 204.819,220.445 204.888,220.865 204.969 M214.954 205.310 C 215.468 205.388,216.228 205.386,216.643 205.305 C 217.059 205.225,216.639 205.162,215.709 205.164 C 214.780 205.167,214.440 205.232,214.954 205.310 M211.571 205.638 C 211.896 205.723,212.428 205.723,212.753 205.638 C 213.079 205.553,212.812 205.484,212.162 205.484 C 211.512 205.484,211.246 205.553,211.571 205.638 M198.902 212.401 C 199.320 212.481,200.004 212.481,200.422 212.401 C 200.840 212.320,200.498 212.254,199.662 212.254 C 198.826 212.254,198.484 212.320,198.902 212.401 M207.855 212.395 C 208.180 212.480,208.712 212.480,209.037 212.395 C 209.362 212.310,209.096 212.241,208.446 212.241 C 207.796 212.241,207.530 212.310,207.855 212.395 M211.233 215.436 C 211.558 215.521,212.090 215.521,212.416 215.436 C 212.741 215.351,212.475 215.281,211.824 215.281 C 211.174 215.281,210.908 215.351,211.233 215.436 M216.470 215.441 C 216.888 215.522,217.572 215.522,217.990 215.441 C 218.408 215.361,218.066 215.295,217.230 215.295 C 216.394 215.295,216.052 215.361,216.470 215.441 M152.804 223.986 C 152.804 225.008,152.867 225.427,152.945 224.916 C 153.022 224.405,153.022 223.568,152.945 223.057 C 152.867 222.546,152.804 222.965,152.804 223.986 M183.869 239.020 C 183.873 239.764,183.942 240.028,184.023 239.608 C 184.104 239.187,184.100 238.579,184.016 238.256 C 183.931 237.933,183.865 238.277,183.869 239.020 M163.592 250.338 C 163.592 250.988,163.661 251.254,163.746 250.929 C 163.831 250.604,163.831 250.072,163.746 249.747 C 163.661 249.421,163.592 249.688,163.592 250.338 M163.767 252.880 C 163.677 253.349,163.736 253.814,163.897 253.913 C 164.058 254.013,164.189 253.629,164.189 253.060 C 164.189 251.806,163.989 251.720,163.767 252.880 M210.630 297.635 C 210.630 307.204,210.673 311.119,210.726 306.334 C 210.779 301.550,210.779 293.720,210.726 288.936 C 210.673 284.151,210.630 288.066,210.630 297.635 M322.740 294.847 C 325.306 294.905,329.411 294.905,331.861 294.847 C 334.312 294.789,332.213 294.742,327.196 294.742 C 322.179 294.743,320.174 294.790,322.740 294.847 M145.270 306.317 C 152.394 306.557,159.045 306.566,158.901 306.334 C 158.815 306.195,155.066 306.112,150.571 306.151 C 146.076 306.189,143.691 306.264,145.270 306.317 M275.794 312.162 C 275.794 313.742,275.852 314.388,275.923 313.598 C 275.994 312.808,275.994 311.516,275.923 310.726 C 275.852 309.937,275.794 310.583,275.794 312.162 M309.240 312.162 C 309.240 313.742,309.298 314.388,309.369 313.598 C 309.440 312.808,309.440 311.516,309.369 310.726 C 309.298 309.937,309.240 310.583,309.240 312.162 " stroke="none" fill="#747474" fill-rule="evenodd"></path><path id="path4" d="M185.732 47.880 C 186.340 47.955,187.252 47.954,187.759 47.877 C 188.267 47.799,187.770 47.738,186.655 47.740 C 185.541 47.742,185.125 47.805,185.732 47.880 M94.404 60.895 L 93.412 61.993 94.510 61.001 C 95.534 60.076,95.763 59.797,95.502 59.797 C 95.444 59.797,94.950 60.291,94.404 60.895 M174.662 70.101 C 175.292 70.752,175.884 71.284,175.977 71.284 C 176.070 71.284,175.630 70.752,175.000 70.101 C 174.370 69.451,173.778 68.919,173.685 68.919 C 173.592 68.919,174.032 69.451,174.662 70.101 M333.907 98.818 C 333.908 100.676,333.965 101.393,334.033 100.411 C 334.102 99.429,334.101 97.909,334.032 97.033 C 333.962 96.156,333.906 96.959,333.907 98.818 M111.130 113.429 L 109.966 114.696 111.233 113.532 C 111.930 112.891,112.500 112.321,112.500 112.265 C 112.500 112.007,112.214 112.250,111.130 113.429 M312.259 132.601 C 312.261 133.530,312.327 133.870,312.405 133.357 C 312.482 132.843,312.480 132.083,312.400 131.668 C 312.320 131.252,312.256 131.672,312.259 132.601 M213.603 215.445 C 214.116 215.523,214.876 215.521,215.292 215.441 C 215.707 215.360,215.287 215.297,214.358 215.299 C 213.429 215.302,213.089 215.367,213.603 215.445 M204.549 297.635 C 204.549 307.204,204.592 311.119,204.645 306.334 C 204.698 301.550,204.698 293.720,204.645 288.936 C 204.592 284.151,204.549 288.066,204.549 297.635 M246.103 297.635 C 246.103 307.204,246.146 311.119,246.199 306.334 C 246.252 301.550,246.252 293.720,246.199 288.936 C 246.146 284.151,246.103 288.066,246.103 297.635 M344.713 283.108 C 344.713 284.688,344.771 285.334,344.842 284.544 C 344.913 283.754,344.913 282.462,344.842 281.672 C 344.771 280.883,344.713 281.529,344.713 283.108 " stroke="none" fill="#7c7c7c" fill-rule="evenodd"></path></g></svg>